<svg xmlns="http://www.w3.org/2000/svg" viewBox="0 0 13862 11420.89"><defs><style>.cls-1{fill:#f15a24;}.cls-1,.cls-2,.cls-3,.cls-4,.cls-5{stroke:#000;stroke-miterlimit:10;}.cls-2{fill:#fbb03b;}.cls-3{fill:#fcee21;}.cls-4{fill:none;}.cls-5{fill:#ed1c24;}</style></defs><title>SVG_All_UnnestedLampTags</title><g id="Layer_2" data-name="Layer 2"><g id="Layer_79" data-name="Layer 79"><polygon id="l2_scale12" class="cls-1" points="6877.94 9834.29 7089.25 9930.04 7214.71 9755.05 6904.36 9289.52 6537.87 9309.33 6488.35 9414.98 6877.94 9834.29"/><path id="l2_scale13-Head02" class="cls-1" d="M12148.4,335.49c-46.89,33.42-91.3,67.5-133.86,101.85l165.46,79.9-54.84,211.89,405.9-281.89L13124.69,320l401.78,287.25,101.43,401.07-119.17,385.2c-75.91,48.94-181,133.62-258.14,269.65-23.77,41.9-152.32,268.72-83,376.3a94.5,94.5,0,0,0,19.37,28.53c81,79.94,326-5.64,462.47-154.15,92.61-100.81,86.56-177.69,166.89-350.74,114-245.62,184.27-309,208.75-456.88,41.88-252.91-41.83-526.58-220.84-808.09C13529.48-133.87,12721.89-73.16,12148.4,335.49Z" transform="translate(-174.18)"/><polygon id="l2_scale11" class="cls-1" points="6102.93 9562.42 6297.72 9608.65 6406.68 9466.67 6013.78 9044.06 5764.51 9164.57 5761.2 9257.02 6102.93 9562.42"/><polygon id="l2_scale10" class="cls-1" points="7816.27 8664.34 7954.94 8674.25 8093.61 8446.43 7720.52 8228.53 7476.2 8337.48 7499.31 8413.42 7816.27 8664.34"/><polygon id="l2_scale09" class="cls-1" points="7533.73 9191.57 7692.21 9208.08 7804.46 9009.98 7428.08 8775.56 7200.26 8782.17 7203.56 8861.41 7533.73 9191.57"/><polygon id="l2_scale08" class="cls-1" points="6791.03 9254.13 6583.02 8818.32 6744.8 8699.46 7055.16 9254.13 6791.03 9254.13"/><polygon id="l2_scale06" class="cls-1" points="5815.04 8058.8 5990.03 8105.03 6095.68 7632.89 5940.51 7401.78 5815.04 8058.8"/><polygon id="l2_scale07" class="cls-1" points="5883.18 8280.98 6097.78 8957.82 6282.68 9007.34 6110.99 8307.39 5883.18 8280.98"/><polygon id="l2_scale01" class="cls-1" points="6168.99 8250.6 6401.76 8659.18 6575.1 8678.99 6812.81 8577.46 6561.89 7903.92 6241.63 7960.05 6168.99 8250.6"/><path id="l2_head01" class="cls-1" d="M7266.26,8592.6c31,21.82,57.63,40.58,92.45,38a87.94,87.94,0,0,0,10-1.82c13.71-6.36,27.67-12.26,41.66-18.09,70.63-50.07,117.3-182.92,129.89-275.59,21.18-156-42.63-282.64-77.8-340.9-136.67-9.33-272.56-2.09-408,15.48,0,129.5,23.19,231.91,43.33,299C7127.13,8406.1,7162.95,8519.85,7266.26,8592.6Z" transform="translate(-174.18)"/><path id="l2_left_leg05" class="cls-1" d="M4521.52,792.48l245.71,42.74,4.53,383.37L4633,1483.94l198.58-222.43,25.86-551.41-219-39.45C4571.81,703.29,4526.77,754.39,4521.52,792.48Z" transform="translate(-174.18)"/><path id="l2_left_leg04" class="cls-1" d="M1122.08,1054c-15.94,74.68-88.54,99.89-208,84.19L691.22,880.62l247.62-510.1,495.25-203.05L1057.7,434.89l-193.15,416Z" transform="translate(-174.18)"/><path id="l2_left_leg03" class="cls-1" d="M1584.32,1088.62c101.68,46,164.4,23.37,194.8-56.13L1552.95,657.75,1954.1,311.08l703.25-173.34-733,79.24L1369.71,636.29Z" transform="translate(-174.18)"/><path id="l2_left_leg02" class="cls-1" d="M2238,1329.64l184.89-442.42,686.74-132.07L3552.1,880.62,3096.47,669.31l-766,85.84-303.75,409.4C2087.08,1330,2157.54,1384.67,2238,1329.64Z" transform="translate(-174.18)"/><path id="l2_left_leg01" class="cls-1" d="M2700.27,2049.4l515.06-303.75L3836,1930.54l369.78,244.32-330.16-343.37-706.55-217.91L2588,1798.47C2585.63,1896.67,2619.66,1981.55,2700.27,2049.4Z" transform="translate(-174.18)"/><path id="l2_right_leg16" class="cls-1" d="M1326.79,7200l-26.41,356.58L1424.19,8032l384.64,231.12-307.88-310.35L1439,7556.54l118.86-376.39C1478,7150.15,1401.07,7157.72,1326.79,7200Z" transform="translate(-174.18)"/><path id="l2_right_leg15" class="cls-1" d="M2086.17,7120.73c44-118.27,115.8-177.39,217.91-171.69l138.67,686.74,501.85,343.37,336.77,6.6L2971,8071.6,2337.09,7715Z" transform="translate(-174.18)"/><path id="l2_right_leg14" class="cls-1" d="M2660.65,6427.38c-100.1-159.63-53.6-228.4,46.22-264.13L3195.52,6533l548.07,85.84L4133.19,6401l-350,310.35-640.52-19.81Z" transform="translate(-174.18)"/><path id="l2_right_leg13" class="cls-1" d="M5173.41,4462.84c68.48-79.72,27.62-145.58-35.44-195l-459.23-108.17-329.67,176.62-129.9,402.37,192.94-323.71,299-110.45Z" transform="translate(-174.18)"/><path id="l2_right_leg12" class="cls-1" d="M2640.84,4155.85l-208-244.32,148.57,287.24,9.9,392.9-326.63,181.75L2110.1,4592.49c-68.33-26.23-109.92-12.25-126.29,39.62l195.59,188.76-1.2.67,26,34.67L2345.34,4876l361.53-248Z" transform="translate(-174.18)"/><path id="l2_right_leg11" class="cls-1" d="M2112.58,3805.87l-217.91-132.07,165.08,198.1,99,356.58-307.27,193-68.29-171.34c-127.78-28.34-175.39,1.74-155.38,81.1l102.79,166.18-7.45,4.68,84.19,58.19,86.67-20.43,360.5-271.77Z" transform="translate(-174.18)"/><path id="l2_right_leg10" class="cls-1" d="M1564.51,3380,1581,3716.73l-139.83,364.83-50-132.06c-130.67-111.88-242-100-222.86-23.11l160.13,330.16,39.67,15.66-6.65,17.36,84.19,41.27,117.21-56.13,113.91-551.38Z" transform="translate(-174.18)"/><path id="l2_right_leg09" class="cls-1" d="M1214.53,3386.56,1001.9,3708.93l-9.82-140.37q-56.49-99.34-153.53-1.24l38.38,328.1,1.27,1-9.93,15.06,68.1,49.52,80.06-23.11,287.24-554.68L1274,3076.21Z" transform="translate(-174.18)"/><path id="l2_right_leg08" class="cls-1" d="M1107.23,2767.51,919,3079.51,727.81,3271.87l17.88-51.21C715,3155,673.76,3123,617.48,3138.57L520.36,3465.8l5.78,8.94L503,3498l54.48,86.67,86.67-14.86,339.24-460.58Z" transform="translate(-174.18)"/><path id="l2_right_leg07" class="cls-1" d="M1072.56,2663.5,1236,2475.31,1037.89,2614,671.41,2911.13l-119.89,26.8,43.13-36.7c38.44-79.59,12.66-139.83-86.32-178l-257.87,272.1,4.84,8.82-4.84,1.08,29.71,96.57,91.62,12.38,349.15-64.38Z" transform="translate(-174.18)"/><path id="l2_right_leg06" class="cls-1" d="M629.31,2636.27l403.63-148.57,178.29-106.48-193.15,64.38L659,2532.26l-223.18-6.85,114.23-88.48c20.57-77.93,3.34-127.9-61.91-142.38L203.41,2518.28l-28.49-.87,35.91,89.14,64.38,39.62Z" transform="translate(-174.18)"/><path id="l2_right_leg05" class="cls-1" d="M790.27,2220.26l-165.39-93.84,39.1-17.59c27.06-69.82-6-108.94-81.72-126.29l-92.46,67.24-18.14-10.29-70.16,57,29.71,59.43,326.86,128.76,430.86,54.48,185.72-34.67-190.67-9.9Z" transform="translate(-174.18)"/><path id="l2_right_leg04" class="cls-1" d="M773.76,1933.84l397.85,217.91,283.94,105.65-221.21-142-217.91-211.31-47.11-7.9L1231,1692.82c15.72-69.13-21.19-96.78-123.81-72.64L737.44,1849.65l7.81,9-14.41-2.42Z" transform="translate(-174.18)"/><polygon id="l3_scale17" class="cls-2" points="7716.98 7390.09 7726.89 7003.8 8106.58 6884.94 8466.46 7145.77 8492.87 7386.79 8199.02 7624.51 7716.98 7390.09"/><polygon id="l3_scale16" class="cls-2" points="6713.26 10057.73 6502.78 10320.21 6534.97 10617.35 7208.51 10652.02 7284.44 10214.55 7125.97 10049.47 6713.26 10057.73"/><polygon id="l3_scale15" class="cls-2" points="5918.13 10009.15 5809.18 10326.11 6041.95 10608.4 6675.86 10033.91 6443.1 9626.16 6283.15 9654.37 5918.13 10009.15"/><polygon id="l3_scale14" class="cls-2" points="7433.65 10190.71 7512.89 10392.11 7862.86 10520.87 7928.9 9685.55 7578.92 9563.39 7400.64 9593.11 7433.65 10190.71"/><polygon id="l3_scale13" class="cls-2" points="6866.71 7068.91 7203.76 6969.82 7261 6707.42 6510.13 6606.81 6364.03 6866.32 6417.36 6995.89 6866.71 7068.91"/><polygon id="l3_scale05" class="cls-2" points="7309.36 7077.94 7418.32 7172.04 7787.28 6830.32 7683.28 6557.93 7601.56 6548.03 7301.94 7038.32 7309.36 7077.94"/><polygon id="l3_scale04" class="cls-2" points="6407.95 7901.26 6321.28 7737.82 6365.85 7584.3 6908.15 7344.1 6977.48 7510.01 6942.81 7705.63 6407.95 7901.26"/><polygon id="l3_scale03" class="cls-2" points="6405.34 6664.94 6299.69 7166.79 5751.62 7011.61 5652.57 6803.61 5702.09 6641.83 6405.34 6664.94"/><polygon id="l3_scale02" class="cls-2" points="7901.28 7670.57 7200.51 7197.61 7086.6 7378.38 7111.36 7670.57 7490.23 8044.49 7779.95 7910.77 7901.28 7670.57"/><path id="l3_right_leg12" class="cls-2" d="M2640.84,4155.85l-208-244.32,148.57,287.24,9.9,392.9-326.63,181.75L2110.1,4592.49c-69.91-29.23-108-8.9-126.29,39.62l195.59,188.76-1.2.67,26,34.67L2345.34,4876l361.53-248Z" transform="translate(-174.18)"/><path id="l3_right_leg11" class="cls-2" d="M2112.58,3805.87l-217.91-132.07,165.08,198.1,99,356.58-307.27,193-68.29-171.34c-127-30.79-171.07,2.17-155.38,81.1l102.79,166.18-7.45,4.68,84.19,58.19,86.67-20.43,360.5-271.77Z" transform="translate(-174.18)"/><path id="l3_right_leg10" class="cls-2" d="M1564.51,3380,1581,3716.73l-139.83,364.83-50-132.06c-152.9-107.87-218.69-104.59-222.86-23.11l160.13,330.16,39.67,15.66-6.65,17.36,84.19,41.27,117.21-56.13,113.91-551.38Z" transform="translate(-174.18)"/><path id="l3_right_leg09" class="cls-2" d="M1214.53,3386.56,1001.9,3708.93l-9.82-140.37c-48.69-75.71-100.88-56.73-153.53-1.24l38.38,328.1,1.27,1-9.93,15.06,68.1,49.52,80.06-23.11,287.24-554.68L1274,3076.21Z" transform="translate(-174.18)"/><path id="l3_right_leg08" class="cls-2" d="M1107.23,2767.51,919,3079.51,727.81,3271.87l17.88-51.21c-29.22-65.54-70.83-96.08-128.21-82.09L520.36,3465.8l5.78,8.94L503,3498l54.48,86.67,86.67-14.86,339.24-460.58Z" transform="translate(-174.18)"/><path id="l3_right_leg07" class="cls-2" d="M1072.56,2663.5,1236,2475.31,1037.89,2614,671.41,2911.13l-119.89,26.8,43.13-36.7c17.5-111.75-7.26-175.63-86.32-178l-257.87,272.1,4.84,8.82-4.84,1.08,29.71,96.57,91.62,12.38,349.15-64.38Z" transform="translate(-174.18)"/><path id="l3_right_leg06" class="cls-2" d="M629.31,2636.27l403.63-148.57,178.29-106.48-193.15,64.38L659,2532.26l-223.18-6.85,114.23-88.48c15.83-58.8-1.15-107.4-61.91-142.38L203.41,2518.28l-28.49-.87,35.91,89.14,64.38,39.62Z" transform="translate(-174.18)"/><path id="l3_right_leg05" class="cls-2" d="M790.27,2220.26l-165.39-93.84,39.1-17.59c26.84-84.18-16.39-115.53-81.72-126.29l-92.46,67.24-18.14-10.29-70.16,57,29.71,59.43,326.86,128.76,430.86,54.48,185.72-34.67-190.67-9.9Z" transform="translate(-174.18)"/><path id="l3_right_leg04" class="cls-2" d="M773.76,1933.84l397.85,217.91,283.94,105.65-221.21-142-217.91-211.31-47.11-7.9,261.72-196c20.19-91.69-39.76-99.17-123.81-80.09L737.44,1849.65l7.81,9-14.41-2.42Z" transform="translate(-174.18)"/><polygon id="l4_right_leg05" class="cls-3" points="297.49 2039.49 227.32 2096.45 257.04 2155.88 583.9 2284.64 1014.77 2339.12 1200.48 2304.45 1009.82 2294.55 616.09 2220.26 297.49 2039.49"/><polygon id="l4_right_leg04" class="cls-3" points="599.59 1936.32 997.43 2154.23 1281.38 2259.88 1060.16 2117.91 842.26 1906.6 556.66 1858.73 599.59 1936.32"/><polygon id="l4_right_leg12" class="cls-3" points="2171.17 4876.02 2532.7 4627.98 2466.67 4155.85 2258.66 3911.53 2407.24 4198.77 2417.14 4591.67 2004.02 4821.54 2030.02 4856.21 2171.17 4876.02"/><polygon id="l4_right_leg11" class="cls-3" points="1719.88 4539.87 2080.37 4268.1 1938.4 3805.87 1720.49 3673.81 1885.58 3871.91 1984.63 4228.48 1549.02 4502.11 1633.21 4560.3 1719.88 4539.87"/><polygon id="l4_right_leg10" class="cls-3" points="1187.28 4289.56 1271.47 4330.84 1388.68 4274.71 1502.59 3723.33 1390.33 3379.96 1406.84 3716.73 1187.28 4289.56"/><polygon id="l4_right_leg09" class="cls-3" points="1040.36 3386.57 1099.79 3076.21 1129.5 3383.26 842.26 3937.94 762.19 3961.05 694.1 3911.53 1040.36 3386.57"/><polygon id="l4_right_leg08" class="cls-3" points="933.05 2767.51 809.24 3109.23 470 3569.81 383.33 3584.66 328.85 3498 744.86 3079.51 933.05 2767.51"/><polygon id="l4_right_leg07" class="cls-3" points="497.24 2911.13 863.72 2613.98 1061.82 2475.31 898.38 2663.51 546.76 3049.8 197.61 3114.18 105.99 3101.8 76.28 3005.22 497.24 2911.13"/><polygon id="l4_right_leg06" class="cls-3" points="484.85 2532.26 843.91 2445.6 1037.05 2381.21 858.76 2487.69 455.14 2636.27 101.04 2646.17 36.66 2606.55 0.75 2517.41 484.85 2532.26"/><rect class="cls-4" x="6092.41" y="7068.39" width="2576" height="4352"/><path class="cls-5" d="M0,32.54" transform="translate(-174.18)"/></g></g></svg>