<svg xmlns="http://www.w3.org/2000/svg" viewBox="0 0 14990.45 11340.14"><g transform="translate(0 0)"><rect class="bin" x="7215.14" y="7127.64" width="2509.83" height="4212" transform="translate(-7215.14 -7127.64)"/><g transform="translate(-12918.8355388 49.4899053) rotate(0)"><path id="l2_scale13-Head02" class="cls-1" d="M13102.68,335.49c-46.89,33.42-91.3,67.5-133.86,101.85l165.46,79.9-54.84,211.89,405.9-281.89L14079,320l401.78,287.25,101.43,401.07L14463,1393.52c-75.91,48.94-181,133.62-258.14,269.65-23.77,41.9-152.32,268.72-83,376.3a94.5,94.5,0,0,0,19.37,28.53c81,79.94,326-5.64,462.47-154.15,92.61-100.81,86.56-177.69,166.89-350.74,114-245.62,184.27-309,208.75-456.88,41.88-252.91-41.83-526.58-220.84-808.09C14483.76-133.87,13676.17-73.16,13102.68,335.49Z"/></g><g transform="translate(-9576.209935699997 8528.257244000002) rotate(270)"><polygon id="l3_scale15" class="cls-2" points="7046.59 10009.15 6937.63 10326.11 7170.4 10608.4 7804.31 10033.91 7571.55 9626.16 7411.6 9654.37 7046.59 10009.15"/></g><g transform="translate(-8479.1659486 -8047.267458600001) rotate(0)"><polygon id="l3_scale14" class="cls-2" points="8562.1 10190.71 8641.34 10392.11 8991.32 10520.87 9057.35 9685.55 8707.38 9563.39 8529.09 9593.11 8562.1 10190.71"/></g><g transform="translate(-8222.0454071 -4794.5885718) rotate(0)"><polygon id="l3_scale17" class="cls-2" points="8845.44 7390.09 8855.34 7003.8 9235.03 6884.94 9594.91 7145.77 9621.32 7386.79 9327.48 7624.51 8845.44 7390.09"/></g><g transform="translate(-8556.659678199998 10532.551178400001) rotate(270)"><polygon id="l3_scale16" class="cls-2" points="7841.71 10057.73 7631.23 10320.21 7663.42 10617.35 8336.96 10652.02 8412.9 10214.55 8254.42 10049.47 7841.71 10057.73"/></g><g transform="translate(-8165.2285136 -4745.6969235) rotate(0)"><polygon id="l3_scale02" class="cls-2" points="9029.74 7670.57 8328.96 7197.61 8215.05 7378.38 8239.82 7670.57 8618.68 8044.49 8908.4 7910.77 9029.74 7670.57"/></g><g transform="translate(-6175.341363 -5073.7535617) rotate(0)"><polygon id="l2_scale01" class="cls-1" points="7297.44 8250.6 7530.21 8659.18 7703.55 8678.99 7941.27 8577.46 7690.34 7903.92 7370.08 7960.05 7297.44 8250.6"/></g><g transform="translate(-4770.916321099999 11372.614696800001) rotate(270)"><polygon id="l3_scale13" class="cls-2" points="7995.16 7068.91 8332.21 6969.82 8389.45 6707.42 7638.58 6606.81 7492.48 6866.32 7545.81 6995.89 7995.16 7068.91"/></g><g transform="translate(10332.4951363 -4477.451912500001) rotate(90)"><polygon id="l2_scale12" class="cls-1" points="8006.39 9834.29 8217.7 9930.04 8343.16 9755.05 8032.81 9289.52 7666.32 9309.33 7616.8 9414.98 8006.39 9834.29"/></g><g transform="translate(-7241.2282586 -7453.8400149) rotate(0)"><path id="l2_head01" class="cls-1" d="M8220.54,8592.6c31,21.82,57.63,40.58,92.45,38a87.94,87.94,0,0,0,10-1.82c13.71-6.36,27.67-12.26,41.66-18.09,70.63-50.07,117.3-182.92,129.89-275.59,21.18-156-42.63-282.64-77.8-340.9-136.67-9.33-272.56-2.09-408,15.48,0,129.5,23.19,231.91,43.33,299C8081.41,8406.1,8117.22,8519.85,8220.54,8592.6Z"/></g><g transform="translate(10542.6592914 -7127.5536326) rotate(90)"><polygon id="l2_scale10" class="cls-1" points="8944.72 8664.34 9083.39 8674.25 9222.06 8446.43 8848.97 8228.53 8604.65 8337.48 8627.76 8413.42 8944.72 8664.34"/></g><g transform="translate(-7261.292074399998 11065.816436500001) rotate(270)"><polygon id="l2_scale07" class="cls-1" points="7011.63 8280.98 7226.23 8957.82 7411.13 9007.34 7239.44 8307.39 7011.63 8280.98"/></g><g transform="translate(9975.076100600001 9304.1298828) rotate(180)"><polygon id="l2_scale08" class="cls-1" points="7919.48 9254.13 7711.48 8818.32 7873.26 8699.46 8183.61 9254.13 7919.48 9254.13"/></g><g transform="translate(2116.919260600001 9256.8383642) rotate(180)"><polygon id="l4_right_leg09" class="cls-3" points="1040.36 7576.24 1099.79 7265.89 1129.5 7572.94 842.26 8127.62 762.19 8150.73 694.1 8101.2 1040.36 7576.24"/></g></g><g transform="translate(0 4632.1)"><rect class="bin" x="7215.14" y="7127.64" width="2509.83" height="4212" transform="translate(-7215.14 -7127.64)"/><g transform="translate(2224.7209281999994 -3492.2810695) rotate(90)"><path id="l2_left_leg01" class="cls-1" d="M3654.55,2049.4l515.06-303.75,620.71,184.89,369.78,244.32-330.16-343.37-706.55-217.91-581.09,184.89C3539.91,1896.67,3573.93,1981.55,3654.55,2049.4Z"/></g><g transform="translate(7398.8737346 -3438.7770088000007) rotate(90)"><path id="l2_right_leg14" class="cls-1" d="M3614.93,6427.38c-100.1-159.63-53.6-228.4,46.22-264.13L4149.79,6533l548.07,85.84L5087.46,6401l-350,310.35L4097,6691.51Z"/></g><g transform="translate(1684.4749842999995 -1563.9778173) rotate(90)"><path id="l2_left_leg02" class="cls-1" d="M3192.32,1329.64l184.89-442.42L4064,755.15l442.42,125.46L4050.74,669.31l-766,85.84L2981,1164.56C3041.35,1330,3111.82,1384.67,3192.32,1329.64Z"/></g><g transform="translate(-6591.857053199998 9298.581475800001) rotate(270)"><polygon id="l3_scale03" class="cls-2" points="7533.79 6664.94 7428.14 7166.79 6880.07 7011.61 6781.02 6803.61 6830.54 6641.83 7533.79 6664.94"/></g><g transform="translate(8360.3402934 -173.61293590000014) rotate(90)"><path id="l2_right_leg15" class="cls-1" d="M3040.44,7120.73c44-118.27,115.8-177.39,217.91-171.69L3397,7635.78l501.85,343.37,336.77,6.6-310.35,85.84L3291.37,7715Z"/></g><g transform="translate(-1432.3027906000002 555.5404943000001) rotate(0)"><path id="l2_left_leg03" class="cls-1" d="M2538.59,1088.62c101.68,46,164.4,23.37,194.8-56.13L2507.23,657.75l401.15-346.67,703.25-173.34-733,79.24L2324,636.29Z"/></g><g transform="translate(612.3505077000004 5707.5774853) rotate(270)"><path id="l2_left_leg04" class="cls-1" d="M2076.36,1054c-15.94,74.68-88.54,99.89-208,84.19L1645.5,880.62l247.62-510.1,495.25-203.05L2012,434.89l-193.15,416Z"/></g><g transform="translate(8155.884868600001 10585.499677299998) rotate(180)"><polygon id="l3_scale04" class="cls-2" points="7536.4 7901.26 7449.73 7737.82 7494.3 7584.3 8036.6 7344.1 8105.93 7510.01 8071.26 7705.63 7536.4 7901.26"/></g><g transform="translate(3128.2145380000006 3371.5386277999996) rotate(180)"><path id="l2_right_leg07" class="cls-1" d="M2026.84,2663.5l163.43-188.19L1992.17,2614l-366.48,297.15-119.89,26.8,43.13-36.7c38.44-79.59,12.66-139.83-86.32-178l-257.87,272.1,4.84,8.82-4.84,1.08,29.71,96.57,91.62,12.38,349.15-64.38Z"/></g><g transform="translate(4162.6354767 560.7635802999998) rotate(90)"><path id="l3_right_leg07" class="cls-2" d="M2026.84,2663.5l163.43-188.19L1992.17,2614l-366.48,297.15-119.89,26.8,43.13-36.7c17.5-111.75-7.26-175.63-86.32-178l-257.87,272.1,4.84,8.82-4.84,1.08,29.71,96.57,91.62,12.38,349.15-64.38Z"/></g><g transform="translate(4021.9787267 5264.510992899999) rotate(180)"><path id="l2_right_leg10" class="cls-1" d="M2518.78,3380l16.51,336.77-139.83,364.83-50-132.06c-130.67-111.88-242-100-222.86-23.11l160.13,330.16,39.67,15.66-6.65,17.36,84.19,41.27,117.21-56.13L2631,3723.33Z"/></g><g transform="translate(4173.7704578 5910.5964533) rotate(180)"><path id="l3_right_leg10" class="cls-2" d="M2518.78,3380l16.51,336.77-139.83,364.83-50-132.06c-152.9-107.87-218.69-104.59-222.86-23.11l160.13,330.16,39.67,15.66-6.65,17.36,84.19,41.27,117.21-56.13L2631,3723.33Z"/></g><g transform="translate(-2028.3905562999998 -1303.4617338000003) rotate(0)"><path id="l2_right_leg12" class="cls-1" d="M3595.12,4155.85l-208-244.32,148.57,287.24,9.9,392.9L3219,4773.42l-154.58-180.93c-68.33-26.23-109.92-12.25-126.29,39.62l195.59,188.76-1.2.67,26,34.67L3299.62,4876l361.53-248Z"/></g><g transform="translate(4430.273044900001 11111.743015) rotate(180)"><path id="l2_right_leg16" class="cls-1" d="M2281.06,7200l-26.41,356.58L2378.46,8032,2763.1,8263.1l-307.88-310.35-61.91-396.2,118.86-376.39C2432.3,7150.15,2355.34,7157.72,2281.06,7200Z"/></g><g transform="translate(-364.1555578999996 3655.7743778000004) rotate(270)"><path id="l2_right_leg06" class="cls-1" d="M1583.59,2636.27l403.63-148.57,178.29-106.48-193.15,64.38-359.05,86.67-223.18-6.85,114.23-88.48c20.57-77.93,3.34-127.9-61.91-142.38l-284.75,223.74-28.49-.87,35.91,89.14,64.38,39.62Z"/><path id="l3_right_leg06" class="cls-2 hole" d="M1583.59,2636.27l403.63-148.57,178.29-106.48-193.15,64.38-359.05,86.67-223.18-6.85,114.23-88.48c15.83-58.8-1.15-107.4-61.91-142.38l-284.75,223.74-28.49-.87,35.91,89.14,64.38,39.62Z"/></g><g transform="translate(-4193.8637032999995 1652.422257600001) rotate(270)"><polygon id="l4_right_leg05" class="cls-3" points="297.49 6229.17 227.32 6286.12 257.04 6345.55 583.9 6474.32 1014.77 6528.79 1200.48 6494.13 1009.82 6484.22 616.09 6409.94 297.49 6229.17"/></g></g><g transform="translate(0 9264.2)"><rect class="bin" x="7215.14" y="7127.64" width="2509.83" height="4212" transform="translate(-7215.14 -7127.64)"/><g transform="translate(-3861.6718607999996 3710.989083800001) rotate(270)"><path id="l3_right_leg12" class="cls-2" d="M3595.12,4155.85l-208-244.32,148.57,287.24,9.9,392.9L3219,4773.42l-154.58-180.93c-69.91-29.23-108-8.9-126.29,39.62l195.59,188.76-1.2.67,26,34.67L3299.62,4876l361.53-248Z"/></g><g transform="translate(4689.5530167 -2150.6930278) rotate(90)"><path id="l2_right_leg11" class="cls-1" d="M3066.85,3805.87l-217.91-132.07L3014,3871.91l99,356.58-307.27,193-68.29-171.34c-127.78-28.34-175.39,1.74-155.38,81.1l102.79,166.18-7.45,4.68,84.19,58.19,86.67-20.43,360.5-271.77Z"/></g><g transform="translate(3295.8592695 5694.4012729999995) rotate(180)"><path id="l3_right_leg11" class="cls-2" d="M3066.85,3805.87l-217.91-132.07L3014,3871.91l99,356.58-307.27,193-68.29-171.34c-127-30.79-171.07,2.17-155.38,81.1l102.79,166.18-7.45,4.68,84.19,58.19,86.67-20.43,360.5-271.77Z"/></g><g transform="translate(7876.552059700001 11130.0377126) rotate(180)"><polygon id="l2_scale11" class="cls-1" points="7231.38 9562.42 7426.17 9608.65 7535.13 9466.67 7142.23 9044.06 6892.96 9164.57 6889.66 9257.02 7231.38 9562.42"/></g><g transform="translate(6213.130002000001 6786.6280797) rotate(180)"><path id="l2_right_leg13" class="cls-1" d="M6127.69,4462.84c68.48-79.72,27.62-145.58-35.44-195L5633,4159.66l-329.67,176.62-129.9,402.37,192.94-323.71,299-110.45Z"/></g><g transform="translate(2459.5603796 4856.1901169) rotate(180)"><path id="l3_right_leg04" class="cls-2" d="M1728,1933.84l397.85,217.91,283.94,105.65-221.21-142-217.91-211.31-47.11-7.9,261.72-196c20.19-91.69-39.76-99.17-123.81-80.09l-369.78,229.46,7.81,9-14.41-2.42Z"/></g><g transform="translate(3072.1392096000004 4687.4930011999995) rotate(180)"><path id="l2_right_leg09" class="cls-1" d="M2168.81,3386.56l-212.63,322.37-9.82-140.37q-56.49-99.34-153.53-1.24l38.38,328.1,1.27,1-9.93,15.06,68.1,49.52,80.06-23.11L2258,3383.26l-29.71-307.05Z"/></g><g transform="translate(-956.8314092999999 -950.8862803000002) rotate(0)"><path id="l3_right_leg09" class="cls-2" d="M2168.81,3386.56l-212.63,322.37-9.82-140.37c-48.69-75.71-100.88-56.73-153.53-1.24l38.38,328.1,1.27,1-9.93,15.06,68.1,49.52,80.06-23.11L2258,3383.26l-29.71-307.05Z"/></g><g transform="translate(-1184.2067310999996 5502.2940705) rotate(270)"><path id="l2_right_leg04" class="cls-1" d="M1728,1933.84l397.85,217.91,283.94,105.65-221.21-142-217.91-211.31-47.11-7.9,261.72-203.41c15.72-69.13-21.19-96.78-123.81-72.64l-369.78,229.46,7.81,9-14.41-2.42Z"/></g><g transform="translate(443.8714866 -3241.4005058000002) rotate(0)"><polygon id="l4_right_leg07" class="cls-3" points="497.24 7100.8 863.72 6803.66 1061.82 6664.99 898.38 6853.18 546.76 7239.47 197.61 7303.85 105.99 7291.48 76.28 7194.9 497.24 7100.8"/></g><g transform="translate(10013.2485203 -532.2384342000005) rotate(90)"><polygon id="l4_right_leg12" class="cls-3" points="2171.17 9065.7 2532.7 8817.66 2466.67 8345.52 2258.66 8101.2 2407.24 8388.45 2417.14 8781.34 2004.02 9011.22 2030.02 9045.89 2171.17 9065.7"/></g><g transform="translate(3011.7827067000003 6486.0682023) rotate(180)"><path id="l2_right_leg08" class="cls-1" d="M2061.5,2767.51l-188.19,312-191.22,192.36,17.88-51.21C1669.3,3155,1628,3123,1571.76,3138.57l-97.13,327.23,5.78,8.94L1457.3,3498l54.48,86.67,86.67-14.86,339.24-460.58Z"/></g><g transform="translate(4553.8553607 -1407.5322334999998) rotate(90)"><path id="l3_right_leg08" class="cls-2" d="M2061.5,2767.51l-188.19,312-191.22,192.36,17.88-51.21c-29.22-65.54-70.83-96.08-128.21-82.09l-97.13,327.23,5.78,8.94L1457.3,3498l54.48,86.67,86.67-14.86,339.24-460.58Z"/></g><g transform="translate(-7275.3305581 -5523.0563319) rotate(0)"><polygon id="l3_scale05" class="cls-2" points="8437.82 7077.94 8546.77 7172.04 8915.73 6830.32 8811.73 6557.93 8730.01 6548.03 8430.39 7038.32 8437.82 7077.94"/></g><g transform="translate(10124.0317946 875.7312769999994) rotate(90)"><polygon id="l4_right_leg11" class="cls-3" points="1719.88 8729.55 2080.37 8457.78 1938.4 7995.55 1720.49 7863.48 1885.58 8061.58 1984.63 8418.16 1549.02 8691.78 1633.21 8749.98 1719.88 8729.55"/></g><g transform="translate(-7408.151611299998 12390.753258200002) rotate(270)"><polygon id="l2_scale09" class="cls-1" points="8662.18 9191.57 8820.66 9208.08 8932.92 9009.98 8556.53 8775.56 8328.71 8782.17 8332.01 8861.41 8662.18 9191.57"/></g><g transform="translate(9839.2072686 -582.4857412000005) rotate(90)"><polygon id="l4_right_leg10" class="cls-3" points="1187.28 8479.24 1271.47 8520.51 1388.68 8464.38 1502.59 7913.01 1390.33 7569.64 1406.84 7906.4 1187.28 8479.24"/></g><g transform="translate(19.843571999999995 68.36988459999998) rotate(0)"><path id="l3_right_leg05" class="cls-2" d="M1744.55,2220.26l-165.39-93.84,39.1-17.59c26.84-84.18-16.39-115.53-81.72-126.29l-92.46,67.24-18.14-10.29-70.16,57,29.71,59.43,326.86,128.76,430.86,54.48,185.72-34.67-190.67-9.9Z"/><path id="l2_right_leg05" class="cls-1 hole" d="M1744.55,2220.26l-165.39-93.84,39.1-17.59c27.06-69.82-6-108.94-81.72-126.29l-92.46,67.24-18.14-10.29-70.16,57,29.71,59.43,326.86,128.76,430.86,54.48,185.72-34.67-190.67-9.9Z"/></g><g transform="translate(9591.4022831 -6781.429287) rotate(90)"><polygon id="l2_scale06" class="cls-1" points="6943.49 8058.8 7118.48 8105.03 7224.13 7632.89 7068.96 7401.78 6943.49 8058.8"/></g><g transform="translate(-4495.0631976 2333.474094100001) rotate(270)"><polygon id="l4_right_leg04" class="cls-3" points="599.59 6125.99 997.43 6343.9 1281.38 6449.56 1060.16 6307.58 842.26 6096.28 556.66 6048.4 599.59 6125.99"/></g></g><g transform="translate(0 13896.300000000001)"><rect class="bin" x="7215.14" y="7127.64" width="2509.83" height="4212" transform="translate(-7215.14 -7127.64)"/><g transform="translate(49.17308129999992 -6521.1528249) rotate(0)"><polygon id="l4_right_leg06" class="cls-3" points="484.85 6721.94 843.91 6635.27 1037.05 6570.89 858.76 6677.37 455.14 6825.94 101.04 6835.85 36.66 6796.23 0.75 6707.08 484.85 6721.94"/></g><g transform="translate(1604.1764343999998 -5177.6660456) rotate(90)"><path id="l2_left_leg05" class="cls-1" d="M5475.8,792.48l245.71,42.74,4.53,383.37-138.77,265.35,198.58-222.43,25.86-551.41-219-39.45C5526.09,703.29,5481,754.39,5475.8,792.48Z"/></g><g transform="translate(1412.6011531000008 8480.956893999999) rotate(180)"><polygon id="l4_right_leg08" class="cls-3" points="933.05 6957.18 809.24 7298.9 470 7759.48 383.33 7774.34 328.85 7687.67 744.86 7269.19 933.05 6957.18"/></g></g></svg>