<svg xmlns="http://www.w3.org/2000/svg" viewBox="0 0 9489.33 7395.13"><g transform="translate(0 0)"><rect class="bin" x="5332.99" y="5.35" width="2593.04" height="3433.37" transform="translate(-5332.99 -5.35)"/><g transform="translate(-2715.9387109 -1314.36) rotate(0)"><path id="l2_scale13-Head02" class="cls-2" d="M4856.5,1479.55c-27.53-57.44-56.27-112.3-85.64-165.19l-118.44,165.19-220.54-99.93,230.3,495.81,26.17,671.1L4299.14,2930,3842.8,2964.5l-397.24-202.88c-38.95-92-111.32-222.57-245-332.45-41.16-33.84-264-216.94-394.39-161.8a104.54,104.54,0,0,0-34.76,15.7c-102.48,73.13-55.65,356.41,80.35,533.25,92.32,120,177.26,128,350.63,248.36,246.09,170.82,301.85,259.39,458.38,314.11,267.71,93.57,581.84,54.21,922.57-87.54C5106.29,3073.71,5193.19,2182,4856.5,1479.55Z"/></g><g transform="translate(-38.99999999999986 3351.2639452) rotate(270)"><path id="l2_right_leg03" class="cls-2" d="M1034.86,367.79,813.5,253.24,826.17,39c-200,93.67-651.6,347.21-784.51,874.06C-95.82,1458.09,117.55,2051,585.3,2421.22l90.91-98.58C135.76,2046.42,100.48,1352,322.39,868.84,371.69,761.49,437,677.72,508.22,611.43L731.1,1108.27l474.38-180.42,226.34-179.11-273.1,123-365,67.43L709,472.29C845.21,403.08,973.23,378.33,1034.86,367.79Z"/></g><g transform="translate(1137.9399413999997 -4179.0905854) rotate(90)"><polygon id="l3_scale15" class="cls-3" points="4545.88 774.48 4713.51 1105.19 5116.93 1137.94 5149.38 192.12 4646.37 62.69 4545.52 211.38 4545.88 774.48"/></g><g transform="translate(1680.1266080999997 -2182.1102439) rotate(90)"><polygon id="l3_scale17" class="cls-3" points="2927.49 613 2956.38 186.5 3381.56 72.77 3767.2 377.78 3785.2 645.39 3449.37 894.48 2927.49 613"/></g><g transform="translate(2785.9099557 -465.89333639999995) rotate(90)"><polygon id="l3_scale14" class="cls-3" points="3083.27 1542.14 2978.65 1757.49 2581.65 1869.58 2580.24 942.65 2976.69 837.84 3170.78 885.86 3083.27 1542.14"/></g><g transform="translate(-2307.5900564 -2152.0099999999998) rotate(0)"><path id="l3_head02" class="cls-3" d="M3269.75,2431.69c39.28,87.23,123.29,240.06,290,357.74,45.42,32.07,300.1,211.89,421,122.89,103.61-76.26,61-314.48-17.32-460.17-117.2-218-344.65-285.17-401.09-300.14Z"/></g><g transform="translate(3654.2029872000003 1557.3949240999998) rotate(90)"><path id="l2_head01" class="cls-2" d="M421.8,1759c29.62,29.66,55.1,55.17,93.54,58.93,3.78.37,7.53,0,11.29-.07,16.15-4.32,32.48-8.1,48.83-11.81C661.94,1764.91,738,1629,769.34,1530.38c52.69-165.94,7.2-316.12-20.06-386.28-147.18-36.11-296.65-54-447.54-60.59-24.55,141.14-18.76,257.14-9.54,334.09C305.58,1529.35,323,1660.11,421.8,1759Z"/></g><g transform="translate(3421.803795 1217.0749752000002) rotate(90)"><path id="l2_left_leg04" class="cls-2" d="M1115.62,1359.13c-29.78-79,22.72-145.9,143.32-202.68L1620.31,1263l74.32,622.85-339.7,485L1545.5,1897l-68.8-502.7Z"/></g><g transform="translate(-693.8413388999998 2590.1925875000006) rotate(270)"><path id="l2_right_leg16" class="cls-2" d="M1847.3,3262.24l-395.12,18.31-522-151.45L686.42,2696.7l333.78,349.94,436.23,80.57,419.85-119.93C1907,3096.52,1896.29,3181.39,1847.3,3262.24Z"/></g><g transform="translate(3073.2800293 1646.8992587) rotate(90)"><polygon id="l2_scale09" class="cls-2" points="355.9 2922.7 447.51 3073.28 697.11 3039.44 651.4 2551.05 493.01 2354.89 425.45 2410.87 355.9 2922.7"/></g><g transform="translate(2732.5800781 -594.9826867000002) rotate(90)"><polygon id="l2_scale07" class="cls-2" points="738.82 1821.98 678.27 2605.12 847.36 2732.58 961.5 1943.53 738.82 1821.98"/></g><g transform="translate(2583.5542488 -985.7000122000001) rotate(90)"><polygon id="l2_scale08" class="cls-2" points="1552.06 300.63 1018.3 278.74 985.7 59.07 1688.62 42.31 1552.06 300.63"/></g><g transform="translate(658.3285076000012 9341.9391103) rotate(270)"><polygon id="l4_right_leg10" class="cls-4" points="6395.11 31.42 6498.55 23.83 6595.67 129.83 6484.9 742.73 6227.9 1048.77 6383.9 709.97 6395.11 31.42"/></g><g transform="translate(-4522.883031 417.19176489999995) rotate(0)"><polygon id="l4_right_leg09" class="cls-4" points="6267.61 573.99 6333.35 230.66 6366.23 570.34 6048.47 1183.94 5959.9 1209.5 5884.57 1154.72 6267.61 573.99"/></g><g transform="translate(2621.2400008 -2228.5539086999997) rotate(90)"><polygon id="l4_right_leg06" class="cls-4" points="5481.14 562.21 5556.77 963.75 5617.07 1180.75 5509.43 977.81 5367.9 523.55 5376.8 131.78 5424.18 62.87 5524.68 28.2 5481.14 562.21"/></g><g transform="translate(1097.4799804999996 -2488.401827) rotate(90)"><polygon id="l4_right_leg05" class="cls-4" points="5596.25 1023.47 5663.45 1097.48 5727.28 1061.03 5849.52 692.12 5883.35 212.88 5833.71 9.87 5834.42 221.08 5776.44 660.5 5596.25 1023.47"/></g><g transform="translate(-2757.42 -1441.3787507999998) rotate(0)"><path id="l1_left_leg08" class="cls-1" d="M2757.42,3417.89c228.49,49.67,420.07,46.29,556.66,42.87,23.63-.59,70.72-.79,95.28-1.48l-70.51-90.08-298.63-2.89,28.51-76.59,132.41-65.92-175.24,15.51-60.47,126.46-88.26-.64Z"/></g></g><g transform="translate(0 3776.3)"><rect class="bin" x="5332.99" y="5.35" width="2593.04" height="3433.37" transform="translate(-5332.99 -5.35)"/><g transform="translate(-3799.3300781 -66.8600006) rotate(0)"><polygon id="l3_scale16" class="cls-3" points="3869.47 716.25 4188.38 908.14 4509.38 828.87 4447.68 85.35 3956.84 66.86 3799.33 265.03 3869.47 716.25"/></g><g transform="translate(-895.9799804999993 4481.0013435) rotate(270)"><polygon id="l2_scale01" class="cls-2" points="3643.76 1556.08 3636.01 1035.95 3478.56 924.33 3194.02 895.98 3078.1 1682.6 3418.44 1798.96 3643.76 1556.08"/></g><g transform="translate(-1914.0500487999993 5967.2607583) rotate(270)"><polygon id="l3_scale02" class="cls-3" points="4055.84 1952.19 4058.22 2887.45 4294.44 2879.42 4546.52 2675.25 4653.44 2096.18 4351.07 1914.05 4055.84 1952.19"/></g><g transform="translate(3550.7399901999997 4166.2316961999995) rotate(180)"><polygon id="l3_scale13" class="cls-3" points="2974.61 1774.84 2608.6 1923.55 2567.64 2224.97 3410.8 2255.07 3550.74 1947.07 3480.29 1807.25 2974.61 1774.84"/></g><g transform="translate(4529.6398926 4473.9217597) rotate(180)"><polygon id="l3_scale03" class="cls-3" points="3793.15 1279.82 4291.6 1550.78 3953.51 2082.53 3701.66 2121.62 3545.88 2017.88 3793.15 1279.82"/></g><g transform="translate(-1836.9938470999996 2525.0900879000005) rotate(270)"><polygon id="l2_scale12" class="cls-2" points="2463.46 2852.08 2525.09 2602.96 2309.5 2501.7 1865.56 2932.98 1960.86 3327.64 2085.75 3360.25 2463.46 2852.08"/></g><g transform="translate(3253.2384444000004 3475.6599898999993) rotate(180)"><path id="l2_right_leg14" class="cls-2" d="M1186.71,3029.56C988,2966.78,977.86,2875.5,1036.37,2773.86l676.79-38.59,523.38-320.45L2408.68,1952l-72.5,512.35-554,442.35Z"/></g><g transform="translate(654.2400000000005 4872.445611) rotate(270)"><path id="l2_left_leg01" class="cls-2" d="M1607.38,350.25l531,394.43,78.36,712.17-90.08,481.95,208.07-484.14-81.6-813.86L1814.9,128C1713.78,167.74,1641.89,238.91,1607.38,350.25Z"/></g><g transform="translate(3023.0684444 -260.3400101) rotate(90)"><path id="l2_left_leg02" class="cls-2" d="M1502.85,668.27l454.66,273.22,34.6,772.84L1784,2178.51l304.24-464.89,28.68-852.18-399.49-398C1526.65,503,1455.51,571.35,1502.85,668.27Z"/></g><g transform="translate(-1579.3890856 1654.6901927) rotate(0)"><polygon id="l3_scale04" class="cls-3" points="2908.63 837.8 2704.69 854.71 2568 742.5 2560.07 86.43 2758.97 88.22 2942.78 208.71 2908.63 837.8"/></g><g transform="translate(370.6989277000016 10078.209922) rotate(270)"><path id="l1_right_leg01-leg02" class="cls-1" d="M8902.67,1298.86C8890,1351.24,8762.6,1444.7,8762.6,1444.7l-250.1-877.05L8720,601.79l8.24,81.74,256.33-49.73L9088.9,807l35,253.39-78.57-199.36-84.68-87-214.57,86.78,2.13,21.12-7.94,3.93,76.59,194.79L9012.08,914l47.62,80.6L9125,1239.52l-34.16,141.34-20.76-96.47L9005.25,1068,8865.81,1205.1Z"/></g><g transform="translate(550.2661203 1695.9158846) rotate(0)"><polygon id="l2_scale11" class="cls-2" points="901.93 556.75 781.89 742.87 889.79 908.86 1475.43 654.91 1441.66 350.49 1346.46 312.96 901.93 556.75"/></g><g transform="translate(-5073.1266936 3096.794482000001) rotate(270)"><path id="l3_right_leg10" class="cls-3" d="M2190.77,6342.68,2209,6715.23l-154.69,403.59L1999,6972.72c-169.15-119.33-241.92-115.7-246.54-25.57l177.14,365.24,43.88,17.32-7.36,19.2,93.14,45.65,129.66-62.09,126-610Z"/></g><g transform="translate(-5093.395932 252.89294410000002) rotate(0)"><path id="l2_right_leg07" class="cls-2" d="M6701.6,1601.16,6427,1575.82l252.45,88.46L7183,1801.7l101.46,90.41-60.81-15.05c-96.31,16.85-133.79,78.89-104.2,192.45l410.91,56,4.8-10,4.09,3.65,67.58-89-48-90.3L7275.61,1667.7Z"/></g><g transform="translate(-717.5326207999985 7094.85) rotate(270)"><path id="l3_right_leg07" class="cls-3" d="M6785.2,2925l64,268.2,2.85-267.48-31.25-521,53.11-125.09,5.24,62.43c89.24,87.71,162.64,106.58,215.7,37l-78.67-407.18-11.05-1.33,2.14-5-106-35.47-70.14,74.43L6664.19,2360Z"/></g><g transform="translate(1384.4500000000014 10301.1787977) rotate(270)"><path id="l1_left_leg12" class="cls-1" d="M7111.82,138.21l49.76,19.32L7383,566.26l-168.6,448-238,194.33,258.84-110.7,283.41-535-153.91-326.4L7518,296l29-16,39.66-87.88C7523,142.33,7451.89,103.19,7375,77.15c-102-34.55-200.49-41.42-291.77-31.37Z"/></g><g transform="translate(-3516.6599121000004 2155.9000281999997) rotate(0)"><polygon id="l3_scale05" class="cls-3" points="3602.2 790.12 3516.66 924.45 3949.79 1273.58 4231.28 1116.12 4229.03 1025.09 3644.38 775.65 3602.2 790.12"/></g><g transform="translate(-4298.0971418 -34.17097520000016) rotate(0)"><path id="l2_right_leg04" class="cls-2" d="M5434.21,3387.91l501.8,2.82,331.9-46.52-290-21.82-323.21-91-50,17.09,147.72-335.61c-21.06-75.55-71.52-83-158.7-5.57l-239.19,417.8,12.34,4.67-15.29,5.23Z"/></g><g transform="translate(-4725.0840185 264.3974627) rotate(0)"><polygon id="l4_right_leg11" class="cls-4" points="6970.7 1082.14 7306.96 712.88 7057.97 239.46 6794.04 140.5 7014.06 322.06 7194.76 689.42 6777.23 1076.08 6880.67 1122.1 6970.7 1082.14"/></g><g transform="translate(3494.4241266999998 -4345.1134476) rotate(90)"><path id="l3_right_leg05" class="cls-3" d="M5985.08,1895.51l-52.81-203.62-30,36.73c-97.63,4.53-118.73-50.65-111.48-123.53l98.37-79.5-5.79-22.33,81-58.62,55,48.8,43.81,386.16-65.4,476L5907.38,2544l44.11-206.55Z"/></g></g><g transform="translate(0 7552.6)"><rect class="bin" x="5332.99" y="5.35" width="2593.04" height="3433.37" transform="translate(-5332.99 -5.35)"/><g transform="translate(-1709.2399999999996 2321.8400000000006) rotate(270)"><path id="l2_right_leg15" class="cls-2" d="M1049.61,2733.33C936.19,2651.92,894,2558.15,929.74,2450.82l773.3,51.72,512.44-435.78,105-357.52,1.36,356.21-564.94,572.89Z"/></g><g transform="translate(1938.07 2533.8695599) rotate(180)"><path id="l2_left_leg03" class="cls-2" d="M1329.17,853.39c-103.5,67.27-119.87,139.18-64,214.94l484,13,83.52,580.54-258.22,758.49,363.6-730-59.56-766.89Z"/></g><g transform="translate(-5399.860000000001 438.42274509999993) rotate(0)"><path id="l1_right_leg17" class="cls-1" d="M5399.86,1182.53a545.2,545.2,0,0,1,21.06,50.93c54.47,156.61,35.92,306.9,171.11,574.22,19.72,39,38.4,71.94,55.83,101l146.8-253L5630.58,1427l352.16-80.69,244.28,1.32,223.18,174.68L6242.88,1260.7l-292.6-23.3-444.73,15.34L5449,1173.89Z"/></g><g transform="translate(2444.560036300001 7763.098887900001) rotate(180)"><path id="l2_right_leg10" class="cls-2" d="M2190.77,6342.68,2209,6715.23l-154.69,403.59L1999,6972.72c-144.55-123.76-267.69-110.63-246.54-25.57l177.14,365.24,43.88,17.32-7.36,19.2,93.14,45.65,129.66-62.09,126-610Z"/></g><g transform="translate(-365.25593339999864 8449.717006500001) rotate(270)"><path id="l1_left_leg07" class="cls-1" d="M6873.81,1163.23c270.27,205.37,500.63,399.4,716.69,390.4,0,0-104.48,97.56-165.22,152L6919.6,1428l-152.73,132.12-230.28-1-195.43-85.93,79.42,8.45,115.92,20.28,200.84-34.43,93.47-91.86c-17-18.22-64.23-68.91-123.73-132.87Z"/></g><g transform="translate(-1142.7506921999998 3449.5061178000005) rotate(270)"><path id="l2_right_leg13" class="cls-2" d="M1072.43,2404.06c79.09,85.22,156.58,48.51,218.78-14.64l176.14-491.3-153-384.39L888.21,1320.79,1220,1573.21l84.14,342.42Z"/></g><g transform="translate(7689.6978535 3243.5299999999993) rotate(180)"><path id="l2_right_leg11" class="cls-2" d="M6252.39,2584.51l167.35-226.81-85.52,272.14L6383,3036.32l395.58,68.15-2.24-204c118.8-82.77,180.16-72,193.09,17.57l-35.22,213.27,9.59,1.65-61.64,95-97.26,15.57-483.18-126.32Z"/></g><g transform="translate(7474.009931 5582.728080799999) rotate(180)"><path id="l3_right_leg11" class="cls-3" d="M6561.56,3371.15l-236-154.12,276.58,69.83,403-71.88,45.43-398.83L6847,2830c-91.47-111.88-79.71-171.65,6.51-193.78l214.93,23,1.1-9.67,98.33,56.12L7189,2801.9l-98.5,489.61Z"/></g><g transform="translate(-1011.8568480999992 7393.7006884) rotate(270)"><path id="l1_left_leg10" class="cls-1" d="M4795.94,1214.82,4688.54,1194l-318.67,229.87L4538.28,1882l116.14,207.86-173.93-182.63L4224,1402.34l297.59-240.73-262.06-50.84,10-96.23c303.24-26.2,565.26,145.31,580.84,155.86Z"/></g><g transform="translate(-1657.7228842999987 10263.960000000001) rotate(270)"><path id="l2_right_leg12" class="cls-2" d="M7170.48,3354.6l-339.89,102.31L7141,3279.05l244.9-359.24-194.56-364.87-252.21,75.44c-79.24-16.61-109.51-54.55-93.61-112.58l295-58.12-.72-1.34,45-16.63L7327.84,2508l187.24,447.41Z"/></g><g transform="translate(-5456.9613194 -1307.8990147) rotate(0)"><path id="l3_right_leg12" class="cls-3" d="M6622.12,2675.21l33.27,353.4,47.82-354.54,240.52-362.19L7355,2354.66l25.13,262.05c44.77,70.87,92.17,76.64,139.55,44.3l-57.3-295.18,1.51.16-1.54-47.91L7347.1,2210.5l-485-4.9Z"/></g><g transform="translate(2098.3827965999994 -4895.406556600001) rotate(90)"><path id="l1_left_leg13" class="cls-1" d="M7266,1104.54l288.11-476.81,65.24-411.49-121-213.56,178,169-11.56,513.75-143.9,278.17,34.83-19.25,109,48.51c-129.31,127.75-290.76,210.37-458.32,235.92l8.54-96Z"/></g><g transform="translate(9183.9156166 5339.642670299999) rotate(180)"><path id="l3_right_leg04" class="cls-3" d="M7959.63,3385.71,7461.71,3448l-335.08-6.81L7412,3385.17l310.12-128.74,51.68,11-189.53-308c16.53-102.54,81.24-85.85,159.95-32l287.07,386.47-11.7,6.1,15.81,3.38Z"/></g><g transform="translate(3711.2238691000007 8724.3089752) rotate(180)"><path id="l2_right_leg09" class="cls-2" d="M1803.61,6350,1568.39,6706.6l-10.86-155.28Q1495,6441.43,1387.7,6550l42.46,363,1.4,1.14-11,16.66,75.33,54.79,88.57-25.57,317.76-613.6-32.87-339.67Z"/><path id="l3_right_leg09" class="cls-3 hole" d="M1803.61,6350,1568.39,6706.6l-10.86-155.28c-53.86-83.75-111.6-62.75-169.84-1.37l42.46,363,1.4,1.14-11,16.66,75.33,54.79,88.57-25.57,317.76-613.6-32.87-339.67Z"/></g><g transform="translate(3905.6715795999994 -6162.6879735) rotate(90)"><path id="l2_right_leg06" class="cls-2" d="M7934.71,2012.7,7830.1,2476.85l-91,210.93,42.69-221.14,43.16-406.32-39.77-243.78-80.54,138.07c-82.49,33.82-139.8,22.15-165.11-47.32l204.23-344.64-5.08-31.12,103,26.49,52.76,64.88Z"/></g><g transform="translate(-4000.031172 -1952.91) rotate(0)"><path id="l3_right_leg06" class="cls-3" d="M5982.16,2620.7,6103,2160.51l98.38-207.6L6151,2172.42,6093.54,2577l31.17,245,85.34-135.15c63.07-23.65,118.39-10.11,163.34,53.1l-216.23,337.24,4,31.28-102-30.1-50.44-66.7Z"/></g><g transform="translate(5582.1513632 1155.0099999999998) rotate(90)"><path id="l1_bottom_rightAnt" class="cls-1" d="M344.56,3202.43c293.12-14.64,407.49-29.14,532.43,5.06,155.54,42.58,261,114.27,300.84,130.39C1324,3397,1514,3534,2192,3401.36c41.32-36.59,88.65-86.14,86.36-91.35-10.16-23.08-58.35,19.45-83.23,27-196.88,60.06-595.34,81.31-890.51-31.24-115.83-44.17-193.95-95.5-331-147.65-191.38-72.85-266.19-52.06-600.89-52.29Z"/></g><g transform="translate(3933.6080434999994 -5406) rotate(90)"><path id="l3_right_leg08" class="cls-3" d="M5410,3013.51l74.25-396.18L5607.94,2344l1.29,60c55.65,56.61,110.59,72.15,164.64,35.44l-26-376.71-9.45-7,15-33-90-68.73-84.06,48.94L5406,2611.46Z"/></g><g transform="translate(9036.268828 2803.519999999999) rotate(180)"><path id="l2_right_leg08" class="cls-2" d="M6720.66,1617.56l-57.75,398.92,28.74,298.67,20.61-56.36c72.26-34.65,130-33.11,167.26,19.67l-146.35,348.09-11.21,3.59,3.47,36.1-107.38,36-63.74-73.48,32.68-632Z"/></g><g transform="translate(8153.5872996 4894.175557999999) rotate(180)"><path id="l2_right_leg05" class="cls-2" d="M5851.23,2171.85l-19.32-209.47-35.54,31.41c-82.72-4.5-107.1-55.65-90.13-139.87l109.89-62.62-2.12-23,89.36-44.81,46.39,57-19,388.17-141.21,459.21L5670.1,2799.38l76.81-196.75Z"/></g><g transform="translate(-4599.7564619 159.71210359999998) rotate(0)"><polygon id="l4_right_leg04" class="cls-4" points="5626.19 87.26 5580.34 586.96 5598.21 921.63 5644.82 634.62 5763.25 320.41 5686.01 9.52 5626.19 87.26"/></g></g><g transform="translate(0 11328.900000000001)"><rect class="bin" x="5332.99" y="5.35" width="2593.04" height="3433.37" transform="translate(-5332.99 -5.35)"/><g transform="translate(-34.71999999999966 2506.160022) rotate(270)"><path id="l1_bottom_leftAnt" class="cls-1" d="M2383,1578.09c19.27-342,28.19-533.41,33.39-646.06,8.09-175.35-1.15-265.22-64.31-368.14-69.37-113-136.42-111.8-277.06-210.39-215.39-151-233.81-264.06-223.33-318.78,33.29-8.89,72,114.64,158.16,178.19,133.85,98.67,323.38,162.48,388.37,273.66,43.92,75.13,147.9,297.9,91.83,1087.88Z"/></g><g transform="translate(-75.5199999999985 8146.620021999999) rotate(270)"><path id="l1_left_leg05" class="cls-1" d="M7519.45,1151.74c36.18,54.41,111.63,345,141.59,422L7769,1511.51c-11-31.32-18.49-51.78-20.68-56.41l-42.12-83.23c-15-28-31-55.38-47.42-82.42L7886.86,1269l25.62-610.12-197-264.58,126.87,306-42.61,422-228.93,36.25Z"/></g><g transform="translate(6377.159882800001 1538.5999780999991) rotate(180)"><polygon id="l4_right_leg07" class="cls-4" points="6020.54 492.31 5831.46 978.79 5752.38 1234.33 5895.34 998.56 6183.34 497.59 6133.11 108.06 6089.1 15.75 5977.33 17.1 6020.54 492.31"/></g><g transform="translate(1454.3398143999996 -5545.9400000000005) rotate(90)"><polygon id="l4_right_leg12" class="cls-4" points="6748.86 1079.63 7066.84 713.39 6864.66 226.31 6573.93 22.67 6812.99 288.81 6933.01 706.69 6554.74 1067.85 6592.23 1097.72 6748.86 1079.63"/></g><g transform="translate(7146.8735498 3374.4648437999995) rotate(180)"><path id="l1_left_leg06" class="cls-1" d="M6136.46,1916.11c176.93-44.74,360.39-82.77,543.75-117.83L6574,1647.12c-61.75,19.63-133,42.31-203.39,64.82l-138.12-259-272.92-84.6-274.27,102.38L5936,1422.84l246.37,86,85,236.13c-76.52,24.57-145.3,46.82-191.07,61.95Z"/></g><g transform="translate(4575.5398143 -1966.6398242) rotate(90)"><path id="l1_left_leg11" class="cls-1" d="M2739.59,3344.65a850.34,850.34,0,0,1,136-19.53l-40.6-93,159.64-88.25L3288,3254.1l168.21,214.5-133.36-246.74-325-164.72-210.14,66.6-135.32-309.92-68.06,17.7C2576.86,3032.18,2645.89,3201.85,2739.59,3344.65Z"/></g><g transform="translate(3890.4332201999996 -6471.679267699999) rotate(90)"><path id="l1_top_rightAnt" class="cls-1" d="M8475,2770.42S8368.79,2924,8446.84,3458c87.63,599.41-305.74,302.72-258.22,67.31,19-94.29,149.78-260-36.21-374.67,5-7.46,96.87,115.37,11.8,322.51-152.52,371.39,466.21,737,353.34-49.1-23.33-162.5-54.79-282.57-61.77-363.82-16.16-188,37.35-196.83,72.43-220.9C8528.21,2839.31,8545.49,2775.4,8475,2770.42Z"/></g><g transform="translate(434.5654956000012 6760.7301783) rotate(270)"><polygon id="l4_right_leg08" class="cls-4" points="6643.32 168.22 6659.48 569.96 6504.75 1183.55 6422.21 1235.02 6330.16 1169.06 6581.12 566.46 6643.32 168.22"/></g><g transform="translate(3276.5035497999997 649.0148438000001) rotate(90)"><path id="l2_left_leg05" class="cls-2" d="M739,1660.76l275.86,4.18L1086.19,2083,980.48,2397,1159,2119.57l-67.16-607-246.05-5.22C778.56,1554.59,738.19,1618.23,739,1660.76Z"/></g><g transform="translate(5601.4782528000005 4127.6800324999995) rotate(180)"><path id="l1_left_leg09" class="cls-1" d="M4860.11,3426.84A1867,1867,0,0,0,5052.56,3363l70.34-110.36-293.6,78.38,16.35-147.45,137.2-132.39,119.6-50.17-158,14.06-185.33,176.12-24.17,165-147.41,39.36-111.35-12.1L4428.91,3511C4588.74,3500.76,4738.62,3459.93,4860.11,3426.84Z"/></g><g transform="translate(-7722.1989649 -670.9043312000001) rotate(0)"><path id="l1_top_leftAnt" class="cls-1" d="M8538.11,2702.09a289.2,289.2,0,0,1,69.4,42c63,51.65,81.79,119,96.79,142.44,68.2,106.37,203.24,210.9,303.15,257.49,11.84,5.52,222.32,72.51,353.82-66.2,124-130.81,151.92-311.22,108.2-431.44-13.09-36-26-73.57-53-94-13.81-10.48-26.75-18.6-38.35-23.74,5.26,9.69,125,238.85,0,434.64-17.36,27.2-80.28,113.17-188.1,151.57-102.67,36.57-237.59-38.25-342.5-139.24C8778.36,2908.95,8739.74,2821,8697,2766c-38.45-49.45-99-74.85-111.4-113.23C8558.72,2652,8542.13,2667.22,8538.11,2702.09Z"/></g></g></svg>