0
SECTION
2
HEADER
9
$INSUNITS
70
1
9
$ACADVER
1
AC1014
9
$HANDSEED
5
FFFF
0
ENDSEC
0
SECTION
2
TABLES
0
TABLE
2
VPORT
5
8
100
AcDbSymbolTable
0
ENDTAB
0
TABLE
2
LTYPE
5
5
100
AcDbSymbolTable
0
LTYPE
5
14
100
AcDbSymbolTableRecord
100
AcDbLinetypeTableRecord
2
BYBLOCK
70
0
0
LTYPE
5
15
100
AcDbSymbolTableRecord
100
AcDbLinetypeTableRecord
2
BYLAYER
70
0
0
ENDTAB
0
TABLE
2
LAYER
5
2
100
AcDbSymbolTable
70
2
0
LAYER
5
50
100
AcDbSymbolTableRecord
100
AcDbLayerTableRecord
2
0
70
0
6
CONTINUOUS
0
ENDTAB
0
TABLE
2
STYLE
5
3
100
AcDbSymbolTable
70
1
0
STYLE
5
11
100
AcDbSymbolTableRecord
100
AcDbTextStyleTableRecord
2
STANDARD
70
0
0
ENDTAB
0
TABLE
2
VIEW
5
6
100
AcDbSymbolTable
70
0
0
ENDTAB
0
TABLE
2
UCS
5
7
100
AcDbSymbolTable
70
0
0
ENDTAB
0
TABLE
2
APPID
5
9
100
AcDbSymbolTable
70
2
0
APPID
5
12
100
AcDbSymbolTableRecord
100
AcDbRegAppTableRecord
2
ACAD
70
0
0
ENDTAB
0
TABLE
2
DIMSTYLE
5
A
100
AcDbSymbolTable
70
1
0
ENDTAB
0
TABLE
2
BLOCK_RECORD
5
1
100
AcDbSymbolTable
70
1
0
BLOCK_RECORD
5
1F
100
AcDbSymbolTableRecord
100
AcDbBlockTableRecord
2
*MODEL_SPACE
0
BLOCK_RECORD
5
1B
100
AcDbSymbolTableRecord
100
AcDbBlockTableRecord
2
*PAPER_SPACE
0
ENDTAB
0
ENDSEC
0
SECTION
2
BLOCKS
0
BLOCK
5
20
100
AcDbEntity
100
AcDbBlockBegin
2
*MODEL_SPACE
0
ENDBLK
5
21
100
AcDbEntity
100
AcDbBlockEnd
0
BLOCK
5
1C
100
AcDbEntity
100
AcDbBlockBegin
2
*PAPER_SPACE
0
ENDBLK
5
1D
100
AcDbEntity
100
AcDbBlockEnd
0
ENDSEC
0
SECTION
2
ENTITIES
0
SPLINE
5
100
100
AcDbEntity
8
0
100
AcDbSpline
70
1064
71
3
72
8
73
4
74
0
42
0.000000001
43
0.0000000001
44
0.0000000001
40
0
40
0
40
0
40
0
40
1
40
1
40
1
40
1
10
8.0585223445161773
20
41.333907863228418
30
0
10
9.7430674901294836
20
37.093901554617034
30
0
10
12.429480754164079
20
33.985533296447741
30
0
10
14.972434364066659
20
31.798182663960926
30
0
0
LINE
5
101
100
AcDbEntity
8
0
100
AcDbLine
10
14.972434364066659
20
31.798182663960926
30
0
11
27.193038433021176
21
33.964939350315987
31
0
0
LINE
5
102
100
AcDbEntity
8
0
100
AcDbLine
10
27.193038433021176
20
33.964939350315987
30
0
11
23.334467579802897
21
37.862027939055338
31
0
0
LINE
5
103
100
AcDbEntity
8
0
100
AcDbLine
10
23.334467579802897
20
37.862027939055338
30
0
11
23.101227589378688
21
36.5301748741635
31
0
0
SPLINE
5
104
100
AcDbEntity
8
0
100
AcDbSpline
70
1064
71
3
72
14
73
10
74
0
42
0.000000001
43
0.0000000001
44
0.0000000001
40
4
40
4
40
4
40
4
40
5
40
5
40
5
40
6
40
6
40
6
40
7
40
7
40
7
40
7
10
23.101227589378688
20
36.5301748741635
30
0
10
22.834368306576096
20
36.805594200400407
30
0
10
22.574051099258828
20
37.075283083423415
30
0
10
22.320655354441339
20
37.338848824381529
30
0
10
20.870008091300353
20
38.847717574541477
30
0
10
18.696061135690893
20
41.148999451495534
30
0
10
17.073916533299297
20
44.799639393543714
30
0
10
15.799491807689259
20
47.667734999562121
30
0
10
13.907856441921039
20
51.924890121081404
30
0
10
15.753979948114768
20
56.242774224995493
30
0
0
SPLINE
5
105
100
AcDbEntity
8
0
100
AcDbSpline
70
1064
71
3
72
11
73
7
74
0
42
0.000000001
43
0.0000000001
44
0.0000000001
40
7
40
7
40
7
40
7
40
8
40
8
40
8
40
9
40
9
40
9
40
9
10
15.753979948114768
20
56.242774224995493
30
0
10
15.86982118515609
20
56.513698932789204
30
0
10
18.438011090737739
20
62.259443042198825
30
0
10
24.021433589359756
20
62.531698645585102
30
0
10
28.138950183574817
20
62.732474597089343
30
0
10
32.145108297625811
20
59.871166018402988
30
0
10
33.667322299096462
20
55.443415963101423
30
0
0
SPLINE
5
106
100
AcDbEntity
8
0
100
AcDbSpline
70
1064
71
3
72
8
73
4
74
0
42
0.000000001
43
0.0000000001
44
0.0000000001
40
9
40
9
40
9
40
9
40
10
40
10
40
10
40
10
10
33.667322299096462
20
55.443415963101423
30
0
10
35.705163824413823
20
53.266731597332814
30
0
10
37.908257128045904
20
52.166915799423172
30
0
10
39.145620478528357
20
52.43920880050829
30
0
0
LINE
5
107
100
AcDbEntity
8
0
100
AcDbLine
10
39.145620478528357
20
52.43920880050829
30
0
11
39.14587882835184
21
52.439269233610233
31
0
0
SPLINE
5
108
100
AcDbEntity
8
0
100
AcDbSpline
70
1064
71
3
72
8
73
4
74
0
42
0.000000001
43
0.0000000001
44
0.0000000001
40
11
40
11
40
11
40
11
40
12
40
12
40
12
40
12
10
39.14587882835184
20
52.439269233610233
30
0
10
39.146783052734811
20
52.439480749467727
30
0
10
39.147561034690952
20
52.439855078020386
30
0
10
39.148465259073824
20
52.440066593877496
30
0
0
SPLINE
5
109
100
AcDbEntity
8
0
100
AcDbSpline
70
1064
71
3
72
8
73
4
74
0
42
0.000000001
43
0.0000000001
44
0.0000000001
40
12
40
12
40
12
40
12
40
13
40
13
40
13
40
13
10
39.148465259073824
20
52.440066593877496
30
0
10
39.148013391255837
20
52.43997692171957
30
0
10
39.147625377772599
20
52.439854100525359
30
0
10
39.147204704001567
20
52.439699596537579
30
0
0
ELLIPSE
5
110
100
AcDbEntity
8
0
100
AcDbEllipse
10
30.476361425833069
20
61.734867160955069
30
0
11
9.2765879715489898
21
-8.9758497009656733
31
0.0
40
0.27845288267693891
41
6.1011479291815434
42
6.2275854119504146
0
SPLINE
5
111
100
AcDbEntity
8
0
100
AcDbSpline
70
1064
71
3
72
26
73
22
74
0
42
0.000000001
43
0.0000000001
44
0.0000000001
40
14
40
14
40
14
40
14
40
15
40
15
40
15
40
16
40
16
40
16
40
17
40
17
40
17
40
18
40
18
40
18
40
19
40
19
40
19
40
20
40
20
40
20
40
21
40
21
40
21
40
21
10
39.599722428611905
20
52.629341928985291
30
0
10
40.845510715137202
20
53.490092408001054
30
0
10
40.334061039410031
20
56.905445870142053
30
0
10
38.73081180015884
20
59.057033094570144
30
0
10
37.642528463984071
20
60.517527486424811
30
0
10
36.622449116507333
20
60.629017619139063
30
0
10
34.559400352219555
20
62.107996597040483
30
0
10
31.631051063715162
20
64.20730084647046
30
0
10
30.993239961732531
20
65.913236416675801
30
0
10
29.541511188690841
20
67.280700444250542
30
0
10
27.547127851488163
20
69.159320969973763
30
0
10
24.494248730431536
20
69.949267461777779
30
0
10
21.457704822921155
20
69.97593175185628
30
0
10
18.853665717544715
20
69.998798160574808
30
0
10
16.261646346770476
20
69.460337887204219
30
0
10
14.359529601224519
20
68.565784269823268
30
0
10
8.5390687867402697
20
65.828464511075481
30
0
10
5.995355088618882
20
58.449979509599991
30
0
10
6.1616025366887595
20
51.07116431382515
30
0
10
6.2381283629597926
20
47.674601321041081
30
0
10
6.8888620640419092
20
44.277968364092885
30
0
10
8.0585223445161773
20
41.333907863228418
30
0
0
SPLINE
5
112
100
AcDbEntity
8
0
100
AcDbSpline
70
1064
71
3
72
8
73
4
74
0
42
0.000000001
43
0.0000000001
44
0.0000000001
40
0
40
0
40
0
40
0
40
1
40
1
40
1
40
1
10
-26.151514912577507
20
39.388395532089504
30
0
10
-24.356262523826761
20
37.474017284379329
30
0
10
-22.057651630579961
20
37.198593604747423
30
0
10
-21.433512416970821
20
37.144319363418532
30
0
0
SPLINE
5
113
100
AcDbEntity
8
0
100
AcDbSpline
70
1064
71
3
72
17
73
13
74
0
42
0.000000001
43
0.0000000001
44
0.0000000001
40
1
40
1
40
1
40
1
40
2
40
2
40
2
40
3
40
3
40
3
40
4
40
4
40
4
40
5
40
5
40
5
40
5
10
-21.433512416970821
20
37.144319363418532
30
0
10
-19.910375739779511
20
35.217504989702867
30
0
10
-18.295313620822348
20
34.254524699708355
30
0
10
-17.195210108879198
20
33.754057779959787
30
0
10
-13.658659668332298
20
32.145186182627583
30
0
10
-9.7966878492069949
20
32.811475332923202
30
0
10
-6.6437923235653962
20
34.112238473427574
30
0
10
-4.4843369972690974
20
35.003146487717018
30
0
10
-2.6575158109028822
20
36.191693130591645
30
0
10
-1.495697171716984
20
37.150721279409147
30
0
10
0.38351494591187202
20
38.701924933421658
30
0
10
1.8409756447684533
20
40.662514371360238
30
0
10
2.9131328041413296
20
42.861176175529017
30
0
0
LINE
5
114
100
AcDbEntity
8
0
100
AcDbLine
10
2.9131328041413296
20
42.861176175529017
30
0
11
2.3253816212557141
21
42.667444443946103
31
0
0
SPLINE
5
115
100
AcDbEntity
8
0
100
AcDbSpline
70
1064
71
3
72
8
73
4
74
0
42
0.000000001
43
0.0000000001
44
0.0000000001
40
6
40
6
40
6
40
6
40
7
40
7
40
7
40
7
10
2.3253816212557141
20
42.667444443946103
30
0
10
2.324917484338926
20
42.667219420872989
30
0
10
2.3245670676778518
20
42.666971464995505
30
0
10
2.3241029307613918
20
42.666746441922001
30
0
0
SPLINE
5
116
100
AcDbEntity
8
0
100
AcDbSpline
70
1064
71
3
72
8
73
4
74
0
42
0.000000001
43
0.0000000001
44
0.0000000001
40
7
40
7
40
7
40
7
40
8
40
8
40
8
40
8
10
2.3241029307613918
20
42.666746441922001
30
0
10
2.6317850018969513
20
43.39044561900954
30
0
10
4.7341580026338761
20
60.776512089084214
30
0
10
1.6304505597160459
20
64.311477042515008
30
0
0
SPLINE
5
117
100
AcDbEntity
8
0
100
AcDbSpline
70
1064
71
3
72
8
73
4
74
0
42
0.000000001
43
0.0000000001
44
0.0000000001
40
8
40
8
40
8
40
8
40
9
40
9
40
9
40
9
10
1.6304505597160459
20
64.311477042515008
30
0
10
1.6304525087596371
20
64.311476766404837
30
0
10
3.3380868619647486
20
64.069565695627176
30
0
10
4.3053722306266939
20
63.911872791012115
30
0
0
LINE
5
118
100
AcDbEntity
8
0
100
AcDbLine
10
4.3053722306266939
20
63.911872791012115
30
0
11
-1.5875012893189546
21
70.964372092846133
31
0
0
LINE
5
119
100
AcDbEntity
8
0
100
AcDbLine
10
-1.5875012893189546
20
70.964372092846133
30
0
11
-1.8097330175120308
21
70.935940921667864
31
0
0
LINE
5
120
100
AcDbEntity
8
0
100
AcDbLine
10
-1.8097330175120308
20
70.935940921667864
30
0
11
-1.7834091824294216
21
70.979035518434088
31
0
0
LINE
5
121
100
AcDbEntity
8
0
100
AcDbLine
10
-1.7834091824294216
20
70.979035518434088
30
0
11
-6.4366135019075452
21
75.19791987244885
31
0
0
LINE
5
122
100
AcDbEntity
8
0
100
AcDbLine
10
-6.4366135019075452
20
75.19791987244885
30
0
11
-6.6195188639056157
21
75.596038624409672
31
0
0
LINE
5
123
100
AcDbEntity
8
0
100
AcDbLine
10
-6.6195188639056157
20
75.596038624409672
30
0
11
-12.35042300504114
21
77.994653282243704
31
0
0
LINE
5
124
100
AcDbEntity
8
0
100
AcDbLine
10
-12.35042300504114
20
77.994653282243704
30
0
11
-12.7081928622459
21
77.889766243148657
31
0
0
LINE
5
125
100
AcDbEntity
8
0
100
AcDbLine
10
-12.7081928622459
20
77.889766243148657
30
0
11
-12.856858942175259
21
78.071928628444368
31
0
0
LINE
5
126
100
AcDbEntity
8
0
100
AcDbLine
10
-12.856858942175259
20
78.071928628444368
30
0
11
-18.0253187231175
21
79.561670304590578
31
0
0
LINE
5
127
100
AcDbEntity
8
0
100
AcDbLine
10
-18.0253187231175
20
79.561670304590578
30
0
11
-18.04992062923592
21
79.553568065997766
31
0
0
LINE
5
128
100
AcDbEntity
8
0
100
AcDbLine
10
-18.04992062923592
20
79.553568065997766
30
0
11
-18.087302145975645
21
79.654944802125058
31
0
0
LINE
5
129
100
AcDbEntity
8
0
100
AcDbLine
10
-18.087302145975645
20
79.654944802125058
30
0
11
-20.722097011594308
21
80.58790312550812
31
0
0
LINE
5
130
100
AcDbEntity
8
0
100
AcDbLine
10
-20.722097011594308
20
80.58790312550812
30
0
11
-20.721689469852308
21
80.587757216554252
31
0
0
LINE
5
131
100
AcDbEntity
8
0
100
AcDbLine
10
-20.721689469852308
20
80.587757216554252
30
0
11
-31.09877547459276
21
73.793717387827556
31
0
0
SPLINE
5
132
100
AcDbEntity
8
0
100
AcDbSpline
70
1064
71
3
72
8
73
4
74
0
42
0.000000001
43
0.0000000001
44
0.0000000001
40
23
40
23
40
23
40
23
40
24
40
24
40
24
40
24
10
-31.09877547459276
20
73.793717387827556
30
0
10
-28.201877876799621
20
72.879383787073678
30
0
10
-25.706533675862939
20
72.605352581002776
30
0
10
-24.344793117627098
20
72.50843453526457
30
0
0
SPLINE
5
133
100
AcDbEntity
8
0
100
AcDbSpline
70
1064
71
3
72
14
73
10
74
0
42
0.000000001
43
0.0000000001
44
0.0000000001
40
24
40
24
40
24
40
24
40
25
40
25
40
25
40
26
40
26
40
26
40
27
40
27
40
27
40
27
10
-24.344793117627098
20
72.50843453526457
30
0
10
-21.249157425859671
20
72.169762759863133
30
0
10
-15.584719266220059
20
71.063031363541157
30
0
10
-10.346703439909447
20
66.851714230609389
30
0
10
-7.4303743697360627
20
64.507014823645846
30
0
10
-1.9438531250577613
20
60.095839103698864
30
0
10
-2.3055816536360552
20
53.720657493729497
30
0
10
-2.4942700406837064
20
50.395172661640558
30
0
10
-4.3134171374615562
20
45.961471890764365
30
0
10
-8.297354675279065
20
44.155076021224033
30
0
0
LINE
5
134
100
AcDbEntity
8
0
100
AcDbLine
10
-8.297354675279065
20
44.155076021224033
30
0
11
-11.301018436977431
21
43.813898666185736
31
0
0
LINE
5
135
100
AcDbEntity
8
0
100
AcDbLine
10
-11.301018436977431
20
43.813898666185736
30
0
11
-11.26921546683023
21
43.640619003898991
31
0
0
LINE
5
136
100
AcDbEntity
8
0
100
AcDbLine
10
-11.26921546683023
20
43.640619003898991
30
0
11
-14.683538300114348
21
45.043334716414357
31
0
0
LINE
5
137
100
AcDbEntity
8
0
100
AcDbLine
10
-14.683538300114348
20
45.043334716414357
30
0
11
-15.001974642874931
21
42.534274615737893
31
0
0
LINE
5
138
100
AcDbEntity
8
0
100
AcDbLine
10
-15.001974642874931
20
42.534274615737893
30
0
11
-24.25418603950725
21
48.427149749611814
31
0
0
SPLINE
5
139
100
AcDbEntity
8
0
100
AcDbSpline
70
1064
71
3
72
8
73
4
74
0
42
0.000000001
43
0.0000000001
44
0.0000000001
40
32
40
32
40
32
40
32
40
33
40
33
40
33
40
33
10
-24.25418603950725
20
48.427149749611814
30
0
10
-24.254184470723722
20
48.427150938698013
30
0
10
-22.739538272828121
20
49.575202830695346
30
0
10
-22.092300089278218
20
49.541350466875976
30
0
0
LINE
5
140
100
AcDbEntity
8
0
100
AcDbLine
10
-22.092300089278218
20
49.541350466875976
30
0
11
-22.108005208235838
21
49.553621010416698
31
0
0
SPLINE
5
141
100
AcDbEntity
8
0
100
AcDbSpline
70
1064
71
3
72
8
73
4
74
0
42
0.000000001
43
0.0000000001
44
0.0000000001
40
34
40
34
40
34
40
34
40
35
40
35
40
35
40
35
10
-22.108005208235838
20
49.553621010416698
30
0
10
-22.07984330233398
20
49.569580792270777
30
0
10
-22.050920904543762
20
49.583939764557108
30
0
10
-22.022783405118687
20
49.599959088930667
30
0
0
SPLINE
5
142
100
AcDbEntity
8
0
100
AcDbSpline
70
1064
71
3
72
17
73
13
74
0
42
0.000000001
43
0.0000000001
44
0.0000000001
40
35
40
35
40
35
40
35
40
36
40
36
40
36
40
37
40
37
40
37
40
38
40
38
40
38
40
39
40
39
40
39
40
39
10
-22.022783405118687
20
49.599959088930667
30
0
10
-22.676725590898869
20
51.19405676810495
30
0
10
-23.478595710198878
20
52.338060700350248
30
0
10
-24.065190394303738
20
53.062433776054796
30
0
10
-24.917055049386033
20
54.114382995859948
30
0
10
-25.932038969960452
20
55.334038135481336
30
0
10
-27.571114792982602
20
55.708409425000056
30
0
10
-28.062612178320446
20
55.820669338397309
30
0
10
-28.485430757991985
20
55.917233608999787
30
0
10
-28.900873096329889
20
55.709318171295926
30
0
10
-29.547812605775217
20
55.385545895671854
30
0
10
-29.822899583801075
20
54.49876605313046
30
0
10
-29.878600089991448
20
53.520362301074783
30
0
0
SPLINE
5
143
100
AcDbEntity
8
0
100
AcDbSpline
70
1064
71
3
72
11
73
7
74
0
42
0.000000001
43
0.0000000001
44
0.0000000001
40
39
40
39
40
39
40
39
40
40
40
40
40
40
40
41
40
41
40
41
40
41
10
-29.878600089991448
20
53.520362301074783
30
0
10
-30.084443539145365
20
52.821889422550882
30
0
10
-30.225430833818073
20
51.987994469326964
30
0
10
-30.16637434317785
20
51.036319455159777
30
0
10
-29.995264174656899
20
48.278938000793296
30
0
10
-28.299198740784018
20
46.568839360170209
30
0
10
-27.889794771811587
20
46.177289656879779
30
0
0
SPLINE
5
144
100
AcDbEntity
8
0
100
AcDbSpline
70
1064
71
3
72
11
73
7
74
0
42
0.000000001
43
0.0000000001
44
0.0000000001
40
41
40
41
40
41
40
41
40
42
40
42
40
42
40
43
40
43
40
43
40
43
10
-27.889794771811587
20
46.177289656879779
30
0
10
-27.950451112972747
20
45.910945170794093
30
0
10
-28.474711456882606
20
43.418821509995901
30
0
10
-27.280040109827123
20
41.012336324534239
30
0
10
-27.004346614179635
20
40.456993372149221
30
0
10
-26.637112305962425
20
39.906211052197023
30
0
10
-26.151514912577507
20
39.388395532089504
30
0
0
LINE
5
145
100
AcDbEntity
8
0
100
AcDbLine
10
33.984893289627408
20
30.015831745541426
30
0
11
34.919165103524463
21
23.38065885802007
31
0
0
LINE
5
146
100
AcDbEntity
8
0
100
AcDbLine
10
34.919165103524463
20
23.38065885802007
30
0
11
33.696831309293877
21
18.52092878668547
31
0
0
LINE
5
147
100
AcDbEntity
8
0
100
AcDbLine
10
33.696831309293877
20
18.52092878668547
30
0
11
31.349843710130173
21
16.730183233154381
31
0
0
LINE
5
148
100
AcDbEntity
8
0
100
AcDbLine
10
31.349843710130173
20
16.730183233154381
30
0
11
34.116822247201647
21
17.75929123546662
31
0
0
LINE
5
149
100
AcDbEntity
8
0
100
AcDbLine
10
34.116822247201647
20
17.75929123546662
30
0
11
36.416044026560328
21
23.496576671845652
31
0
0
LINE
5
150
100
AcDbEntity
8
0
100
AcDbLine
10
36.416044026560328
20
23.496576671845652
30
0
11
36.13848057410943
21
27.253273430718174
31
0
0
LINE
5
151
100
AcDbEntity
8
0
100
AcDbLine
10
36.13848057410943
20
27.253273430718174
30
0
11
36.43280645994021
21
26.875735189722892
31
0
0
LINE
5
152
100
AcDbEntity
8
0
100
AcDbLine
10
36.43280645994021
20
26.875735189722892
30
0
11
37.867307688720977
21
26.897554260188279
31
0
0
SPLINE
5
153
100
AcDbEntity
8
0
100
AcDbSpline
70
1064
71
3
72
8
73
4
74
0
42
0.000000001
43
0.0000000001
44
0.0000000001
40
8
40
8
40
8
40
8
40
9
40
9
40
9
40
9
10
37.867307688720977
20
26.897554260188279
30
0
10
37.040494400772332
20
28.921465608665248
30
0
10
35.645054967863281
20
30.598088944815689
30
0
10
33.912340626978093
20
31.672293762808348
30
0
0
LINE
5
154
100
AcDbEntity
8
0
100
AcDbLine
10
33.912340626978093
20
31.672293762808348
30
0
11
33.553090297928584
21
30.569708994851549
31
0
0
LINE
5
155
100
AcDbEntity
8
0
100
AcDbLine
10
33.553090297928584
20
30.569708994851549
30
0
11
33.984893289627408
21
30.015831745541426
31
0
0
ELLIPSE
5
156
100
AcDbEntity
8
0
100
AcDbEllipse
10
-20.188833270614793
20
-48.533360571528625
30
0
11
34.956329123829732
21
53.334903399498018
31
0.0
40
0.34156105603806836
41
6.0718550049721065
42
6.1401407473634855
0
LINE
5
157
100
AcDbEntity
8
0
100
AcDbLine
10
11.8134883860542
20
5.9589035714629777
30
0
11
11.604932233555317
21
7.1612605473725726
31
0
0
LINE
5
158
100
AcDbEntity
8
0
100
AcDbLine
10
11.604932233555317
20
7.1612605473725726
30
0
11
13.7222222222222
21
7.7361111111111107
31
0
0
LINE
5
159
100
AcDbEntity
8
0
100
AcDbLine
10
13.7222222222222
20
7.7361111111111107
30
0
11
16.83441249314107
21
5.6101394893983807
31
0
0
LINE
5
160
100
AcDbEntity
8
0
100
AcDbLine
10
16.83441249314107
20
5.6101394893983807
30
0
11
18.18666438139017
21
2.6233832143481224
31
0
0
LINE
5
161
100
AcDbEntity
8
0
100
AcDbLine
10
18.18666438139017
20
2.6233832143481224
30
0
11
17.333757293554097
21
5.8872720702945047
31
0
0
LINE
5
162
100
AcDbEntity
8
0
100
AcDbLine
10
17.333757293554097
20
5.8872720702945047
30
0
11
14.007239551841721
21
8.7406528356435089
31
0
0
LINE
5
163
100
AcDbEntity
8
0
100
AcDbLine
10
14.007239551841721
20
8.7406528356435089
30
0
11
11.361766504252149
21
8.563061245477229
31
0
0
LINE
5
164
100
AcDbEntity
8
0
100
AcDbLine
10
11.361766504252149
20
8.563061245477229
30
0
11
10.66656064110801
21
12.570699881925616
31
0
0
LINE
5
165
100
AcDbEntity
8
0
100
AcDbLine
10
10.66656064110801
20
12.570699881925616
30
0
11
9.8208475742434675
21
12.558394584913531
31
0
0
SPLINE
5
166
100
AcDbEntity
8
0
100
AcDbSpline
70
1064
71
3
72
8
73
4
74
0
42
0.000000001
43
0.0000000001
44
0.0000000001
40
10
40
10
40
10
40
10
40
11
40
11
40
11
40
11
10
9.8208475742434675
20
12.558394584913531
30
0
10
9.1603540739886018
20
10.235091930693491
30
0
10
9.4819387537812752
20
8.0556154932001665
30
0
10
10.168574369115481
20
6.1194723484748534
30
0
0
LINE
5
167
100
AcDbEntity
8
0
100
AcDbLine
10
16.609413977811499
20
21.446626554461897
30
0
11
15.444274892908171
21
22.05808363063738
31
0
0
LINE
5
168
100
AcDbEntity
8
0
100
AcDbLine
10
15.444274892908171
20
22.05808363063738
30
0
11
14.179183750047008
21
26.611621714047889
31
0
0
LINE
5
169
100
AcDbEntity
8
0
100
AcDbLine
10
14.179183750047008
20
26.611621714047889
30
0
11
19.203681857471786
21
29.648584339410718
31
0
0
LINE
5
170
100
AcDbEntity
8
0
100
AcDbLine
10
19.203681857471786
20
29.648584339410718
30
0
11
21.856470753943871
21
30.727749605924117
31
0
0
LINE
5
171
100
AcDbEntity
8
0
100
AcDbLine
10
21.856470753943871
20
30.727749605924117
30
0
11
18.850630116497239
21
30.319749633786639
31
0
0
LINE
5
172
100
AcDbEntity
8
0
100
AcDbLine
10
18.850630116497239
20
30.319749633786639
30
0
11
12.64794928017856
21
27.505506831747798
31
0
0
LINE
5
173
100
AcDbEntity
8
0
100
AcDbLine
10
12.64794928017856
20
27.505506831747798
30
0
11
13.633504495993517
21
23.008353869220915
31
0
0
LINE
5
174
100
AcDbEntity
8
0
100
AcDbLine
10
13.633504495993517
20
23.008353869220915
30
0
11
10.790421917367539
21
24.500380884913302
31
0
0
LINE
5
175
100
AcDbEntity
8
0
100
AcDbLine
10
10.790421917367539
20
24.500380884913302
30
0
11
10.161619108048729
21
23.52116522133916
31
0
0
SPLINE
5
176
100
AcDbEntity
8
0
100
AcDbSpline
70
1064
71
3
72
8
73
4
74
0
42
0.000000001
43
0.0000000001
44
0.0000000001
40
9
40
9
40
9
40
9
40
10
40
10
40
10
40
10
10
10.161619108048729
20
23.52116522133916
30
0
10
12.812383945831268
20
20.996277794802694
30
0
10
16.561962479959977
20
20.63772562810535
30
0
10
16.787609179587559
20
20.619808266163918
30
0
0
LINE
5
177
100
AcDbEntity
8
0
100
AcDbLine
10
16.787609179587559
20
20.619808266163918
30
0
11
16.609413977811499
21
21.446626554461897
31
0
0
SPLINE
5
178
100
AcDbEntity
8
0
100
AcDbSpline
70
1064
71
3
72
8
73
4
74
0
42
0.000000001
43
0.0000000001
44
0.0000000001
40
0
40
0
40
0
40
0
40
1
40
1
40
1
40
1
10
38.81458980102007
20
3.0354848929273679
30
0
10
39.617054060782635
20
3.339900278004027
30
0
10
40.358761245078561
20
3.6731693352373136
30
0
10
41.04447729100017
20
4.0224388990115525
30
0
0
LINE
5
179
100
AcDbEntity
8
0
100
AcDbLine
10
41.04447729100017
20
4.0224388990115525
30
0
11
41.758518581665314
21
5.4251811189561865
31
0
0
LINE
5
180
100
AcDbEntity
8
0
100
AcDbLine
10
41.758518581665314
20
5.4251811189561865
30
0
11
38.334585183765178
21
4.146183515100649
31
0
0
LINE
5
181
100
AcDbEntity
8
0
100
AcDbLine
10
38.334585183765178
20
4.146183515100649
30
0
11
38.359197009852522
21
5.930388574560312
31
0
0
LINE
5
182
100
AcDbEntity
8
0
100
AcDbLine
10
38.359197009852522
20
5.930388574560312
30
0
11
39.848100552711635
21
7.6745327984861733
31
0
0
LINE
5
183
100
AcDbEntity
8
0
100
AcDbLine
10
39.848100552711635
20
7.6745327984861733
30
0
11
41.22172046977375
21
8.4139464590462243
31
0
0
LINE
5
184
100
AcDbEntity
8
0
100
AcDbLine
10
41.22172046977375
20
8.4139464590462243
30
0
11
39.347111456307104
21
8.0623784058688113
31
0
0
LINE
5
185
100
AcDbEntity
8
0
100
AcDbLine
10
39.347111456307104
20
8.0623784058688113
30
0
11
37.332721177353925
21
5.7389108869923424
31
0
0
LINE
5
186
100
AcDbEntity
8
0
100
AcDbLine
10
37.332721177353925
20
5.7389108869923424
30
0
11
37.234790840001146
21
3.735369174957138
31
0
0
LINE
5
187
100
AcDbEntity
8
0
100
AcDbLine
10
37.234790840001146
20
3.735369174957138
30
0
11
35.515666448507673
21
3.093184414472161
31
0
0
LINE
5
188
100
AcDbEntity
8
0
100
AcDbLine
10
35.515666448507673
20
3.093184414472161
30
0
11
34.168574963829563
21
3.1088738395279343
31
0
0
LINE
5
189
100
AcDbEntity
8
0
100
AcDbLine
10
34.168574963829563
20
3.1088738395279343
30
0
11
33.749999999999993
21
1.5277777777777517
31
0
0
SPLINE
5
190
100
AcDbEntity
8
0
100
AcDbSpline
70
1064
71
3
72
8
73
4
74
0
42
0.000000001
43
0.0000000001
44
0.0000000001
40
12
40
12
40
12
40
12
40
13
40
13
40
13
40
13
10
33.749999999999993
20
1.5277777777777517
30
0
10
35.651641519055538
20
1.8356903359913048
30
0
10
37.398570754693935
20
2.498354275093233
30
0
10
38.81458980102007
20
3.0354848929273679
30
0
0
SPLINE
5
191
100
AcDbEntity
8
0
100
AcDbSpline
70
1064
71
3
72
8
73
4
74
0
42
0.000000001
43
0.0000000001
44
0.0000000001
40
0
40
0
40
0
40
0
40
1
40
1
40
1
40
1
10
35.398730146957725
20
-12.676349137280107
30
0
10
35.988624104870766
20
-12.15701461845098
30
0
10
37.770921557547574
20
-9.0163183642964899
30
0
10
38.359004532832259
20
-8.2148692869426334
30
0
0
LINE
5
192
100
AcDbEntity
8
0
100
AcDbLine
10
38.359004532832259
20
-8.2148692869426334
30
0
11
39.418807654283107
21
-9.274759804814062
31
0
0
SPLINE
5
193
100
AcDbEntity
8
0
100
AcDbSpline
70
1064
71
3
72
8
73
4
74
0
42
0.000000001
43
0.0000000001
44
0.0000000001
40
2
40
2
40
2
40
2
40
3
40
3
40
3
40
3
10
39.418807654283107
20
-9.274759804814062
30
0
10
39.192909849290437
20
-9.6042063349380999
30
0
10
39.04262479663776
20
-9.8186620081607234
30
0
10
39.002796940879634
20
-9.8655909317076311
30
0
0
LINE
5
194
100
AcDbEntity
8
0
100
AcDbLine
10
39.002796940879634
20
-9.8655909317076311
30
0
11
38.254090079740131
21
-10.701165334729799
31
0
0
SPLINE
5
195
100
AcDbEntity
8
0
100
AcDbSpline
70
1064
71
3
72
8
73
4
74
0
42
0.000000001
43
0.0000000001
44
0.0000000001
40
4
40
4
40
4
40
4
40
5
40
5
40
5
40
5
10
38.254090079740131
20
-10.701165334729799
30
0
10
37.992118231469881
20
-10.98015209880019
30
0
10
37.720972024063805
20
-11.247841828453751
30
0
10
37.446392851710257
20
-11.510820217307382
30
0
0
LINE
5
196
100
AcDbEntity
8
0
100
AcDbLine
10
37.446392851710257
20
-11.510820217307382
30
0
11
40.03235249086574
21
-12.459333839967329
31
0
0
LINE
5
197
100
AcDbEntity
8
0
100
AcDbLine
10
40.03235249086574
20
-12.459333839967329
30
0
11
38.42829169519667
21
-19.626881389838392
31
0
0
LINE
5
198
100
AcDbEntity
8
0
100
AcDbLine
10
38.42829169519667
20
-19.626881389838392
30
0
11
35.31529397610521
21
-22.086455250978688
31
0
0
LINE
5
199
100
AcDbEntity
8
0
100
AcDbLine
10
35.31529397610521
20
-22.086455250978688
30
0
11
37.742841879264653
21
-18.927044592580685
31
0
0
LINE
5
200
100
AcDbEntity
8
0
100
AcDbLine
10
37.742841879264653
20
-18.927044592580685
30
0
11
38.56307695172783
21
-13.89219998960006
31
0
0
LINE
5
201
100
AcDbEntity
8
0
100
AcDbLine
10
38.56307695172783
20
-13.89219998960006
30
0
11
36.016625608983531
21
-12.75755823131453
31
0
0
LINE
5
202
100
AcDbEntity
8
0
100
AcDbLine
10
36.016625608983531
20
-12.75755823131453
30
0
11
35.398730146957725
21
-12.676349137280107
31
0
0
SPLINE
5
203
100
AcDbEntity
8
0
100
AcDbSpline
70
1064
71
3
72
8
73
4
74
0
42
0.000000001
43
0.0000000001
44
0.0000000001
40
0
40
0
40
0
40
0
40
1
40
1
40
1
40
1
10
28.232757594472705
20
5.0405318188143164
30
0
10
26.089357599834706
20
4.5673692363993963
30
0
10
23.911876328297922
20
3.9869236130151271
30
0
10
21.751515655189824
20
3.3749999999999996
30
0
0
LINE
5
204
100
AcDbEntity
8
0
100
AcDbLine
10
21.751515655189824
20
3.3749999999999996
30
0
11
22.077670103064388
21
5.5726503030941021
31
0
0
SPLINE
5
205
100
AcDbEntity
8
0
100
AcDbSpline
70
1064
71
3
72
8
73
4
74
0
42
0.000000001
43
0.0000000001
44
0.0000000001
40
2
40
2
40
2
40
2
40
3
40
3
40
3
40
3
10
22.077670103064388
20
5.5726503030941021
30
0
10
22.84739717734745
20
5.69457933376912
30
0
10
23.735287846165701
20
5.8347891325672405
30
0
10
24.613911542902436
20
5.9725770728708882
30
0
0
LINE
5
206
100
AcDbEntity
8
0
100
AcDbLine
10
24.613911542902436
20
5.9725770728708882
30
0
11
24.701810120542326
21
9.5024055195125605
31
0
0
LINE
5
207
100
AcDbEntity
8
0
100
AcDbLine
10
24.701810120542326
20
9.5024055195125605
30
0
11
27.179696571408389
21
11.883728777368368
31
0
0
LINE
5
208
100
AcDbEntity
8
0
100
AcDbLine
10
27.179696571408389
20
11.883728777368368
30
0
11
30.680555555555546
21
12.26213024150741
31
0
0
LINE
5
209
100
AcDbEntity
8
0
100
AcDbLine
10
30.680555555555546
20
12.26213024150741
30
0
11
27.728170731035227
21
11.424851169095108
31
0
0
LINE
5
210
100
AcDbEntity
8
0
100
AcDbLine
10
27.728170731035227
20
11.424851169095108
30
0
11
25.543533367258409
21
9.1711280272682583
31
0
0
LINE
5
211
100
AcDbEntity
8
0
100
AcDbLine
10
25.543533367258409
20
9.1711280272682583
30
0
11
25.902568950915143
21
6.1738566543327931
31
0
0
SPLINE
5
212
100
AcDbEntity
8
0
100
AcDbSpline
70
1064
71
3
72
8
73
4
74
0
42
0.000000001
43
0.0000000001
44
0.0000000001
40
9
40
9
40
9
40
9
40
10
40
10
40
10
40
10
10
25.902568950915143
20
6.1738566543327931
30
0
10
26.85775577590892
20
6.3223456594013347
30
0
10
27.717220641723014
20
6.4541152920678027
30
0
10
28.2907818611978
20
6.5382611416054406
30
0
0
LINE
5
213
100
AcDbEntity
8
0
100
AcDbLine
10
28.2907818611978
20
6.5382611416054406
30
0
11
28.232757594472705
21
5.0405318188143164
31
0
0
SPLINE
5
214
100
AcDbEntity
8
0
100
AcDbSpline
70
1064
71
3
72
8
73
4
74
0
42
0.000000001
43
0.0000000001
44
0.0000000001
40
0
40
0
40
0
40
0
40
1
40
1
40
1
40
1
10
27.007857442247307
20
24.320612427464017
30
0
10
25.011334461254989
20
20.759363112256825
30
0
10
23.08345805024037
20
17.692324702754245
30
0
10
23.550254680868193
20
15.13369713961472
30
0
0
SPLINE
5
215
100
AcDbEntity
8
0
100
AcDbSpline
70
1064
71
3
72
8
73
4
74
0
42
0.000000001
43
0.0000000001
44
0.0000000001
40
1
40
1
40
1
40
1
40
2
40
2
40
2
40
2
10
23.550254680868193
20
15.13369713961472
30
0
10
23.550253151227377
20
15.133698378649315
30
0
10
22.21417384321277
20
16.21594492291916
30
0
10
21.465016879408388
20
16.848926001730316
30
0
0
LINE
5
216
100
AcDbEntity
8
0
100
AcDbLine
10
21.465016879408388
20
16.848926001730316
30
0
11
23.930237577113882
21
23.334569765642495
31
0
0
LINE
5
217
100
AcDbEntity
8
0
100
AcDbLine
10
23.930237577113882
20
23.334569765642495
30
0
11
22.102195679300969
21
24.934035163474736
31
0
0
LINE
5
218
100
AcDbEntity
8
0
100
AcDbLine
10
22.102195679300969
20
24.934035163474736
30
0
11
21.731263727091775
21
27.678886344418821
31
0
0
LINE
5
219
100
AcDbEntity
8
0
100
AcDbLine
10
21.731263727091775
20
27.678886344418821
30
0
11
22.429573369756348
21
30.149865546014553
31
0
0
LINE
5
220
100
AcDbEntity
8
0
100
AcDbLine
10
22.429573369756348
20
30.149865546014553
30
0
11
22.461150769100943
21
29.189706896553357
31
0
0
LINE
5
221
100
AcDbEntity
8
0
100
AcDbLine
10
22.461150769100943
20
29.189706896553357
30
0
11
22.412457751103169
21
27.775156675528883
31
0
0
LINE
5
222
100
AcDbEntity
8
0
100
AcDbLine
10
22.412457751103169
20
27.775156675528883
30
0
11
23.156801058747124
21
25.44004250516323
31
0
0
LINE
5
223
100
AcDbEntity
8
0
100
AcDbLine
10
23.156801058747124
20
25.44004250516323
30
0
11
24.406651673255144
21
24.479558882518873
31
0
0
SPLINE
5
224
100
AcDbEntity
8
0
100
AcDbSpline
70
1064
71
3
72
8
73
4
74
0
42
0.000000001
43
0.0000000001
44
0.0000000001
40
10
40
10
40
10
40
10
40
11
40
11
40
11
40
11
10
24.406651673255144
20
24.479558882518873
30
0
10
24.595425774655947
20
24.712209984279937
30
0
10
25.120606965133618
20
25.359301616016531
30
0
10
25.783530782073374
20
26.174540262945619
30
0
0
LINE
5
225
100
AcDbEntity
8
0
100
AcDbLine
10
25.783530782073374
20
26.174540262945619
30
0
11
27.007857442247307
21
24.320612427464017
31
0
0
SPLINE
5
226
100
AcDbEntity
8
0
100
AcDbSpline
70
1064
71
3
72
14
73
10
74
0
42
0.000000001
43
0.0000000001
44
0.0000000001
40
0
40
0
40
0
40
0
40
1
40
1
40
1
40
2
40
2
40
2
40
3
40
3
40
3
40
3
10
-21.981811272243643
20
-87.475619538811571
30
0
10
-21.775382787392715
20
-87.394983604343125
30
0
10
-21.567071981206354
20
-87.320802023330273
30
0
10
-21.354479884975341
20
-87.261672975854026
30
0
10
-19.433054218314204
20
-86.727259554657849
30
0
10
-17.643273903233382
20
-87.064454703944804
30
0
10
-14.331401085408867
20
-85.645368263406795
30
0
10
-13.848334330751127
20
-85.438381606878181
30
0
10
-13.438575341853429
20
-85.239302112187758
30
0
10
-13.076394296194749
20
-85.052199089110218
30
0
0
LINE
5
227
100
AcDbEntity
8
0
100
AcDbLine
10
-13.076394296194749
20
-85.052199089110218
30
0
11
-16.001584607813275
21
-83.097222770520048
31
0
0
LINE
5
228
100
AcDbEntity
8
0
100
AcDbLine
10
-16.001584607813275
20
-83.097222770520048
30
0
11
-18.87154417057625
21
-84.892433692031361
31
0
0
LINE
5
229
100
AcDbEntity
8
0
100
AcDbLine
10
-18.87154417057625
20
-84.892433692031361
30
0
11
-19.571679582080641
21
-80.603824305305977
31
0
0
LINE
5
230
100
AcDbEntity
8
0
100
AcDbLine
10
-19.571679582080641
20
-80.603824305305977
30
0
11
-19.369712548164589
21
-77.672654644664277
31
0
0
LINE
5
231
100
AcDbEntity
8
0
100
AcDbLine
10
-19.369712548164589
20
-77.672654644664277
30
0
11
-17.102785879205207
21
-75.12685786671247
31
0
0
LINE
5
232
100
AcDbEntity
8
0
100
AcDbLine
10
-17.102785879205207
20
-75.12685786671247
30
0
11
-20.400998031340396
21
-77.415923513975073
31
0
0
LINE
5
233
100
AcDbEntity
8
0
100
AcDbLine
10
-20.400998031340396
20
-77.415923513975073
30
0
11
-20.903642287298236
21
-80.910388081687273
31
0
0
LINE
5
234
100
AcDbEntity
8
0
100
AcDbLine
10
-20.903642287298236
20
-80.910388081687273
30
0
11
-21.058442738800835
21
-86.260376180609583
31
0
0
LINE
5
235
100
AcDbEntity
8
0
100
AcDbLine
10
-21.058442738800835
20
-86.260376180609583
30
0
11
-22.048074792823314
21
-86.879412317965802
31
0
0
LINE
5
236
100
AcDbEntity
8
0
100
AcDbLine
10
-22.048074792823314
20
-86.879412317965802
30
0
11
-21.981811272243643
21
-87.475619538811571
31
0
0
SPLINE
5
237
100
AcDbEntity
8
0
100
AcDbSpline
70
1064
71
3
72
8
73
4
74
0
42
0.000000001
43
0.0000000001
44
0.0000000001
40
0
40
0
40
0
40
0
40
1
40
1
40
1
40
1
10
32.042204310725737
20
37.770533423334044
30
0
10
31.400207174217982
20
37.681635023477845
30
0
10
30.129419610921296
20
36.26837120432689
30
0
10
30.129418294719716
20
36.268369740557389
30
0
0
LINE
5
238
100
AcDbEntity
8
0
100
AcDbLine
10
30.129418294719716
20
36.268369740557389
30
0
11
40.327452317465223
21
32.227392737118414
31
0
0
LINE
5
239
100
AcDbEntity
8
0
100
AcDbLine
10
40.327452317465223
20
32.227392737118414
30
0
11
40.16668280386812
21
34.751469635593693
31
0
0
LINE
5
240
100
AcDbEntity
8
0
100
AcDbLine
10
40.16668280386812
20
34.751469635593693
30
0
11
39.198212703110634
21
34.947737661651111
31
0
0
LINE
5
241
100
AcDbEntity
8
0
100
AcDbLine
10
39.198212703110634
20
34.947737661651111
30
0
11
40.099590935424345
21
37.956185559986814
31
0
0
LINE
5
242
100
AcDbEntity
8
0
100
AcDbLine
10
40.099590935424345
20
37.956185559986814
30
0
11
38.151162523822975
21
39.411768121956079
31
0
0
LINE
5
243
100
AcDbEntity
8
0
100
AcDbLine
10
38.151162523822975
20
39.411768121956079
30
0
11
35.160376841851779
21
40.133617790031927
31
0
0
LINE
5
244
100
AcDbEntity
8
0
100
AcDbLine
10
35.160376841851779
20
40.133617790031927
30
0
11
37.452482639178811
21
38.955149233284466
31
0
0
LINE
5
245
100
AcDbEntity
8
0
100
AcDbLine
10
37.452482639178811
20
38.955149233284466
30
0
11
38.392651156122469
21
37.837762658692405
31
0
0
LINE
5
246
100
AcDbEntity
8
0
100
AcDbLine
10
38.392651156122469
20
37.837762658692405
30
0
11
37.097754000120652
21
35.373395483234567
31
0
0
LINE
5
247
100
AcDbEntity
8
0
100
AcDbLine
10
37.097754000120652
20
35.373395483234567
30
0
11
36.847541441742464
21
35.424130075229527
31
0
0
LINE
5
248
100
AcDbEntity
8
0
100
AcDbLine
10
36.847541441742464
20
35.424130075229527
30
0
11
36.790989326835472
21
35.333809273549399
31
0
0
LINE
5
249
100
AcDbEntity
8
0
100
AcDbLine
10
36.790989326835472
20
35.333809273549399
30
0
11
34.551144842872333
21
36.483126793320928
31
0
0
LINE
5
250
100
AcDbEntity
8
0
100
AcDbLine
10
34.551144842872333
20
36.483126793320928
30
0
11
36.779276965976244
21
38.620112614037609
31
0
0
LINE
5
251
100
AcDbEntity
8
0
100
AcDbLine
10
36.779276965976244
20
38.620112614037609
30
0
11
35.871529918194817
21
39.286371029519813
31
0
0
LINE
5
252
100
AcDbEntity
8
0
100
AcDbLine
10
35.871529918194817
20
39.286371029519813
30
0
11
33.018003601107864
21
40.360337073617828
31
0
0
LINE
5
253
100
AcDbEntity
8
0
100
AcDbLine
10
33.018003601107864
20
40.360337073617828
30
0
11
31.285607212572987
21
40.120304969477203
31
0
0
LINE
5
254
100
AcDbEntity
8
0
100
AcDbLine
10
31.285607212572987
20
40.120304969477203
30
0
11
32.41542244323422
21
39.756617168449928
31
0
0
LINE
5
255
100
AcDbEntity
8
0
100
AcDbLine
10
32.41542244323422
20
39.756617168449928
30
0
11
34.928166828703901
21
38.722345903094094
31
0
0
LINE
5
256
100
AcDbEntity
8
0
100
AcDbLine
10
34.928166828703901
20
38.722345903094094
30
0
11
33.120338754359786
21
37.217322112914715
31
0
0
LINE
5
257
100
AcDbEntity
8
0
100
AcDbLine
10
33.120338754359786
20
37.217322112914715
30
0
11
32.042204310725737
21
37.770533423334044
31
0
0
SPLINE
5
258
100
AcDbEntity
8
0
100
AcDbSpline
70
1064
71
3
72
8
73
4
74
0
42
0.000000001
43
0.0000000001
44
0.0000000001
40
0
40
0
40
0
40
0
40
1
40
1
40
1
40
1
10
1.574142660061574
20
34.265644670587207
30
0
10
1.5741407334617095
20
34.265644266581376
30
0
10
-0.56382530974340417
20
33.817315184000989
30
0
10
-4.5414453863522786
20
28.68880180115141
30
0
0
SPLINE
5
259
100
AcDbEntity
8
0
100
AcDbSpline
70
1064
71
3
72
11
73
7
74
0
42
0.000000001
43
0.0000000001
44
0.0000000001
40
1
40
1
40
1
40
1
40
2
40
2
40
2
40
3
40
3
40
3
40
3
10
-4.5414453863522786
20
28.68880180115141
30
0
10
-9.1371036532107635
20
22.763423936168238
30
0
10
-10.162370751524019
20
28.521714102355361
30
0
10
-7.3017016980122165
20
30.326696489686679
30
0
10
-6.3232697644805302
20
30.944052910227246
30
0
10
-3.8115914337580912
20
31.246304277268788
30
0
10
-4.4051732787412066
20
33.806353098205264
30
0
0
SPLINE
5
260
100
AcDbEntity
8
0
100
AcDbSpline
70
1064
71
3
72
23
73
19
74
0
42
0.000000001
43
0.0000000001
44
0.0000000001
40
3
40
3
40
3
40
3
40
4
40
4
40
4
40
5
40
5
40
5
40
6
40
6
40
6
40
7
40
7
40
7
40
8
40
8
40
8
40
9
40
9
40
9
40
9
10
-4.4051732787412066
20
33.806353098205264
30
0
10
-4.298954400982816
20
33.826591708485687
30
0
10
-4.5718194009959019
20
32.002087594384335
30
0
10
-7.062308808553678
20
30.976687268979447
30
0
10
-9.8428379517153903
20
29.831869917199704
30
0
10
-10.016160414308446
20
26.274169675159868
30
0
10
-8.4027070819302274
20
25.497352415784079
30
0
10
-7.5363995458694246
20
25.080257832114029
30
0
10
-5.2250239132525964
20
26.514415118319931
30
0
10
-3.7637204980447265
20
28.483871147330042
30
0
10
-3.1740494078014261
20
29.27859494435269
30
0
10
-2.3747955219821
20
29.847538824741825
30
0
10
-0.9288230431405079
20
31.569373528167354
30
0
10
-0.38593606214390591
20
32.215831875283463
30
0
10
0.16443084301808333
20
32.850204697007797
30
0
10
0.72812149754657973
20
32.680361249408513
30
0
10
0.98826063726021263
20
32.601979732898485
30
0
10
1.1857368420279122
20
32.892223781157732
30
0
10
1.283215594576909
20
32.670905156746628
30
0
0
LINE
5
261
100
AcDbEntity
8
0
100
AcDbLine
10
1.283215594576909
20
32.670905156746628
30
0
11
2.1585682483426152
21
32.879017445816132
31
0
0
ELLIPSE
5
262
100
AcDbEntity
8
0
100
AcDbEllipse
10
27.339109733753677
20
44.2215197667186
30
0
11
25.546038108687672
21
10.513838135358483
31
0.0
40
0.81027800265112737
41
3.1011326684367804
42
3.1683693010924583
0
SPLINE
5
263
100
AcDbEntity
8
0
100
AcDbSpline
70
1064
71
3
72
11
73
7
74
0
42
0.000000001
43
0.0000000001
44
0.0000000001
40
0
40
0
40
0
40
0
40
1
40
1
40
1
40
2
40
2
40
2
40
2
10
19.567018366908624
20
6.9810610651373066
30
0
10
19.567018305693065
20
6.981063032689188
30
0
10
19.543674054071655
20
7.7313792510955324
30
0
10
19.570767430217053
20
8.1441997229429308
30
0
10
19.634911345668172
20
9.1215574837685285
30
0
10
19.970742800176442
20
9.7820047428146673
30
0
10
20.094488935973956
20
10.092523814737909
30
0
0
SPLINE
5
264
100
AcDbEntity
8
0
100
AcDbSpline
70
1064
71
3
72
8
73
4
74
0
42
0.000000001
43
0.0000000001
44
0.0000000001
40
2
40
2
40
2
40
2
40
3
40
3
40
3
40
3
10
20.094488935973956
20
10.092523814737909
30
0
10
20.657068209524368
20
11.504306127792349
30
0
10
20.733535830908718
20
13.55696309863357
30
0
10
20.489479449607938
20
14.860177064689847
30
0
0
SPLINE
5
265
100
AcDbEntity
8
0
100
AcDbSpline
70
1064
71
3
72
17
73
13
74
0
42
0.000000001
43
0.0000000001
44
0.0000000001
40
3
40
3
40
3
40
3
40
4
40
4
40
4
40
5
40
5
40
5
40
6
40
6
40
6
40
7
40
7
40
7
40
7
10
20.489479449607938
20
14.860177064689847
30
0
10
20.460565233566459
20
15.014610165280869
30
0
10
19.641608970793705
20
17.542013938175881
30
0
10
17.364271290596331
20
17.856529105068777
30
0
10
15.216592186108894
20
18.153137578135325
30
0
10
13.257038069239133
20
17.162613385066422
30
0
10
12.387613600122247
20
15.893228112716391
30
0
10
12.127223717938154
20
15.51305123335022
30
0
10
11.850087717952862
20
15.123945036248692
30
0
10
11.838817424563198
20
14.716717130764971
30
0
10
11.833048222415906
20
14.508259371456901
30
0
10
11.844288641443809
20
14.324903137400518
30
0
10
11.875223967267679
20
14.175439649510357
30
0
0
SPLINE
5
266
100
AcDbEntity
8
0
100
AcDbSpline
70
1064
71
3
72
20
73
16
74
0
42
0.000000001
43
0.0000000001
44
0.0000000001
40
7
40
7
40
7
40
7
40
8
40
8
40
8
40
9
40
9
40
9
40
10
40
10
40
10
40
11
40
11
40
11
40
12
40
12
40
12
40
12
10
11.875223967267679
20
14.175439649510357
30
0
10
11.93311502373146
20
14.294703233870941
30
0
10
13.280497796749495
20
17.254630725949379
30
0
10
16.070065883195689
20
17.403866017611112
30
0
10
16.457578547772432
20
17.424597028193613
30
0
10
17.79432019437554
20
17.226699101577982
30
0
10
18.924855131635237
20
16.441330084090289
30
0
10
20.001401369999844
20
15.69346636609334
30
0
10
20.305343458271576
20
13.860414691091949
30
0
10
20.052498713893016
20
12.127272874109115
30
0
10
19.885708863451537
20
10.984000289349954
30
0
10
19.205415443053734
20
9.9802602313100692
30
0
10
18.967022448828448
20
9.1770274123889237
30
0
10
18.752656756721638
20
8.4547513249120634
30
0
10
18.799070740362755
20
7.5296277248269021
30
0
10
18.799070838999668
20
7.5296257587957456
30
0
0
LINE
5
267
100
AcDbEntity
8
0
100
AcDbLine
10
18.799070838999668
20
7.5296257587957456
30
0
11
18.480739369699368
21
7.5109127092759476
31
0
0
LINE
5
268
100
AcDbEntity
8
0
100
AcDbLine
10
18.480739369699368
20
7.5109127092759476
30
0
11
18.436794649324611
21
6.8393989795489567
31
0
0
LINE
5
269
100
AcDbEntity
8
0
100
AcDbLine
10
18.436794649324611
20
6.8393989795489567
30
0
11
19.567018366908624
21
6.9810610651373066
31
0
0
SPLINE
5
270
100
AcDbEntity
8
0
100
AcDbSpline
70
1064
71
3
72
11
73
7
74
0
42
0.000000001
43
0.0000000001
44
0.0000000001
40
0
40
0
40
0
40
0
40
1
40
1
40
1
40
2
40
2
40
2
40
2
10
32.683354669058772
20
4.3038657946619363
30
0
10
33.544854895709378
20
7.7270492602525929
30
0
10
33.779847306160875
20
9.0936626558517215
30
0
10
34.612283383584682
20
10.410638476651007
30
0
10
35.6485940028101
20
12.050158994047543
30
0
10
36.843733644421633
20
13.011284557410526
30
0
10
37.169113685714869
20
13.413086657528201
30
0
0
SPLINE
5
271
100
AcDbEntity
8
0
100
AcDbSpline
70
1064
71
3
72
8
73
4
74
0
42
0.000000001
43
0.0000000001
44
0.0000000001
40
2
40
2
40
2
40
2
40
3
40
3
40
3
40
3
10
37.169113685714869
20
13.413086657528201
30
0
10
38.362263071956498
20
14.886509397338708
30
0
10
40.606259058907945
20
16.590638048587088
30
0
10
41.462646761881082
20
24.856017925751075
30
0
0
SPLINE
5
272
100
AcDbEntity
8
0
100
AcDbSpline
70
1064
71
3
72
8
73
4
74
0
42
0.000000001
43
0.0000000001
44
0.0000000001
40
3
40
3
40
3
40
3
40
4
40
4
40
4
40
4
10
41.462646761881082
20
24.856017925751075
30
0
10
41.186977553529218
20
25.459852328373668
30
0
10
40.783312890327423
20
26.178456338605478
30
0
10
40.715270708697403
20
26.170383640124488
30
0
0
SPLINE
5
273
100
AcDbEntity
8
0
100
AcDbSpline
70
1064
71
3
72
8
73
4
74
0
42
0.000000001
43
0.0000000001
44
0.0000000001
40
4
40
4
40
4
40
4
40
5
40
5
40
5
40
5
10
40.715270708697403
20
26.170383640124488
30
0
10
40.414071649468696
20
26.134636867457516
30
0
10
40.734006809133255
20
25.430812100985765
30
0
10
40.733884706320922
20
25.118032903415379
30
0
0
SPLINE
5
274
100
AcDbEntity
8
0
100
AcDbSpline
70
1064
71
3
72
14
73
10
74
0
42
0.000000001
43
0.0000000001
44
0.0000000001
40
5
40
5
40
5
40
5
40
6
40
6
40
6
40
7
40
7
40
7
40
8
40
8
40
8
40
8
10
40.733884706320922
20
25.118032903415379
30
0
10
40.732980780999355
20
22.642332128461501
30
0
10
39.577476221922119
20
17.984086496085521
30
0
10
37.245772770612454
20
14.984183715797057
30
0
10
36.330725024111885
20
13.806909114971301
30
0
10
35.465806589391249
20
13.088748493256579
30
0
10
34.384433368774857
20
11.695841497081366
30
0
10
32.874033487433003
20
9.7503091668614008
30
0
10
32.85026765294748
20
8.8167570205143608
30
0
10
31.671713439971217
20
4.9674758141291271
30
0
0
LINE
5
275
100
AcDbEntity
8
0
100
AcDbLine
10
31.671713439971217
20
4.9674758141291271
30
0
11
32.683354669058772
21
4.3038657946619363
31
0
0
SPLINE
5
276
100
AcDbEntity
8
0
100
AcDbSpline
70
1064
71
3
72
17
73
13
74
0
42
0.000000001
43
0.0000000001
44
0.0000000001
40
0
40
0
40
0
40
0
40
1
40
1
40
1
40
2
40
2
40
2
40
3
40
3
40
3
40
4
40
4
40
4
40
4
10
26.356407782012258
20
14.964574757651869
30
0
10
28.310700252884672
20
18.592256919770957
30
0
10
29.383877703928807
20
20.63123580270927
30
0
10
30.014972329988769
20
21.831787037559817
30
0
10
30.997373458076311
20
23.700639724212266
30
0
10
31.355083752838961
20
24.726727366018665
30
0
10
31.191916173004017
20
26.169911627148867
30
0
10
31.012724708301263
20
27.754823910884909
30
0
10
30.276088966361527
20
28.083502573760512
30
0
10
29.246868931792559
20
29.874734652475965
30
0
10
27.67063742958922
20
32.617973547364834
30
0
10
28.046653338378189
20
33.943499658167745
30
0
10
28.439922862935372
20
34.486101293346394
30
0
0
SPLINE
5
277
100
AcDbEntity
8
0
100
AcDbSpline
70
1064
71
3
72
11
73
7
74
0
42
0.000000001
43
0.0000000001
44
0.0000000001
40
4
40
4
40
4
40
4
40
5
40
5
40
5
40
6
40
6
40
6
40
6
10
28.439922862935372
20
34.486101293346394
30
0
10
28.847924848199956
20
34.413150225658605
30
0
10
28.639187800277508
20
32.870302751598281
30
0
10
29.254054914743673
20
31.738510512727618
30
0
10
30.208844375262377
20
29.981019705776944
30
0
10
31.947957332795138
20
28.319455464523674
30
0
10
32.088882018000476
20
26.776848964897155
30
0
0
SPLINE
5
278
100
AcDbEntity
8
0
100
AcDbSpline
70
1064
71
3
72
8
73
4
74
0
42
0.000000001
43
0.0000000001
44
0.0000000001
40
6
40
6
40
6
40
6
40
7
40
7
40
7
40
7
10
32.088882018000476
20
26.776848964897155
30
0
10
32.184121093049505
20
25.734487677164839
30
0
10
32.180734290698894
20
22.777586464629621
30
0
10
27.541077549221729
20
14.458333333333321
30
0
0
LINE
5
279
100
AcDbEntity
8
0
100
AcDbLine
10
27.541077549221729
20
14.458333333333321
30
0
11
26.356407782012258
21
14.964574757651869
31
0
0
LWPOLYLINE
5
280
100
AcDbEntity
8
0
100
AcDbPolyline
90
6
70
1
43
0.0
10
-25.738874498025123
20
-77.254249543040871
10
-27.28796652482859
20
-77.151693457761624
10
-29.306863959681284
20
-72.705113100398549
10
-25.038588527563792
20
-66.605911968008655
10
-22.262613561782953
20
-67.31418198579594
10
-22.426902671812964
20
-70.396561329558224
0
SPLINE
5
281
100
AcDbEntity
8
0
100
AcDbSpline
70
1064
71
3
72
8
73
4
74
0
42
0.000000001
43
0.0000000001
44
0.0000000001
40
0
40
0
40
0
40
0
40
1
40
1
40
1
40
1
10
-24.674040591407266
20
-17.614644499157372
30
0
10
-25.103501688772177
20
-18.249097480055731
30
0
10
-25.498981459565606
20
-18.880266007813262
30
0
10
-25.8701450712061
20
-19.5062117457183
30
0
0
LINE
5
282
100
AcDbEntity
8
0
100
AcDbLine
10
-25.8701450712061
20
-19.5062117457183
30
0
11
-23.43602030259169
21
-19.73410387429016
31
0
0
LINE
5
283
100
AcDbEntity
8
0
100
AcDbLine
10
-23.43602030259169
20
-19.73410387429016
30
0
11
-23.135830681411207
21
-22.630780584107924
31
0
0
LINE
5
284
100
AcDbEntity
8
0
100
AcDbLine
10
-23.135830681411207
20
-22.630780584107924
30
0
11
-19.383787928116124
21
-17.23103220571759
31
0
0
LINE
5
285
100
AcDbEntity
8
0
100
AcDbLine
10
-19.383787928116124
20
-17.23103220571759
30
0
11
-12.572444366549988
21
-12.887662123579698
31
0
0
LINE
5
286
100
AcDbEntity
8
0
100
AcDbLine
10
-12.572444366549988
20
-12.887662123579698
30
0
11
-6.2287993080792328
21
-14.603531621278361
31
0
0
LINE
5
287
100
AcDbEntity
8
0
100
AcDbLine
10
-6.2287993080792328
20
-14.603531621278361
30
0
11
-3.1016034273198883
21
-19.133367903896161
31
0
0
LINE
5
288
100
AcDbEntity
8
0
100
AcDbLine
10
-3.1016034273198883
20
-19.133367903896161
30
0
11
-2.7992131924523722
21
-24.489932089555769
31
0
0
SPLINE
5
289
100
AcDbEntity
8
0
100
AcDbSpline
70
1064
71
3
72
8
73
4
74
0
42
0.000000001
43
0.0000000001
44
0.0000000001
40
8
40
8
40
8
40
8
40
9
40
9
40
9
40
9
10
-2.7992131924523722
20
-24.489932089555769
30
0
10
-3.5184531229977232
20
-25.452665681547327
30
0
10
-4.4355582156999578
20
-26.996539847985527
30
0
10
-4.7656990478233929
20
-29.050890601199978
30
0
0
SPLINE
5
290
100
AcDbEntity
8
0
100
AcDbSpline
70
1064
71
3
72
8
73
4
74
0
42
0.000000001
43
0.0000000001
44
0.0000000001
40
9
40
9
40
9
40
9
40
10
40
10
40
10
40
10
10
-4.7656990478233929
20
-29.050890601199978
30
0
10
-4.8675007015253087
20
-29.683714089591216
30
0
10
-5.4170652721408397
20
-33.108848126467606
30
0
10
-4.0531448311175291
20
-34.128329536587948
30
0
0
ELLIPSE
5
291
100
AcDbEntity
8
0
100
AcDbEllipse
10
-3.1501338157781036
20
-33.252529195550771
30
0
11
-0.13791519844605971
21
-1.2506943802434538
31
0.0
40
0.99937655898057332
41
5.5920121296946421
42
5.9588891969917697
0
SPLINE
5
292
100
AcDbEntity
8
0
100
AcDbSpline
70
1064
71
3
72
8
73
4
74
0
42
0.000000001
43
0.0000000001
44
0.0000000001
40
11
40
11
40
11
40
11
40
12
40
12
40
12
40
12
10
-3.6791351030382073
20
-34.39411331265925
30
0
10
-2.297937976167582
20
-35.014719114837938
30
0
10
0.35949846313666156
20
-32.809910318142506
30
0
10
1.371458162110204
20
-30.324430536439142
30
0
0
SPLINE
5
293
100
AcDbEntity
8
0
100
AcDbSpline
70
1064
71
3
72
8
73
4
74
0
42
0.000000001
43
0.0000000001
44
0.0000000001
40
12
40
12
40
12
40
12
40
13
40
13
40
13
40
13
10
1.371458162110204
20
-30.324430536439142
30
0
10
2.0580551134033209
20
-28.637388644824718
30
0
10
1.6255929120811239
20
-27.706885467312933
30
0
10
1.8236013485891867
20
-25.176125814453748
30
0
0
SPLINE
5
294
100
AcDbEntity
8
0
100
AcDbSpline
70
1064
71
3
72
8
73
4
74
0
42
0.000000001
43
0.0000000001
44
0.0000000001
40
13
40
13
40
13
40
13
40
14
40
14
40
14
40
14
10
1.8236013485891867
20
-25.176125814453748
30
0
10
2.1044315885179561
20
-21.584148986867863
30
0
10
2.6862829380413586
20
-20.467559300162819
30
0
10
2.3047987711994562
20
-18.509992695537019
30
0
0
SPLINE
5
295
100
AcDbEntity
8
0
100
AcDbSpline
70
1064
71
3
72
8
73
4
74
0
42
0.000000001
43
0.0000000001
44
0.0000000001
40
14
40
14
40
14
40
14
40
15
40
15
40
15
40
15
10
2.3047987711994562
20
-18.509992695537019
30
0
10
1.6525252090070301
20
-15.162029683744349
30
0
10
-0.66210634728268913
20
-12.138430046987301
30
0
10
-4.2014182968904743
20
-9.4596284914687949
30
0
0
SPLINE
5
296
100
AcDbEntity
8
0
100
AcDbSpline
70
1064
71
3
72
8
73
4
74
0
42
0.000000001
43
0.0000000001
44
0.0000000001
40
15
40
15
40
15
40
15
40
16
40
16
40
16
40
16
10
-4.2014182968904743
20
-9.4596284914687949
30
0
10
-9.6332652901978939
20
-5.3488290700077714
30
0
10
-19.421004603876977
20
-9.8560985785689148
30
0
10
-24.674040591407266
20
-17.614644499157372
30
0
0
LWPOLYLINE
5
297
100
AcDbEntity
8
0
100
AcDbPolyline
90
6
70
1
43
0.0
10
22.684481484154762
20
-23.777750390671894
10
23.436530006867319
20
-27.384089388285037
10
16.714385637999051
20
-31.093573285751919
10
15.232838194186037
20
-29.229278745062118
10
16.457611587793938
20
-26.863779194096999
10
21.501693902383924
20
-23.437105633507745
0
LWPOLYLINE
5
298
100
AcDbEntity
8
0
100
AcDbPolyline
90
6
70
1
43
0.0
10
-7.8775800257022466
20
-48.226559318143721
10
-3.7638888888888884
20
-52.242261567655717
10
-6.2884695802430439
20
-54.7361111111111
10
-8.0466036589116374
20
-54.161107376349413
10
-11.329257729774199
20
-49.900108276991702
10
-11.382745802532812
20
-48.845303887898325
0
LWPOLYLINE
5
299
100
AcDbEntity
8
0
100
AcDbPolyline
90
6
70
1
43
0.0
10
31.123812930620339
20
-51.824189985028944
10
26.730876782572235
20
-56.217256069310295
10
25.676548198773769
20
-56.261161522523857
10
25.588594362490078
20
-53.229905124392516
10
28.707674660671895
20
-48.221863841784817
10
31.343483126544715
20
-49.715532817432042
0
LWPOLYLINE
5
300
100
AcDbEntity
8
0
100
AcDbPolyline
90
4
70
1
43
0.0
10
-28.951390381875196
20
25.33846768426335
10
-29.514790774544444
20
22.727491318918833
10
-23.598918000796825
20
20.220287366667556
10
-20.96755805415604
20
22.549827566609391
0
LWPOLYLINE
5
301
100
AcDbEntity
8
0
100
AcDbPolyline
90
4
70
1
43
0.0
10
40.696877036780819
20
-6.3729682341190443
10
37.621845121669153
20
-8.4375770186458716
10
31.339805059338609
20
-7.0318553824706411
10
31.954916690709872
20
-4.7035345157609942
0
LWPOLYLINE
5
302
100
AcDbEntity
8
0
100
AcDbPolyline
90
4
70
1
43
0.0
10
-29.29508190840151
20
-16.606852998931867
10
-25.896894265200721
20
-7.7916666666666918
10
-23.749999999999989
20
-9.9600775521367542
10
-27.786079696844727
20
-18.658565074122912
0
LWPOLYLINE
5
303
100
AcDbEntity
8
0
100
AcDbPolyline
90
6
70
1
43
0.0
10
-26.231548543480429
20
-55.115940439125026
10
-22.803937670977675
20
-54.83155690611926
10
-20.698416274282209
20
-55.809101083295822
10
-19.47395123691043
20
-61.944792272010844
10
-21.610405454505926
20
-65.308555626738439
10
-25.889672582115626
20
-64.673324998795721
0
SPLINE
5
304
100
AcDbEntity
8
0
100
AcDbSpline
70
1064
71
3
72
8
73
4
74
0
42
0.000000001
43
0.0000000001
44
0.0000000001
40
0
40
0
40
0
40
0
40
1
40
1
40
1
40
1
10
-28.871892139824769
20
28.166017594422065
30
0
10
-28.591763725641457
20
27.746553108507388
30
0
10
-28.351199741551678
20
27.386028844320073
30
0
10
-27.906657677364407
20
27.251090633719709
30
0
0
ELLIPSE
5
305
100
AcDbEntity
8
0
100
AcDbEllipse
10
-27.589902586084477
20
28.36990485345849
30
0
11
1.0253593162067014
21
0.58391586974294862
31
0.0
40
0.97105113501608742
41
3.9335082290235976
42
4.0496394175972767
0
SPLINE
5
306
100
AcDbEntity
8
0
100
AcDbSpline
70
1064
71
3
72
8
73
4
74
0
42
0.000000001
43
0.0000000001
44
0.0000000001
40
2
40
2
40
2
40
2
40
3
40
3
40
3
40
3
10
-27.773814855091707
20
27.225734126950861
30
0
10
-27.573156874432946
20
27.238937137398807
30
0
10
-27.371606189788459
20
27.245220511316067
30
0
10
-27.170012228219313
20
27.25049816645598
30
0
0
SPLINE
5
307
100
AcDbEntity
8
0
100
AcDbSpline
70
1064
71
3
72
8
73
4
74
0
42
0.000000001
43
0.0000000001
44
0.0000000001
40
3
40
3
40
3
40
3
40
4
40
4
40
4
40
4
10
-27.170012228219313
20
27.25049816645598
30
0
10
-26.053309202536585
20
27.533278771108368
30
0
10
-24.837063782283618
20
28.958357182680349
30
0
10
-24.236460293232586
20
30.048158529153877
30
0
0
SPLINE
5
308
100
AcDbEntity
8
0
100
AcDbSpline
70
1064
71
3
72
8
73
4
74
0
42
0.000000001
43
0.0000000001
44
0.0000000001
40
4
40
4
40
4
40
4
40
5
40
5
40
5
40
5
10
-24.236460293232586
20
30.048158529153877
30
0
10
-23.22558144895126
20
31.882790728038845
30
0
10
-23.410321364257388
20
33.760541263372488
30
0
10
-23.567480188495303
20
34.652266885862005
30
0
0
SPLINE
5
309
100
AcDbEntity
8
0
100
AcDbSpline
70
1064
71
3
72
8
73
4
74
0
42
0.000000001
43
0.0000000001
44
0.0000000001
40
5
40
5
40
5
40
5
40
6
40
6
40
6
40
6
10
-23.567480188495303
20
34.652266885862005
30
0
10
-25.219015938978369
20
35.42338857386811
30
0
10
-26.94032680221726
20
35.985109542264858
30
0
10
-28.705579679929357
20
36.416466605658513
30
0
0
SPLINE
5
310
100
AcDbEntity
8
0
100
AcDbSpline
70
1064
71
3
72
8
73
4
74
0
42
0.000000001
43
0.0000000001
44
0.0000000001
40
6
40
6
40
6
40
6
40
7
40
7
40
7
40
7
10
-28.705579679929357
20
36.416466605658513
30
0
10
-29.326522283596578
20
34.809183015551319
30
0
10
-29.529750212446228
20
33.426929840287777
30
0
10
-29.601472459606128
20
32.497676760329696
30
0
0
SPLINE
5
311
100
AcDbEntity
8
0
100
AcDbSpline
70
1064
71
3
72
8
73
4
74
0
42
0.000000001
43
0.0000000001
44
0.0000000001
40
7
40
7
40
7
40
7
40
8
40
8
40
8
40
8
10
-29.601472459606128
20
32.497676760329696
30
0
10
-29.704443351825777
20
31.147871349144168
30
0
10
-29.805410931969767
20
29.564361701303341
30
0
10
-28.871892139824769
20
28.166017594422065
30
0
0
LINE
5
312
100
AcDbEntity
8
0
100
AcDbLine
10
37.820224161541176
20
-40.323494371968863
30
0
11
37.251548491525874
21
-43.592780955782132
31
0
0
LINE
5
313
100
AcDbEntity
8
0
100
AcDbLine
10
37.251548491525874
20
-43.592780955782132
30
0
11
32.150630413597533
21
-43.653051877572963
31
0
0
LINE
5
314
100
AcDbEntity
8
0
100
AcDbLine
10
32.150630413597533
20
-43.653051877572963
30
0
11
28.620024198495958
21
-41.806651506346547
31
0
0
LINE
5
315
100
AcDbEntity
8
0
100
AcDbLine
10
28.620024198495958
20
-41.806651506346547
30
0
11
31.579559044281687
21
-44.448852834895021
31
0
0
LINE
5
316
100
AcDbEntity
8
0
100
AcDbLine
10
31.579559044281687
20
-44.448852834895021
30
0
11
38.916328056429357
21
-44.792930477340072
31
0
0
LINE
5
317
100
AcDbEntity
8
0
100
AcDbLine
10
38.916328056429357
20
-44.792930477340072
30
0
11
39.441229021565896
21
-41.879032485075825
31
0
0
SPLINE
5
318
100
AcDbEntity
8
0
100
AcDbSpline
70
1064
71
3
72
8
73
4
74
0
42
0.000000001
43
0.0000000001
44
0.0000000001
40
6
40
6
40
6
40
6
40
7
40
7
40
7
40
7
10
39.441229021565896
20
-41.879032485075825
30
0
10
39.006939088682927
20
-40.992626992311813
30
0
10
38.327029069893797
20
-40.392685416171936
30
0
10
37.820224161541176
20
-40.323494371968863
30
0
0
SPLINE
5
319
100
AcDbEntity
8
0
100
AcDbSpline
70
1064
71
3
72
8
73
4
74
0
42
0.000000001
43
0.0000000001
44
0.0000000001
40
0
40
0
40
0
40
0
40
1
40
1
40
1
40
1
10
-20.199645434409781
20
63.258737813842842
30
0
10
-21.091577506019217
20
63.745343843935139
30
0
10
-21.137652870808495
20
64.76686474685836
30
0
10
-20.484219572847621
20
66.230791232856646
30
0
0
LINE
5
320
100
AcDbEntity
8
0
100
AcDbLine
10
-20.484219572847621
20
66.230791232856646
30
0
11
-16.353905825502931
21
68.095786508814726
31
0
0
LINE
5
321
100
AcDbEntity
8
0
100
AcDbLine
10
-16.353905825502931
20
68.095786508814726
30
0
11
-10.787951872446399
21
63.002633044738495
31
0
0
LINE
5
322
100
AcDbEntity
8
0
100
AcDbLine
10
-10.787951872446399
20
63.002633044738495
30
0
11
-10.07731041144724
21
55.916306593535523
31
0
0
LINE
5
323
100
AcDbEntity
8
0
100
AcDbLine
10
-10.07731041144724
20
55.916306593535523
30
0
11
-12.059879618084947
21
61.730747241025455
31
0
0
LINE
5
324
100
AcDbEntity
8
0
100
AcDbLine
10
-12.059879618084947
20
61.730747241025455
30
0
11
-16.63241164617552
21
65.772240281291957
31
0
0
LINE
5
325
100
AcDbEntity
8
0
100
AcDbLine
10
-16.63241164617552
20
65.772240281291957
30
0
11
-20.199645434409781
21
63.258737813842842
31
0
0
SPLINE
5
326
100
AcDbEntity
8
0
100
AcDbSpline
70
1064
71
3
72
8
73
4
74
0
42
0.000000001
43
0.0000000001
44
0.0000000001
40
0
40
0
40
0
40
0
40
1
40
1
40
1
40
1
10
-14.858556712288239
20
-51.934167191798011
30
0
10
-13.505657403333089
20
-52.546218824876348
30
0
10
-12.67113869690974
20
-52.245115967374154
30
0
10
-12.26665045122321
20
-51.187331079771376
30
0
0
LINE
5
327
100
AcDbEntity
8
0
100
AcDbLine
10
-12.26665045122321
20
-51.187331079771376
30
0
11
-15.275817689702889
21
-46.201239275364706
31
0
0
LINE
5
328
100
AcDbEntity
8
0
100
AcDbLine
10
-15.275817689702889
20
-46.201239275364706
30
0
11
-9.9383295845135393
21
-41.58863171323997
31
0
0
LINE
5
329
100
AcDbEntity
8
0
100
AcDbLine
10
-9.9383295845135393
20
-41.58863171323997
30
0
11
-0.581257607071342
21
-39.282261542883468
31
0
0
LINE
5
330
100
AcDbEntity
8
0
100
AcDbLine
10
-0.581257607071342
20
-39.282261542883468
30
0
11
-10.33416732547183
21
-40.33658687827613
31
0
0
LINE
5
331
100
AcDbEntity
8
0
100
AcDbLine
10
-10.33416732547183
20
-40.33658687827613
30
0
11
-17.713778750024865
21
-45.915703590706791
31
0
0
LINE
5
332
100
AcDbEntity
8
0
100
AcDbLine
10
-17.713778750024865
20
-45.915703590706791
30
0
11
-14.858556712288239
21
-51.934167191798011
31
0
0
LINE
5
333
100
AcDbEntity
8
0
100
AcDbLine
10
-31.23985483190555
20
65.463616422073883
30
0
11
-24.920585624942628
21
64.585660388635119
31
0
0
LINE
5
334
100
AcDbEntity
8
0
100
AcDbLine
10
-24.920585624942628
20
64.585660388635119
30
0
11
-20.891644581179374
21
56.197585920312392
31
0
0
LINE
5
335
100
AcDbEntity
8
0
100
AcDbLine
10
-20.891644581179374
20
56.197585920312392
30
0
11
-21.00498954094622
21
50.079918829769056
31
0
0
LINE
5
336
100
AcDbEntity
8
0
100
AcDbLine
10
-21.00498954094622
20
50.079918829769056
30
0
11
-19.832227072863304
21
56.659376460798981
31
0
0
LINE
5
337
100
AcDbEntity
8
0
100
AcDbLine
10
-19.832227072863304
20
56.659376460798981
30
0
11
-23.535083676008419
21
66.223371764224296
31
0
0
LINE
5
338
100
AcDbEntity
8
0
100
AcDbLine
10
-23.535083676008419
20
66.223371764224296
30
0
11
-29.83282182294445
21
68.742404666664925
31
0
0
SPLINE
5
339
100
AcDbEntity
8
0
100
AcDbSpline
70
1064
71
3
72
8
73
4
74
0
42
0.000000001
43
0.0000000001
44
0.0000000001
40
6
40
6
40
6
40
6
40
7
40
7
40
7
40
7
10
-29.83282182294445
20
68.742404666664925
30
0
10
-31.756613107316852
20
67.4047413057108
30
0
10
-32.220934479606576
20
66.312636288756039
30
0
10
-31.23985483190555
20
65.463616422073883
30
0
0
LINE
5
340
100
AcDbEntity
8
0
100
AcDbLine
10
-27.245501266977747
20
-32.216904958941328
30
0
11
-23.203964668118076
21
-39.070018014790541
31
0
0
LINE
5
341
100
AcDbEntity
8
0
100
AcDbLine
10
-23.203964668118076
20
-39.070018014790541
30
0
11
-25.664013263888819
21
-47.328855955220753
31
0
0
LINE
5
342
100
AcDbEntity
8
0
100
AcDbLine
10
-25.664013263888819
20
-47.328855955220753
30
0
11
-28.914805049102565
21
-52.248949898356386
31
0
0
LINE
5
343
100
AcDbEntity
8
0
100
AcDbLine
10
-28.914805049102565
20
-52.248949898356386
30
0
11
-24.346105782546672
21
-47.856013750308314
31
0
0
LINE
5
344
100
AcDbEntity
8
0
100
AcDbLine
10
-24.346105782546672
20
-47.856013750308314
30
0
11
-21.446710298115423
21
-38.455036319652535
31
0
0
LINE
5
345
100
AcDbEntity
8
0
100
AcDbLine
10
-21.446710298115423
20
-38.455036319652535
30
0
11
-23.906758893886209
21
-30.723359422715671
31
0
0
SPLINE
5
346
100
AcDbEntity
8
0
100
AcDbSpline
70
1064
71
3
72
8
73
4
74
0
42
0.000000001
43
0.0000000001
44
0.0000000001
40
6
40
6
40
6
40
6
40
7
40
7
40
7
40
7
10
-23.906758893886209
20
-30.723359422715671
30
0
10
-25.213358674530298
20
-30.691564026440563
30
0
10
-26.34272705723075
20
-31.144216385385306
30
0
10
-27.245501266977747
20
-32.216904958941328
30
0
0
LINE
5
347
100
AcDbEntity
8
0
100
AcDbLine
10
-8.2298348565775541
20
46.033840135304921
30
0
11
-5.8330347296251688
21
50.143436546002732
31
0
0
LINE
5
348
100
AcDbEntity
8
0
100
AcDbLine
10
-5.8330347296251688
20
50.143436546002732
30
0
11
-4.5389007700957285
21
56.550719195256477
31
0
0
LINE
5
349
100
AcDbEntity
8
0
100
AcDbLine
10
-4.5389007700957285
20
56.550719195256477
30
0
11
-7.7894451373239102
21
61.558809024794023
31
0
0
LINE
5
350
100
AcDbEntity
8
0
100
AcDbLine
10
-7.7894451373239102
20
61.558809024794023
30
0
11
-5.9192517534567681
21
56.051074108613491
31
0
0
LINE
5
351
100
AcDbEntity
8
0
100
AcDbLine
10
-5.9192517534567681
20
56.051074108613491
30
0
11
-7.4912115708470983
21
50.952292606420912
31
0
0
LINE
5
352
100
AcDbEntity
8
0
100
AcDbLine
10
-7.4912115708470983
20
50.952292606420912
30
0
11
-11.109075865040287
21
47.145363404166012
31
0
0
SPLINE
5
353
100
AcDbEntity
8
0
100
AcDbSpline
70
1064
71
3
72
8
73
4
74
0
42
0.000000001
43
0.0000000001
44
0.0000000001
40
6
40
6
40
6
40
6
40
7
40
7
40
7
40
7
10
-11.109075865040287
20
47.145363404166012
30
0
10
-10.329179004142658
20
46.32040900787274
30
0
10
-9.3647672370773805
20
45.961789183303893
30
0
10
-8.2298348565775541
20
46.033840135304921
30
0
0
SPLINE
5
354
100
AcDbEntity
8
0
100
AcDbSpline
70
1064
71
3
72
8
73
4
74
0
42
0.000000001
43
0.0000000001
44
0.0000000001
40
0
40
0
40
0
40
0
40
1
40
1
40
1
40
1
10
-13.084638020371909
20
-68.202320636221899
30
0
10
-11.510999789973889
20
-68.787761328731619
30
0
10
-10.724378827530598
20
-69.743094744826436
30
0
10
-10.800222606875828
20
-71.101714496450228
30
0
0
LINE
5
355
100
AcDbEntity
8
0
100
AcDbLine
10
-10.800222606875828
20
-71.101714496450228
30
0
11
-19.937617891582001
21
-72.946519900413492
31
0
0
LINE
5
356
100
AcDbEntity
8
0
100
AcDbLine
10
-19.937617891582001
20
-72.946519900413492
30
0
11
-24.506318782340887
21
-79.623871461957648
31
0
0
LINE
5
357
100
AcDbEntity
8
0
100
AcDbLine
10
-24.506318782340887
20
-79.623871461957648
30
0
11
-24.594136185579696
21
-84.10475494947778
31
0
0
LINE
5
358
100
AcDbEntity
8
0
100
AcDbLine
10
-24.594136185579696
20
-84.10475494947778
30
0
11
-25.736275675805267
21
-79.975400947379285
31
0
0
LINE
5
359
100
AcDbEntity
8
0
100
AcDbLine
10
-25.736275675805267
20
-79.975400947379285
30
0
11
-20.99168010610229
21
-71.541064633516442
31
0
0
LINE
5
360
100
AcDbEntity
8
0
100
AcDbLine
10
-20.99168010610229
20
-71.541064633516442
30
0
11
-13.084638020371909
21
-68.202320636221899
31
0
0
SPLINE
5
361
100
AcDbEntity
8
0
100
AcDbSpline
70
1064
71
3
72
8
73
4
74
0
42
0.000000001
43
0.0000000001
44
0.0000000001
40
0
40
0
40
0
40
0
40
1
40
1
40
1
40
1
10
3.5770133790884349
20
73.873236393275164
30
0
10
4.0400066363530787
20
71.409356323832654
30
0
10
3.1295613656887364
20
70.783943307811612
30
0
10
1.7195488296606019
20
70.827118101170498
30
0
0
LINE
5
362
100
AcDbEntity
8
0
100
AcDbLine
10
1.7195488296606019
20
70.827118101170498
30
0
11
-2.5328363507277731
21
77.783501952431664
31
0
0
LINE
5
363
100
AcDbEntity
8
0
100
AcDbLine
10
-2.5328363507277731
20
77.783501952431664
30
0
11
-8.9025128899218817
21
81.51307739393927
31
0
0
LINE
5
364
100
AcDbEntity
8
0
100
AcDbLine
10
-8.9025128899218817
20
81.51307739393927
30
0
11
-14.787192405403911
21
80.710868740027465
31
0
0
LINE
5
365
100
AcDbEntity
8
0
100
AcDbLine
10
-14.787192405403911
20
80.710868740027465
30
0
11
-8.9428302986562151
21
82.851394289274594
31
0
0
LINE
5
366
100
AcDbEntity
8
0
100
AcDbLine
10
-8.9428302986562151
20
82.851394289274594
30
0
11
-1.1078829478867152
21
79.489651859288529
31
0
0
LINE
5
367
100
AcDbEntity
8
0
100
AcDbLine
10
-1.1078829478867152
20
79.489651859288529
30
0
11
3.5770133790884349
21
73.873236393275164
31
0
0
SPLINE
5
368
100
AcDbEntity
8
0
100
AcDbSpline
70
1064
71
3
72
8
73
4
74
0
42
0.000000001
43
0.0000000001
44
0.0000000001
40
0
40
0
40
0
40
0
40
1
40
1
40
1
40
1
10
9.0786716115592032
20
-30.034848948691206
30
0
10
7.94384039348021
20
-30.85184579136148
30
0
10
8.2664395412727778
20
-31.831330926850089
30
0
10
8.9275410185605057
20
-32.667583402098771
30
0
0
LINE
5
369
100
AcDbEntity
8
0
100
AcDbLine
10
8.9275410185605057
20
-32.667583402098771
30
0
11
14.528972587920959
21
-35.502093770734746
31
0
0
LINE
5
370
100
AcDbEntity
8
0
100
AcDbLine
10
14.528972587920959
20
-35.502093770734746
30
0
11
19.344678837135461
21
-34.248235772807853
31
0
0
LINE
5
371
100
AcDbEntity
8
0
100
AcDbLine
10
19.344678837135461
20
-34.248235772807853
30
0
11
22.282319611938192
21
-29.450328058254623
31
0
0
LINE
5
372
100
AcDbEntity
8
0
100
AcDbLine
10
22.282319611938192
20
-29.450328058254623
30
0
11
18.775227884543828
21
-33.033877360758829
31
0
0
LINE
5
373
100
AcDbEntity
8
0
100
AcDbLine
10
18.775227884543828
20
-33.033877360758829
30
0
11
14.562997449421268
21
-33.52780960418368
31
0
0
LINE
5
374
100
AcDbEntity
8
0
100
AcDbLine
10
14.562997449421268
20
-33.52780960418368
30
0
11
9.0786716115592032
21
-30.034848948691206
31
0
0
LINE
5
375
100
AcDbEntity
8
0
100
AcDbLine
10
19.817728701258925
20
54.164627951709491
30
0
11
20.72512941759533
21
49.992872049088611
31
0
0
LINE
5
376
100
AcDbEntity
8
0
100
AcDbLine
10
20.72512941759533
20
49.992872049088611
30
0
11
20.784331701858466
21
54.295295792686517
31
0
0
LINE
5
377
100
AcDbEntity
8
0
100
AcDbLine
10
20.784331701858466
20
54.295295792686517
30
0
11
23.133540402027787
21
58.967297999844895
31
0
0
LINE
5
378
100
AcDbEntity
8
0
100
AcDbLine
10
23.133540402027787
20
58.967297999844895
30
0
11
28.105854692082726
21
59.050481271717381
31
0
0
LINE
5
379
100
AcDbEntity
8
0
100
AcDbLine
10
28.105854692082726
20
59.050481271717381
30
0
11
28.784239310953019
21
55.95767575248663
31
0
0
SPLINE
5
380
100
AcDbEntity
8
0
100
AcDbSpline
70
1064
71
3
72
8
73
4
74
0
42
0.000000001
43
0.0000000001
44
0.0000000001
40
5
40
5
40
5
40
5
40
6
40
6
40
6
40
6
10
28.784239310953019
20
55.95767575248663
30
0
10
29.4213664150802
20
55.221163386249231
30
0
10
29.997060192617713
20
55.124222574809792
30
0
10
30.514604307459518
20
55.630094026761647
30
0
0
LINE
5
381
100
AcDbEntity
8
0
100
AcDbLine
10
30.514604307459518
20
55.630094026761647
30
0
11
29.404179535107659
21
59.072093035927665
31
0
0
LINE
5
382
100
AcDbEntity
8
0
100
AcDbLine
10
29.404179535107659
20
59.072093035927665
30
0
11
29.422462143466234
21
59.072423768278973
31
0
0
LINE
5
383
100
AcDbEntity
8
0
100
AcDbLine
10
29.422462143466234
20
59.072423768278973
30
0
11
29.334951388270213
21
59.642349401553787
31
0
0
LINE
5
384
100
AcDbEntity
8
0
100
AcDbLine
10
29.334951388270213
20
59.642349401553787
30
0
11
27.803609685256891
21
60.759924374555972
31
0
0
LINE
5
385
100
AcDbEntity
8
0
100
AcDbLine
10
27.803609685256891
20
60.759924374555972
30
0
11
22.005641377649759
21
60.118672657163899
31
0
0
LINE
5
386
100
AcDbEntity
8
0
100
AcDbLine
10
22.005641377649759
20
60.118672657163899
30
0
11
19.817728701258925
21
54.164627951709491
31
0
0
LINE
5
387
100
AcDbEntity
8
0
100
AcDbLine
10
17.426937174334348
20
-17.12571077026832
30
0
11
19.184191544337079
21
-14.22631691004004
31
0
0
LINE
5
388
100
AcDbEntity
8
0
100
AcDbLine
10
19.184191544337079
20
-14.22631691004004
30
0
11
16.548246645419354
21
-16.422515366380111
31
0
0
LINE
5
389
100
AcDbEntity
8
0
100
AcDbLine
10
16.548246645419354
20
-16.422515366380111
30
0
11
11.803784260355439
21
-17.739756924526976
31
0
0
LINE
5
390
100
AcDbEntity
8
0
100
AcDbLine
10
11.803784260355439
20
-17.739756924526976
30
0
11
9.2358284954832737
21
-13.651384810394038
31
0
0
LINE
5
391
100
AcDbEntity
8
0
100
AcDbLine
10
9.2358284954832737
20
-13.651384810394038
30
0
11
11.515585695017508
21
-12.742753724933459
31
0
0
SPLINE
5
392
100
AcDbEntity
8
0
100
AcDbSpline
70
1064
71
3
72
8
73
4
74
0
42
0.000000001
43
0.0000000001
44
0.0000000001
40
5
40
5
40
5
40
5
40
6
40
6
40
6
40
6
10
11.515585695017508
20
-12.742753724933459
30
0
10
11.892660643895171
20
-11.0425803421954
30
0
10
11.49243105825321
20
-10.409108721066609
30
0
10
10.43651075559751
20
-10.675351311391902
30
0
0
LINE
5
393
100
AcDbEntity
8
0
100
AcDbLine
10
10.43651075559751
20
-10.675351311391902
30
0
11
8.2254053648983785
21
-12.043021121661241
31
0
0
LINE
5
394
100
AcDbEntity
8
0
100
AcDbLine
10
8.2254053648983785
20
-12.043021121661241
30
0
11
8.1631334251155998
21
-11.943896017724279
31
0
0
LINE
5
395
100
AcDbEntity
8
0
100
AcDbLine
10
8.1631334251155998
20
-11.943896017724279
30
0
11
7.3888888888888866
21
-13.064082781343098
31
0
0
LINE
5
396
100
AcDbEntity
8
0
100
AcDbLine
10
7.3888888888888866
20
-13.064082781343098
30
0
11
7.6607219856495883
21
-14.21726685139452
31
0
0
LINE
5
397
100
AcDbEntity
8
0
100
AcDbLine
10
7.6607219856495883
20
-14.21726685139452
30
0
11
11.276749904689437
21
-19.013888888888886
31
0
0
LINE
5
398
100
AcDbEntity
8
0
100
AcDbLine
10
11.276749904689437
20
-19.013888888888886
30
0
11
17.426937174334348
21
-17.12571077026832
31
0
0
LINE
5
399
100
AcDbEntity
8
0
100
AcDbLine
10
-17.30474497590545
20
45.201186126222751
30
0
11
-17.52441842023563
21
49.682069613742868
31
0
0
LINE
5
400
100
AcDbEntity
8
0
100
AcDbLine
10
-17.52441842023563
20
49.682069613742868
30
0
11
-15.663913470890439
21
54.536305377058163
31
0
0
LINE
5
401
100
AcDbEntity
8
0
100
AcDbLine
10
-15.663913470890439
20
54.536305377058163
30
0
11
-14.998639956674849
21
52.779184191694554
31
0
0
SPLINE
5
402
100
AcDbEntity
8
0
100
AcDbSpline
70
1064
71
3
72
8
73
4
74
0
42
0.000000001
43
0.0000000001
44
0.0000000001
40
3
40
3
40
3
40
3
40
4
40
4
40
4
40
4
10
-14.998639956674849
20
52.779184191694554
30
0
10
-13.260015194113722
20
51.290569735520592
30
0
10
-11.77871614787141
20
51.448637163263399
30
0
10
-12.03338141981466
20
52.471693344125491
30
0
0
LINE
5
403
100
AcDbEntity
8
0
100
AcDbLine
10
-12.03338141981466
20
52.471693344125491
30
0
11
-14.163988065612461
21
56.864626243767837
31
0
0
LINE
5
404
100
AcDbEntity
8
0
100
AcDbLine
10
-14.163988065612461
20
56.864626243767837
30
0
11
-14.691815032301237
21
57.072991987399867
31
0
0
LINE
5
405
100
AcDbEntity
8
0
100
AcDbLine
10
-14.691815032301237
20
57.072991987399867
30
0
11
-14.603334954272899
21
57.303973132428247
31
0
0
LINE
5
406
100
AcDbEntity
8
0
100
AcDbLine
10
-14.603334954272899
20
57.303973132428247
30
0
11
-15.723521717891698
21
57.853090150934271
31
0
0
LINE
5
407
100
AcDbEntity
8
0
100
AcDbLine
10
-15.723521717891698
20
57.853090150934271
30
0
11
-17.283055370170938
21
57.106255663110659
31
0
0
LINE
5
408
100
AcDbEntity
8
0
100
AcDbLine
10
-17.283055370170938
20
57.106255663110659
30
0
11
-18.79788446140217
21
49.769354278425375
31
0
0
LINE
5
409
100
AcDbEntity
8
0
100
AcDbLine
10
-18.79788446140217
20
49.769354278425375
30
0
11
-17.30474497590545
21
45.201186126222751
31
0
0
LINE
5
410
100
AcDbEntity
8
0
100
AcDbLine
10
19.413803667080149
20
-19.523296284915229
30
0
11
22.242945878601578
21
-15.23401027012687
31
0
0
LINE
5
411
100
AcDbEntity
8
0
100
AcDbLine
10
22.242945878601578
20
-15.23401027012687
30
0
11
22.373604882144214
21
-17.101700693170489
31
0
0
SPLINE
5
412
100
AcDbEntity
8
0
100
AcDbSpline
70
1064
71
3
72
8
73
4
74
0
42
0.000000001
43
0.0000000001
44
0.0000000001
40
2
40
2
40
2
40
2
40
3
40
3
40
3
40
3
10
22.373604882144214
20
-17.101700693170489
30
0
10
22.874687723625193
20
-17.98287950095219
30
0
10
23.555618553946839
20
-17.988379052024282
30
0
10
24.416394124703196
20
-17.118199346386799
30
0
0
LINE
5
413
100
AcDbEntity
8
0
100
AcDbLine
10
24.416394124703196
20
-17.118199346386799
30
0
11
23.905730110223249
21
-12.7526732467418
31
0
0
LINE
5
414
100
AcDbEntity
8
0
100
AcDbLine
10
23.905730110223249
20
-12.7526732467418
30
0
11
23.88883190308972
21
-12.739367776457481
31
0
0
LINE
5
415
100
AcDbEntity
8
0
100
AcDbLine
10
23.88883190308972
20
-12.739367776457481
30
0
11
24.02095593766224
21
-12.538986614358338
31
0
0
LINE
5
416
100
AcDbEntity
8
0
100
AcDbLine
10
24.02095593766224
20
-12.538986614358338
30
0
11
23.114853736141157
21
-11.88009946600677
31
0
0
LINE
5
417
100
AcDbEntity
8
0
100
AcDbLine
10
23.114853736141157
20
-11.88009946600677
30
0
11
22.049618629764623
21
-12.187590313575779
31
0
0
LINE
5
418
100
AcDbEntity
8
0
100
AcDbLine
10
22.049618629764623
20
-12.187590313575779
30
0
11
18.227089552039789
21
-19.567204986534627
31
0
0
LINE
5
419
100
AcDbEntity
8
0
100
AcDbLine
10
18.227089552039789
20
-19.567204986534627
30
0
11
18.622394554441769
21
-23.652650287013714
31
0
0
LINE
5
420
100
AcDbEntity
8
0
100
AcDbLine
10
18.622394554441769
20
-23.652650287013714
30
0
11
19.413803667080149
21
-19.523296284915229
31
0
0
LINE
5
421
100
AcDbEntity
8
0
100
AcDbLine
10
-9.415427799494422
20
-79.458333333333329
30
0
11
-5.2447509938800358
21
-81.929890848785917
31
0
0
LINE
5
422
100
AcDbEntity
8
0
100
AcDbLine
10
-5.2447509938800358
20
-81.929890848785917
30
0
11
-2.6655770697491583
21
-84.45415743883369
31
0
0
LINE
5
423
100
AcDbEntity
8
0
100
AcDbLine
10
-2.6655770697491583
20
-84.45415743883369
30
0
11
-3.3487813442542218
21
-84.221567973825657
31
0
0
SPLINE
5
424
100
AcDbEntity
8
0
100
AcDbSpline
70
1064
71
3
72
8
73
4
74
0
42
0.000000001
43
0.0000000001
44
0.0000000001
40
3
40
3
40
3
40
3
40
4
40
4
40
4
40
4
10
-3.3487813442542218
20
-84.221567973825657
30
0
10
-4.2192167965988059
20
-84.636437156643126
30
0
10
-4.6407003792897328
20
-85.189252175726466
30
0
10
-4.4277132837063746
20
-85.935916000245996
30
0
0
LINE
5
425
100
AcDbEntity
8
0
100
AcDbLine
10
-4.4277132837063746
20
-85.935916000245996
30
0
11
-0.063834102620351468
21
-87.194337181689491
31
0
0
LINE
5
426
100
AcDbEntity
8
0
100
AcDbLine
10
-0.063834102620351468
20
-87.194337181689491
30
0
11
0.054513622928589481
21
-87.11650735383526
31
0
0
LINE
5
427
100
AcDbEntity
8
0
100
AcDbLine
10
0.054513622928589481
20
-87.11650735383526
30
0
11
0.36638373539979802
21
-87.421577589852092
31
0
0
LINE
5
428
100
AcDbEntity
8
0
100
AcDbLine
10
0.36638373539979802
20
-87.421577589852092
30
0
11
1.5138888888889008
21
-86.68773905864704
31
0
0
LINE
5
429
100
AcDbEntity
8
0
100
AcDbLine
10
1.5138888888889008
20
-86.68773905864704
30
0
11
1.3071954093819609
21
-85.536127781705318
31
0
0
LINE
5
430
100
AcDbEntity
8
0
100
AcDbLine
10
1.3071954093819609
20
-85.536127781705318
30
0
11
-4.8559976157973894
21
-81.070231698112266
31
0
0
LINE
5
431
100
AcDbEntity
8
0
100
AcDbLine
10
-4.8559976157973894
20
-81.070231698112266
30
0
11
-9.415427799494422
21
-79.458333333333329
31
0
0
LINE
5
432
100
AcDbEntity
8
0
100
AcDbLine
10
-20.089668646712049
20
-43.077759570426316
30
0
11
-21.088536868846496
21
-46.240126756656174
31
0
0
LINE
5
433
100
AcDbEntity
8
0
100
AcDbLine
10
-21.088536868846496
20
-46.240126756656174
30
0
11
-19.40442457870288
21
-43.498496106671041
31
0
0
LINE
5
434
100
AcDbEntity
8
0
100
AcDbLine
10
-19.40442457870288
20
-43.498496106671041
30
0
11
-16.50364760866351
21
-37.931216462431962
31
0
0
LINE
5
435
100
AcDbEntity
8
0
100
AcDbLine
10
-16.50364760866351
20
-37.931216462431962
30
0
11
-15.18198750232947
21
-36.969442150621745
31
0
0
LINE
5
436
100
AcDbEntity
8
0
100
AcDbLine
10
-15.18198750232947
20
-36.969442150621745
30
0
11
-15.514218517000749
21
-37.645748554913702
31
0
0
SPLINE
5
437
100
AcDbEntity
8
0
100
AcDbSpline
70
1064
71
3
72
8
73
4
74
0
42
0.000000001
43
0.0000000001
44
0.0000000001
40
5
40
5
40
5
40
5
40
6
40
6
40
6
40
6
10
-15.514218517000749
20
-37.645748554913702
30
0
10
-15.562164182640769
20
-38.82079759006092
30
0
10
-14.92859177630076
20
-39.419697431753036
30
0
10
-13.51827560467447
20
-39.361709305285927
30
0
0
LINE
5
438
100
AcDbEntity
8
0
100
AcDbLine
10
-13.51827560467447
20
-39.361709305285927
30
0
11
-11.810725746079701
21
-34.675129166372699
31
0
0
LINE
5
439
100
AcDbEntity
8
0
100
AcDbLine
10
-11.810725746079701
20
-34.675129166372699
30
0
11
-11.916495977433138
21
-34.59308042291913
31
0
0
LINE
5
440
100
AcDbEntity
8
0
100
AcDbLine
10
-11.916495977433138
20
-34.59308042291913
30
0
11
-11.863130747603289
21
-34.554276021951864
31
0
0
LINE
5
441
100
AcDbEntity
8
0
100
AcDbLine
10
-11.863130747603289
20
-34.554276021951864
30
0
11
-12.736986179245859
21
-33.532690544813896
31
0
0
LINE
5
442
100
AcDbEntity
8
0
100
AcDbLine
10
-12.736986179245859
20
-33.532690544813896
30
0
11
-13.920941618480077
21
-33.866544010868537
31
0
0
LINE
5
443
100
AcDbEntity
8
0
100
AcDbLine
10
-13.920941618480077
20
-33.866544010868537
30
0
11
-17.842302835656511
21
-36.500618049862574
31
0
0
LINE
5
444
100
AcDbEntity
8
0
100
AcDbLine
10
-17.842302835656511
20
-36.500618049862574
30
0
11
-20.089668646712049
21
-43.077759570426316
31
0
0
LINE
5
445
100
AcDbEntity
8
0
100
AcDbLine
10
-24.9156978097717
20
-28.262144452683078
30
0
11
-19.620320303018438
21
-30.432127187849652
31
0
0
LINE
5
446
100
AcDbEntity
8
0
100
AcDbLine
10
-19.620320303018438
20
-30.432127187849652
30
0
11
-16.914087050426261
21
-30.989815837689697
31
0
0
LINE
5
447
100
AcDbEntity
8
0
100
AcDbLine
10
-16.914087050426261
20
-30.989815837689697
30
0
11
-19.387739045509679
21
-29.885519636818817
31
0
0
LINE
5
448
100
AcDbEntity
8
0
100
AcDbLine
10
-19.387739045509679
20
-29.885519636818817
30
0
11
-23.689402688702728
21
-27.508885994022467
31
0
0
LINE
5
449
100
AcDbEntity
8
0
100
AcDbLine
10
-23.689402688702728
20
-27.508885994022467
30
0
11
-25.817503171839107
21
-25.435842672969397
31
0
0
LINE
5
450
100
AcDbEntity
8
0
100
AcDbLine
10
-25.817503171839107
20
-25.435842672969397
30
0
11
-23.901552296357977
21
-25.594391687791507
31
0
0
SPLINE
5
451
100
AcDbEntity
8
0
100
AcDbSpline
70
1064
71
3
72
8
73
4
74
0
42
0.000000001
43
0.0000000001
44
0.0000000001
40
6
40
6
40
6
40
6
40
7
40
7
40
7
40
7
10
-23.901552296357977
20
-25.594391687791507
30
0
10
-22.999338838998458
20
-25.014677442228212
30
0
10
-22.719279416520237
20
-24.369556494016763
30
0
10
-23.22931968293549
20
-23.641051816839589
30
0
0
LINE
5
452
100
AcDbEntity
8
0
100
AcDbLine
10
-23.22931968293549
20
-23.641051816839589
30
0
11
-28.033931768120986
21
-23.277014415385061
31
0
0
LINE
5
453
100
AcDbEntity
8
0
100
AcDbLine
10
-28.033931768120986
20
-23.277014415385061
30
0
11
-28.305632938422576
21
-23.012422967599502
31
0
0
LINE
5
454
100
AcDbEntity
8
0
100
AcDbLine
10
-28.305632938422576
20
-23.012422967599502
30
0
11
-28.754459080342677
21
-24.209735852838303
31
0
0
LINE
5
455
100
AcDbEntity
8
0
100
AcDbLine
10
-28.754459080342677
20
-24.209735852838303
30
0
11
-28.478899972564626
21
-25.177074274688966
31
0
0
LINE
5
456
100
AcDbEntity
8
0
100
AcDbLine
10
-28.478899972564626
20
-25.177074274688966
30
0
11
-24.9156978097717
21
-28.262144452683078
31
0
0
LINE
5
457
100
AcDbEntity
8
0
100
AcDbLine
10
37.045967737980497
20
-57.695707344950243
30
0
11
34.837308347765578
21
-58.929966948774677
31
0
0
LINE
5
458
100
AcDbEntity
8
0
100
AcDbLine
10
34.837308347765578
20
-58.929966948774677
30
0
11
34.906934977066911
21
-58.363767094552529
31
0
0
SPLINE
5
459
100
AcDbEntity
8
0
100
AcDbSpline
70
1064
71
3
72
8
73
4
74
0
42
0.000000001
43
0.0000000001
44
0.0000000001
40
2
40
2
40
2
40
2
40
3
40
3
40
3
40
3
10
34.906934977066911
20
-58.363767094552529
30
0
10
34.299272072023129
20
-57.574212313658315
30
0
10
33.626116873682783
20
-57.680451455575287
30
0
10
32.906329227969323
20
-58.422228890743469
30
0
0
LINE
5
460
100
AcDbEntity
8
0
100
AcDbLine
10
32.906329227969323
20
-58.422228890743469
30
0
11
33.033444645409773
21
-59.938047782068296
31
0
0
LINE
5
461
100
AcDbEntity
8
0
100
AcDbLine
10
33.033444645409773
20
-59.938047782068296
30
0
11
32.791225265127878
21
-60.073437961906855
31
0
0
LINE
5
462
100
AcDbEntity
8
0
100
AcDbLine
10
32.791225265127878
20
-60.073437961906855
30
0
11
32.955686527324936
21
-61.264901801805919
31
0
0
LINE
5
463
100
AcDbEntity
8
0
100
AcDbLine
10
32.955686527324936
20
-61.264901801805919
30
0
11
33.836798159904319
21
-61.336895742577696
31
0
0
LINE
5
464
100
AcDbEntity
8
0
100
AcDbLine
10
33.836798159904319
20
-61.336895742577696
30
0
11
37.556730034592917
21
-58.506484206330818
31
0
0
LINE
5
465
100
AcDbEntity
8
0
100
AcDbLine
10
37.556730034592917
20
-58.506484206330818
30
0
11
41.149065960831493
21
-53.980391896436146
31
0
0
LINE
5
466
100
AcDbEntity
8
0
100
AcDbLine
10
41.149065960831493
20
-53.980391896436146
30
0
11
42.035906807132051
21
-51.628243069565706
31
0
0
LINE
5
467
100
AcDbEntity
8
0
100
AcDbLine
10
42.035906807132051
20
-51.628243069565706
30
0
11
40.607839429729488
21
-53.729220198739789
31
0
0
LINE
5
468
100
AcDbEntity
8
0
100
AcDbLine
10
40.607839429729488
20
-53.729220198739789
30
0
11
37.045967737980497
21
-57.695707344950243
31
0
0
LINE
5
469
100
AcDbEntity
8
0
100
AcDbLine
10
14.867806732598789
20
-53.266192241889826
30
0
11
17.76720221702999
21
-47.9726095899141
31
0
0
LINE
5
470
100
AcDbEntity
8
0
100
AcDbLine
10
17.76720221702999
20
-47.9726095899141
30
0
11
19.172923853205187
21
-44.19465513700402
31
0
0
LINE
5
471
100
AcDbEntity
8
0
100
AcDbLine
10
19.172923853205187
20
-44.19465513700402
30
0
11
17.283547072832938
21
-47.137957698851693
31
0
0
LINE
5
472
100
AcDbEntity
8
0
100
AcDbLine
10
17.283547072832938
20
-47.137957698851693
30
0
11
14.471967367437598
21
-50.037353183282896
31
0
0
LINE
5
473
100
AcDbEntity
8
0
100
AcDbLine
10
14.471967367437598
20
-50.037353183282896
30
0
11
14.366853827350949
21
-50.664173693472435
31
0
0
LINE
5
474
100
AcDbEntity
8
0
100
AcDbLine
10
14.366853827350949
20
-50.664173693472435
30
0
11
11.660387662042288
21
-47.181866400471129
31
0
0
SPLINE
5
475
100
AcDbEntity
8
0
100
AcDbSpline
70
1064
71
3
72
8
73
4
74
0
42
0.000000001
43
0.0000000001
44
0.0000000001
40
6
40
6
40
6
40
6
40
7
40
7
40
7
40
7
10
11.660387662042288
20
-47.181866400471129
30
0
10
10.740580436319711
20
-46.972704797410387
30
0
10
10.372683858117899
20
-47.463808536178291
30
0
10
10.693878105685551
20
-48.829217455989188
30
0
0
LINE
5
476
100
AcDbEntity
8
0
100
AcDbLine
10
10.693878105685551
20
-48.829217455989188
30
0
11
13.746950797378776
21
-53.749314647530603
31
0
0
LINE
5
477
100
AcDbEntity
8
0
100
AcDbLine
10
13.746950797378776
20
-53.749314647530603
30
0
11
13.86670002993757
21
-53.645398144992726
31
0
0
LINE
5
478
100
AcDbEntity
8
0
100
AcDbLine
10
13.86670002993757
20
-53.645398144992726
30
0
11
13.834500207136488
21
-53.837130426566489
31
0
0
LINE
5
479
100
AcDbEntity
8
0
100
AcDbLine
10
13.834500207136488
20
-53.837130426566489
30
0
11
14.867806732598789
21
-53.266192241889826
31
0
0
LINE
5
480
100
AcDbEntity
8
0
100
AcDbLine
10
36.498631563983743
20
71.689127980643448
30
0
11
37.642095057740889
21
74.460275462582075
31
0
0
LINE
5
481
100
AcDbEntity
8
0
100
AcDbLine
10
37.642095057740889
20
74.460275462582075
30
0
11
40.222222222222214
21
74.53027530666067
31
0
0
SPLINE
5
482
100
AcDbEntity
8
0
100
AcDbSpline
70
1064
71
3
72
11
73
7
74
0
42
0.000000001
43
0.0000000001
44
0.0000000001
40
2
40
2
40
2
40
2
40
3
40
3
40
3
40
4
40
4
40
4
40
4
10
40.222222222222214
20
74.53027530666067
30
0
10
38.892742424624714
20
76.83006066384587
30
0
10
35.386959336478697
20
81.979012608025485
30
0
10
28.936072560693894
20
83.026168411597169
30
0
10
22.262845872450026
20
84.109416079402308
30
0
10
15.37883220116767
20
80.938703641628976
30
0
10
11.426728564318459
20
74.9503626106697
30
0
0
LINE
5
483
100
AcDbEntity
8
0
100
AcDbLine
10
11.426728564318459
20
74.9503626106697
30
0
11
12.702135966968601
21
73.963047749965412
31
0
0
SPLINE
5
484
100
AcDbEntity
8
0
100
AcDbSpline
70
1064
71
3
72
11
73
7
74
0
42
0.000000001
43
0.0000000001
44
0.0000000001
40
5
40
5
40
5
40
5
40
6
40
6
40
6
40
7
40
7
40
7
40
7
10
12.702135966968601
20
73.963047749965412
30
0
10
15.452565518723228
20
80.725182388097309
30
0
10
23.737516824289074
20
81.866878257496523
30
0
10
29.756820362786776
20
79.708024355144985
30
0
10
31.094251313738685
20
79.228347925949848
30
0
10
32.165658017361139
20
78.532992246861482
30
0
10
33.033760519211633
20
77.747622905113758
30
0
0
LINE
5
485
100
AcDbEntity
8
0
100
AcDbLine
10
33.033760519211633
20
77.747622905113758
30
0
11
27.310865169973411
21
74.562441194046102
31
0
0
LINE
5
486
100
AcDbEntity
8
0
100
AcDbLine
10
27.310865169973411
20
74.562441194046102
30
0
11
29.963930803113733
21
69.064737769423445
31
0
0
LINE
5
487
100
AcDbEntity
8
0
100
AcDbLine
10
29.963930803113733
20
69.064737769423445
30
0
11
32.344490966006788
21
66.537956806752632
31
0
0
LINE
5
488
100
AcDbEntity
8
0
100
AcDbLine
10
32.344490966006788
20
66.537956806752632
30
0
11
30.587971151110928
21
69.683235836139517
31
0
0
LINE
5
489
100
AcDbEntity
8
0
100
AcDbLine
10
30.587971151110928
20
69.683235836139517
30
0
11
29.401960789816357
21
73.987729629073399
31
0
0
LINE
5
490
100
AcDbEntity
8
0
100
AcDbLine
10
29.401960789816357
20
73.987729629073399
30
0
11
34.908958723779115
21
75.486320923891299
31
0
0
SPLINE
5
491
100
AcDbEntity
8
0
100
AcDbSpline
70
1064
71
3
72
8
73
4
74
0
42
0.000000001
43
0.0000000001
44
0.0000000001
40
13
40
13
40
13
40
13
40
14
40
14
40
14
40
14
10
34.908958723779115
20
75.486320923891299
30
0
10
35.879356954742605
20
73.925156775173804
30
0
10
36.308508419766774
20
72.416727576098211
30
0
10
36.498631563983743
20
71.689127980643448
30
0
0
SPLINE
5
492
100
AcDbEntity
8
0
100
AcDbSpline
70
1064
71
3
72
8
73
4
74
0
42
0.000000001
43
0.0000000001
44
0.0000000001
40
0
40
0
40
0
40
0
40
1
40
1
40
1
40
1
10
17.051872633966997
20
71.247208387395858
30
0
10
18.19725867938698
20
71.137322028166651
30
0
10
20.294574905578546
20
71.103594381317549
30
0
10
22.517671311331799
20
72.142901589779527
30
0
0
SPLINE
5
493
100
AcDbEntity
8
0
100
AcDbSpline
70
1064
71
3
72
14
73
10
74
0
42
0.000000001
43
0.0000000001
44
0.0000000001
40
1
40
1
40
1
40
1
40
2
40
2
40
2
40
3
40
3
40
3
40
4
40
4
40
4
40
4
10
22.517671311331799
20
72.142901589779527
30
0
10
23.12353400227963
20
72.426134319890679
30
0
10
26.520412322022032
20
74.014188243670219
30
0
10
26.311782793971506
20
75.808074913002471
30
0
10
26.133034132162887
20
77.345041724478307
30
0
10
23.390517268715143
20
78.320316997772494
30
0
10
21.401727930649489
20
78.370999557514224
30
0
10
18.425242195082742
20
78.446852697525514
30
0
10
16.367915362473649
20
76.471298316025397
30
0
10
15.874999999999998
20
75.971017525485152
30
0
0
SPLINE
5
494
100
AcDbEntity
8
0
100
AcDbSpline
70
1064
71
3
72
8
73
4
74
0
42
0.000000001
43
0.0000000001
44
0.0000000001
40
4
40
4
40
4
40
4
40
5
40
5
40
5
40
5
10
15.874999999999998
20
75.971017525485152
30
0
10
16.26728119913777
20
74.39641909976649
30
0
10
16.65959143482926
20
72.821806813114378
30
0
10
17.051872633966997
20
71.247208387395858
30
0
0
LWPOLYLINE
5
495
100
AcDbEntity
8
0
100
AcDbPolyline
90
6
70
1
43
0.0
10
-11.845004779061101
20
28.093454823408109
10
-16.633375865744409
20
31.56392167715499
10
-21.685335595188967
20
29.98243529826896
10
-21.817051954829672
20
24.842664662397262
10
-15.40328253923513
20
21.72359735783877
10
-11.493605229872699
20
24.886570115610816
0
LWPOLYLINE
5
496
100
AcDbEntity
8
0
100
AcDbPolyline
90
6
70
1
43
0.0
10
1.8686017574539422
20
-51.136322375512236
10
-2.1063134459444779
20
-51.255941162009705
10
-5.3704161213748733
20
-48.192351786800977
10
-5.0530534737466226
20
-42.709128386947555
10
-2.699288233255654
20
-40.777627353212047
10
3.0252732666251134
20
-42.237548545942289
0
LWPOLYLINE
5
497
100
AcDbEntity
8
0
100
AcDbPolyline
90
6
70
1
43
0.0
10
12.93980823797518
20
-64.265955219269046
10
13.397295736006802
20
-59.419268426613698
10
17.401111255551765
20
-57.455367675037337
10
24.173336938405761
20
-57.539854774895417
10
25.945765926582599
20
-58.776237317964707
10
24.309861988525778
20
-64.805256478348127
0
LWPOLYLINE
5
498
100
AcDbEntity
8
0
100
AcDbPolyline
90
6
70
1
43
0.0
10
-3.8943764167214936
20
-67.138459141662707
10
0.76213538046454232
20
-68.763857470573967
10
-0.11641546699974646
20
-79.878187066424687
10
-4.7730701940423739
20
-78.16497783108629
10
-5.8273987778408252
20
-75.485250918376579
10
-6.2666092334563412
20
-67.533907073921256
0
LWPOLYLINE
5
499
100
AcDbEntity
8
0
100
AcDbPolyline
90
6
70
1
43
0.0
10
22.052382717958547
20
42.53591853893839
10
23.391044264155877
20
52.526598570554334
10
26.882398367396952
20
51.764990333010722
10
28.20084183570134
20
47.280384172408134
10
27.229276135668407
20
41.301569800790332
10
25.505282192970682
20
40.591988031038106
0
LWPOLYLINE
5
500
100
AcDbEntity
8
0
100
AcDbPolyline
90
6
70
1
43
0.0
10
26.749776007697736
20
-15.851525721813157
10
27.837108394740497
20
-15.98325507507719
10
29.220877304308907
20
-19.607527448116436
10
24.311678514330879
20
-24.15427561226857
10
22.862057921753781
20
-22.902229559152513
10
22.763189441877479
20
-22.375065267253269
0
LWPOLYLINE
5
501
100
AcDbEntity
8
0
100
AcDbPolyline
90
6
70
1
43
0.0
10
-16.583333333333318
20
-19.624250213178943
10
-9.0320806019346058
20
-21.917091072025816
10
-7.2488543762836519
20
-20.75768447765449
10
-6.7016841309625619
20
-18.357784410618532
10
-13.79063587088309
20
-15.680555555555559
10
-15.839997481914889
20
-17.350160319554256
0
LWPOLYLINE
5
502
100
AcDbEntity
8
0
100
AcDbPolyline
90
5
70
1
43
0.0
10
-18.124999999999989
20
-25.700550730861824
10
-17.112287817705269
20
-28.59374121601417
10
-10.08421684887095
20
-31.430555555555546
10
-7.9687259685046259
20
-24.943046362501995
10
-17.23849937129372
20
-23.631312519216991
0
LWPOLYLINE
5
503
100
AcDbEntity
8
0
100
AcDbPolyline
90
6
70
1
43
0.0
10
27.641060789587627
20
-26.749940430609513
10
37.699624325469358
20
-31.786555488205568
10
36.511225668042087
20
-35.164207391488532
10
32.918293129312453
20
-37.426164404881618
10
27.277311982858357
20
-33.14334862532538
10
26.448611176087212
20
-29.33070091977887
0
LINE
5
504
100
AcDbEntity
8
0
100
AcDbLine
10
11.115245262124668
20
-6.1509664683915668
30
0
11
8.4513250531886843
21
-9.4871997473278498
31
0
0
LINE
5
505
100
AcDbEntity
8
0
100
AcDbLine
10
8.4513250531886843
20
-9.4871997473278498
30
0
11
11.826518925152509
21
-6.818413261564273
31
0
0
LINE
5
506
100
AcDbEntity
8
0
100
AcDbLine
10
11.826518925152509
20
-6.818413261564273
30
0
11
16.93336698562522
21
-5.6930293146864779
31
0
0
LINE
5
507
100
AcDbEntity
8
0
100
AcDbLine
10
16.93336698562522
20
-5.6930293146864779
30
0
11
20.135300057662207
21
-9.4980856162409388
31
0
0
LINE
5
508
100
AcDbEntity
8
0
100
AcDbLine
10
20.135300057662207
20
-9.4980856162409388
30
0
11
18.163931068170889
21
-11.9758579984778
31
0
0
SPLINE
5
509
100
AcDbEntity
8
0
100
AcDbSpline
70
1064
71
3
72
8
73
4
74
0
42
0.000000001
43
0.0000000001
44
0.0000000001
40
5
40
5
40
5
40
5
40
6
40
6
40
6
40
6
10
18.163931068170889
20
-11.9758579984778
30
0
10
17.959372039840567
20
-12.96310470720131
30
0
10
18.321483155771901
20
-13.409086015791289
30
0
10
19.001606421172379
20
-13.524978010335419
30
0
0
LINE
5
510
100
AcDbEntity
8
0
100
AcDbLine
10
19.001606421172379
20
-13.524978010335419
30
0
11
20.971275279401418
21
-10.49169514468066
31
0
0
LINE
5
511
100
AcDbEntity
8
0
100
AcDbLine
10
20.971275279401418
20
-10.49169514468066
30
0
11
20.98306770650407
21
-10.505670187267668
31
0
0
LINE
5
512
100
AcDbEntity
8
0
100
AcDbLine
10
20.98306770650407
20
-10.505670187267668
30
0
11
21.370001479354841
21
-10.078170929764029
31
0
0
LINE
5
513
100
AcDbEntity
8
0
100
AcDbLine
10
21.370001479354841
20
-10.078170929764029
30
0
11
21.270784723097552
21
-8.1849891458493591
31
0
0
LINE
5
514
100
AcDbEntity
8
0
100
AcDbLine
10
21.270784723097552
20
-8.1849891458493591
30
0
11
17.114933855652698
21
-4.091513382072054
31
0
0
LINE
5
515
100
AcDbEntity
8
0
100
AcDbLine
10
17.114933855652698
20
-4.091513382072054
30
0
11
11.115245262124668
21
-6.1509664683915668
31
0
0
LINE
5
516
100
AcDbEntity
8
0
100
AcDbLine
10
10.27492792380465
20
-29.175632896209837
30
0
11
13.174321784032896
21
-30.932887266212518
31
0
0
LINE
5
517
100
AcDbEntity
8
0
100
AcDbLine
10
13.174321784032896
20
-30.932887266212518
30
0
11
10.97812332769286
21
-28.296942367294804
31
0
0
LINE
5
518
100
AcDbEntity
8
0
100
AcDbLine
10
10.97812332769286
20
-28.296942367294804
30
0
11
9.6608817695459646
21
-23.552479982230878
31
0
0
LINE
5
519
100
AcDbEntity
8
0
100
AcDbLine
10
9.6608817695459646
20
-23.552479982230878
30
0
11
13.74925388367893
21
-20.984524217358739
31
0
0
LINE
5
520
100
AcDbEntity
8
0
100
AcDbLine
10
13.74925388367893
20
-20.984524217358739
30
0
11
14.657884969139481
21
-23.264281416892967
31
0
0
SPLINE
5
521
100
AcDbEntity
8
0
100
AcDbSpline
70
1064
71
3
72
8
73
4
74
0
42
0.000000001
43
0.0000000001
44
0.0000000001
40
5
40
5
40
5
40
5
40
6
40
6
40
6
40
6
10
14.657884969139481
20
-23.264281416892967
30
0
10
16.347679695247081
20
-23.673957366691869
30
0
10
16.93405268023033
20
-23.235409585865877
30
0
10
16.725287382681039
20
-22.185206477472946
30
0
0
LINE
5
522
100
AcDbEntity
8
0
100
AcDbLine
10
16.725287382681039
20
-22.185206477472946
30
0
11
15.3576175724117
21
-19.97410108677385
31
0
0
LINE
5
523
100
AcDbEntity
8
0
100
AcDbLine
10
15.3576175724117
20
-19.97410108677385
30
0
11
15.45674267634867
21
-19.911829146991071
31
0
0
LINE
5
524
100
AcDbEntity
8
0
100
AcDbLine
10
15.45674267634867
20
-19.911829146991071
30
0
11
14.336555912729857
21
-19.137584610764346
31
0
0
LINE
5
525
100
AcDbEntity
8
0
100
AcDbLine
10
14.336555912729857
20
-19.137584610764346
30
0
11
13.183371842678421
21
-19.409417707525048
31
0
0
LINE
5
526
100
AcDbEntity
8
0
100
AcDbLine
10
13.183371842678421
20
-19.409417707525048
30
0
11
8.3867498051840563
21
-23.025445626564906
31
0
0
LINE
5
527
100
AcDbEntity
8
0
100
AcDbLine
10
8.3867498051840563
20
-23.025445626564906
30
0
11
10.27492792380465
21
-29.175632896209837
31
0
0
LINE
5
528
100
AcDbEntity
8
0
100
AcDbLine
10
0.69209758827683887
20
-66.652177656542477
30
0
11
-2.9122694717393141
21
-63.981014736100342
31
0
0
LINE
5
529
100
AcDbEntity
8
0
100
AcDbLine
10
-2.9122694717393141
20
-63.981014736100342
30
0
11
-5.4864453641458661
21
-59.464522514548307
31
0
0
LINE
5
530
100
AcDbEntity
8
0
100
AcDbLine
10
-5.4864453641458661
20
-59.464522514548307
30
0
11
-3.7058492789100099
21
-60.064140134380366
31
0
0
SPLINE
5
531
100
AcDbEntity
8
0
100
AcDbSpline
70
1064
71
3
72
8
73
4
74
0
42
0.000000001
43
0.0000000001
44
0.0000000001
40
3
40
3
40
3
40
3
40
4
40
4
40
4
40
4
10
-3.7058492789100099
20
-60.064140134380366
30
0
10
-1.3060703223601551
20
-59.400932819978102
30
0
10
-0.78480547621549901
20
-58.696336683600649
30
0
10
-1.5879873460354599
20
-57.966052994854721
30
0
0
LINE
5
532
100
AcDbEntity
8
0
100
AcDbLine
10
-1.5879873460354599
20
-57.966052994854721
30
0
11
-6.335940531551536
21
-56.828386660631011
31
0
0
LINE
5
533
100
AcDbEntity
8
0
100
AcDbLine
10
-6.335940531551536
20
-56.828386660631011
30
0
11
-6.8317314682263053
21
-57.104446322650539
31
0
0
LINE
5
534
100
AcDbEntity
8
0
100
AcDbLine
10
-6.8317314682263053
20
-57.104446322650539
30
0
11
-6.9542507031584728
21
-56.88957414986367
31
0
0
LINE
5
535
100
AcDbEntity
8
0
100
AcDbLine
10
-6.9542507031584728
20
-56.88957414986367
30
0
11
-8.0891229531361599
21
-57.407659916537796
31
0
0
LINE
5
536
100
AcDbEntity
8
0
100
AcDbLine
10
-8.0891229531361599
20
-57.407659916537796
30
0
11
-8.5003916947927731
21
-59.087173235011448
31
0
0
LINE
5
537
100
AcDbEntity
8
0
100
AcDbLine
10
-8.5003916947927731
20
-59.087173235011448
30
0
11
-3.7871892243181775
21
-64.910449939457976
31
0
0
LINE
5
538
100
AcDbEntity
8
0
100
AcDbLine
10
-3.7871892243181775
20
-64.910449939457976
30
0
11
0.69209758827683887
21
-66.652177656542477
31
0
0
LINE
5
539
100
AcDbEntity
8
0
100
AcDbLine
10
23.520530898361983
20
-34.621554438514949
30
0
11
20.691388686840572
21
-38.910840453303329
31
0
0
LINE
5
540
100
AcDbEntity
8
0
100
AcDbLine
10
20.691388686840572
20
-38.910840453303329
30
0
11
20.56072968329795
21
-37.043150030259689
31
0
0
SPLINE
5
541
100
AcDbEntity
8
0
100
AcDbSpline
70
1064
71
3
72
8
73
4
74
0
42
0.000000001
43
0.0000000001
44
0.0000000001
40
2
40
2
40
2
40
2
40
3
40
3
40
3
40
3
10
20.56072968329795
20
-37.043150030259689
30
0
10
19.912887114772218
20
-36.035793394779382
30
0
10
19.218473776048519
20
-36.288330960903131
30
0
10
18.517940440738936
20
-37.026651377043308
30
0
0
LINE
5
542
100
AcDbEntity
8
0
100
AcDbLine
10
18.517940440738936
20
-37.026651377043308
30
0
11
19.028604455218911
21
-41.392177476688289
31
0
0
LINE
5
543
100
AcDbEntity
8
0
100
AcDbLine
10
19.028604455218911
20
-41.392177476688289
30
0
11
19.045502662352437
21
-41.405482946972619
31
0
0
LINE
5
544
100
AcDbEntity
8
0
100
AcDbLine
10
19.045502662352437
20
-41.405482946972619
30
0
11
18.913378627779924
21
-41.605864109071739
31
0
0
LINE
5
545
100
AcDbEntity
8
0
100
AcDbLine
10
18.913378627779924
20
-41.605864109071739
30
0
11
19.819480829301
21
-42.264751257423328
31
0
0
LINE
5
546
100
AcDbEntity
8
0
100
AcDbLine
10
19.819480829301
20
-42.264751257423328
30
0
11
20.884715935677495
21
-41.957260409854392
31
0
0
LINE
5
547
100
AcDbEntity
8
0
100
AcDbLine
10
20.884715935677495
20
-41.957260409854392
30
0
11
24.707245013402353
21
-34.577645736895484
31
0
0
LINE
5
548
100
AcDbEntity
8
0
100
AcDbLine
10
24.707245013402353
20
-34.577645736895484
30
0
11
24.311940011000388
21
-30.492200436416447
31
0
0
LINE
5
549
100
AcDbEntity
8
0
100
AcDbLine
10
24.311940011000388
20
-30.492200436416447
30
0
11
23.520530898361983
21
-34.621554438514949
31
0
0
LINE
5
550
100
AcDbEntity
8
0
100
AcDbLine
10
34.628769807121948
20
-10.344595384348599
30
0
11
30.002006031612908
21
-8.8967699339860786
31
0
0
LINE
5
551
100
AcDbEntity
8
0
100
AcDbLine
10
30.002006031612908
20
-8.8967699339860786
30
0
11
26.912115700016859
21
-7.0321955355624732
31
0
0
LINE
5
552
100
AcDbEntity
8
0
100
AcDbLine
10
26.912115700016859
20
-7.0321955355624732
30
0
11
27.630472526297712
21
-7.1016894926410705
31
0
0
SPLINE
5
553
100
AcDbEntity
8
0
100
AcDbSpline
70
1064
71
3
72
8
73
4
74
0
42
0.000000001
43
0.0000000001
44
0.0000000001
40
3
40
3
40
3
40
3
40
4
40
4
40
4
40
4
10
27.630472526297712
20
-7.1016894926410705
30
0
10
28.385408932474924
20
-6.5171548662239918
30
0
10
28.648840943846498
20
-5.8829299242403161
30
0
10
28.286918418410547
20
-5.1854023181936348
30
0
0
LINE
5
554
100
AcDbEntity
8
0
100
AcDbLine
10
28.286918418410547
20
-5.1854023181936348
30
0
11
23.750680789137483
21
-4.9626613300739182
31
0
0
LINE
5
555
100
AcDbEntity
8
0
100
AcDbLine
10
23.750680789137483
20
-4.9626613300739182
30
0
11
23.653367049693518
21
-5.065587042905336
31
0
0
LINE
5
556
100
AcDbEntity
8
0
100
AcDbLine
10
23.653367049693518
20
-5.065587042905336
30
0
11
23.279778304649927
21
-4.8402799982187732
31
0
0
LINE
5
557
100
AcDbEntity
8
0
100
AcDbLine
10
23.279778304649927
20
-4.8402799982187732
30
0
11
22.331442756917969
21
-5.8180052950547925
31
0
0
LINE
5
558
100
AcDbEntity
8
0
100
AcDbLine
10
22.331442756917969
20
-5.8180052950547925
30
0
11
22.797051575047888
21
-6.8913827478315852
31
0
0
LINE
5
559
100
AcDbEntity
8
0
100
AcDbLine
10
22.797051575047888
20
-6.8913827478315852
30
0
11
29.821039366697473
21
-9.8227257161361443
31
0
0
LINE
5
560
100
AcDbEntity
8
0
100
AcDbLine
10
29.821039366697473
20
-9.8227257161361443
30
0
11
34.628769807121948
21
-10.344595384348599
31
0
0
LINE
5
561
100
AcDbEntity
8
0
100
AcDbLine
10
-11.598314330151847
20
-65.482512513381351
30
0
11
-9.0943586569646371
21
-67.65702623659574
31
0
0
LINE
5
562
100
AcDbEntity
8
0
100
AcDbLine
10
-9.0943586569646371
20
-67.65702623659574
30
0
11
-10.93969355107841
21
-65.021212898114143
31
0
0
LINE
5
563
100
AcDbEntity
8
0
100
AcDbLine
10
-10.93969355107841
20
-65.021212898114143
30
0
11
-14.893412746699321
21
-60.145024408192057
31
0
0
LINE
5
564
100
AcDbEntity
8
0
100
AcDbLine
10
-14.893412746699321
20
-60.145024408192057
30
0
11
-15.249999999999998
21
-58.549831380901672
31
0
0
LINE
5
565
100
AcDbEntity
8
0
100
AcDbLine
10
-15.249999999999998
20
-58.549831380901672
30
0
11
-14.76168989024697
21
-59.123696379232108
31
0
0
SPLINE
5
566
100
AcDbEntity
8
0
100
AcDbSpline
70
1064
71
3
72
8
73
4
74
0
42
0.000000001
43
0.0000000001
44
0.0000000001
40
5
40
5
40
5
40
5
40
6
40
6
40
6
40
6
10
-14.76168989024697
20
-59.123696379232108
30
0
10
-13.27480358597515
20
-59.356542109207567
30
0
10
-12.424851703448089
20
-59.027098535031691
30
0
10
-12.39331617963949
20
-57.975168898939643
30
0
0
LINE
5
567
100
AcDbEntity
8
0
100
AcDbLine
10
-12.39331617963949
20
-57.975168898939643
30
0
11
-16.013735943363017
21
-54.544087341692268
31
0
0
LINE
5
568
100
AcDbEntity
8
0
100
AcDbLine
10
-16.013735943363017
20
-54.544087341692268
30
0
11
-16.13109110082425
21
-54.608485363091489
31
0
0
LINE
5
569
100
AcDbEntity
8
0
100
AcDbLine
10
-16.13109110082425
20
-54.608485363091489
30
0
11
-16.145462048221155
21
-54.544087341692268
31
0
0
LINE
5
570
100
AcDbEntity
8
0
100
AcDbLine
10
-16.145462048221155
20
-54.544087341692268
30
0
11
-17.430372223130838
21
-54.939392344094244
31
0
0
LINE
5
571
100
AcDbEntity
8
0
100
AcDbLine
10
-17.430372223130838
20
-54.939392344094244
30
0
11
-17.595092386015796
21
-56.158439466574784
31
0
0
LINE
5
572
100
AcDbEntity
8
0
100
AcDbLine
10
-17.595092386015796
20
-56.158439466574784
30
0
11
-16.738487768346609
21
-60.804044741182778
31
0
0
LINE
5
573
100
AcDbEntity
8
0
100
AcDbLine
10
-16.738487768346609
20
-60.804044741182778
30
0
11
-11.598314330151847
21
-65.482512513381351
31
0
0
LINE
5
574
100
AcDbEntity
8
0
100
AcDbLine
10
33.726835747828162
20
48.315445248817177
30
0
11
36.951768343483856
21
43.587902783283255
31
0
0
LINE
5
575
100
AcDbEntity
8
0
100
AcDbLine
10
36.951768343483856
20
43.587902783283255
30
0
11
38.903498464227383
21
41.632023292266929
31
0
0
LINE
5
576
100
AcDbEntity
8
0
100
AcDbLine
10
38.903498464227383
20
41.632023292266929
30
0
11
37.446930248297519
21
43.916062110759476
31
0
0
LINE
5
577
100
AcDbEntity
8
0
100
AcDbLine
10
37.446930248297519
20
43.916062110759476
30
0
11
35.165246451136831
21
48.268833253493213
31
0
0
LINE
5
578
100
AcDbEntity
8
0
100
AcDbLine
10
35.165246451136831
20
48.268833253493213
30
0
11
34.530616815529712
21
51.171171190897567
31
0
0
LINE
5
579
100
AcDbEntity
8
0
100
AcDbLine
10
34.530616815529712
20
51.171171190897567
30
0
11
36.042522461840662
21
49.983675142899408
31
0
0
SPLINE
5
580
100
AcDbEntity
8
0
100
AcDbSpline
70
1064
71
3
72
8
73
4
74
0
42
0.000000001
43
0.0000000001
44
0.0000000001
40
6
40
6
40
6
40
6
40
7
40
7
40
7
40
7
10
36.042522461840662
20
49.983675142899408
30
0
10
36.852623329331323
20
49.969881974458566
30
0
10
37.424796745765128
20
50.3464570185455
30
0
10
37.679375251399563
20
51.243891903347091
30
0
0
LINE
5
581
100
AcDbEntity
8
0
100
AcDbLine
10
37.679375251399563
20
51.243891903347091
30
0
11
33.869504404605273
21
54.193757095099905
31
0
0
LINE
5
582
100
AcDbEntity
8
0
100
AcDbLine
10
33.869504404605273
20
54.193757095099905
30
0
11
33.788434995817369
21
54.564240443097212
31
0
0
LINE
5
583
100
AcDbEntity
8
0
100
AcDbLine
10
33.788434995817369
20
54.564240443097212
30
0
11
32.754417990646211
21
53.812035760948156
31
0
0
LINE
5
584
100
AcDbEntity
8
0
100
AcDbLine
10
32.754417990646211
20
53.812035760948156
30
0
11
32.451689094934146
21
52.852852952527982
31
0
0
LINE
5
585
100
AcDbEntity
8
0
100
AcDbLine
10
32.451689094934146
20
52.852852952527982
30
0
11
33.726835747828162
21
48.315445248817177
31
0
0
LINE
5
586
100
AcDbEntity
8
0
100
AcDbLine
10
-6.6954690388759985
20
23.760542860216237
30
0
11
-9.1670451471101781
21
23.219354711026575
31
0
0
LINE
5
587
100
AcDbEntity
8
0
100
AcDbLine
10
-9.1670451471101781
20
23.219354711026575
30
0
11
-8.9363139752391714
21
23.741076158502228
31
0
0
SPLINE
5
588
100
AcDbEntity
8
0
100
AcDbSpline
70
1064
71
3
72
8
73
4
74
0
42
0.000000001
43
0.0000000001
44
0.0000000001
40
2
40
2
40
2
40
2
40
3
40
3
40
3
40
3
10
-8.9363139752391714
20
23.741076158502228
30
0
10
-9.418905729811712
20
24.813066076883484
30
0
10
-10.125573782509971
20
24.739146894590931
30
0
10
-10.868002684671431
20
24.264927162880507
30
0
0
LINE
5
589
100
AcDbEntity
8
0
100
AcDbLine
10
-10.868002684671431
20
24.264927162880507
30
0
11
-11.185648402446098
21
22.777322901449534
31
0
0
LINE
5
590
100
AcDbEntity
8
0
100
AcDbLine
10
-11.185648402446098
20
22.777322901449534
30
0
11
-11.45671042758166
21
22.717941864827704
31
0
0
LINE
5
591
100
AcDbEntity
8
0
100
AcDbLine
10
-11.45671042758166
20
22.717941864827704
30
0
11
-11.644610400520301
21
21.529948940303264
31
0
0
LINE
5
592
100
AcDbEntity
8
0
100
AcDbLine
10
-11.644610400520301
20
21.529948940303264
30
0
11
-10.822178338988248
21
21.20568617534455
31
0
0
LINE
5
593
100
AcDbEntity
8
0
100
AcDbLine
10
-10.822178338988248
20
21.20568617534455
30
0
11
-6.4416017342997627
21
22.836536023521749
31
0
0
LINE
5
594
100
AcDbEntity
8
0
100
AcDbLine
10
-6.4416017342997627
20
22.836536023521749
30
0
11
-1.6917128068889469
21
26.127272139027252
31
0
0
LINE
5
595
100
AcDbEntity
8
0
100
AcDbLine
10
-1.6917128068889469
20
26.127272139027252
30
0
11
-0.16124661180661945
21
28.121454682358028
31
0
0
LINE
5
596
100
AcDbEntity
8
0
100
AcDbLine
10
-0.16124661180661945
20
28.121454682358028
30
0
11
-2.1369183884863912
21
26.524519379177342
31
0
0
LINE
5
597
100
AcDbEntity
8
0
100
AcDbLine
10
-2.1369183884863912
20
26.524519379177342
30
0
11
-6.6954690388759985
21
23.760542860216237
31
0
0
LINE
5
598
100
AcDbEntity
8
0
100
AcDbLine
10
15.825634096441641
20
-41.047204981249919
30
0
11
10.53205144446588
21
-38.147809496818695
31
0
0
LINE
5
599
100
AcDbEntity
8
0
100
AcDbLine
10
10.53205144446588
20
-38.147809496818695
30
0
11
6.7540969915557971
21
-36.742087860643515
31
0
0
LINE
5
600
100
AcDbEntity
8
0
100
AcDbLine
10
6.7540969915557971
20
-36.742087860643515
30
0
11
9.6973995534034589
21
-38.631464641015782
31
0
0
LINE
5
601
100
AcDbEntity
8
0
100
AcDbLine
10
9.6973995534034589
20
-38.631464641015782
30
0
11
12.596795037834649
21
-41.443044346411092
31
0
0
LINE
5
602
100
AcDbEntity
8
0
100
AcDbLine
10
12.596795037834649
20
-41.443044346411092
30
0
11
13.223615548024227
21
-41.548157886497812
31
0
0
LINE
5
603
100
AcDbEntity
8
0
100
AcDbLine
10
13.223615548024227
20
-41.548157886497812
30
0
11
9.741308255022858
21
-44.156030062222911
31
0
0
SPLINE
5
604
100
AcDbEntity
8
0
100
AcDbSpline
70
1064
71
3
72
8
73
4
74
0
42
0.000000001
43
0.0000000001
44
0.0000000001
40
6
40
6
40
6
40
6
40
7
40
7
40
7
40
7
10
9.7413082550228598
20
-44.156030062222911
30
0
10
9.4726715896000151
20
-45.376009477176922
30
0
10
10.270333883463328
20
-45.475534135031111
30
0
10
11.38865931054089
20
-45.221664722516564
30
0
0
LINE
5
605
100
AcDbEntity
8
0
100
AcDbLine
10
11.38865931054089
20
-45.221664722516564
30
0
11
16.308756502082389
21
-42.168592030823341
31
0
0
LINE
5
606
100
AcDbEntity
8
0
100
AcDbLine
10
16.308756502082389
20
-42.168592030823341
30
0
11
16.204839999544518
21
-42.048842798264559
31
0
0
LINE
5
607
100
AcDbEntity
8
0
100
AcDbLine
10
16.204839999544518
20
-42.048842798264559
30
0
11
16.396572281118267
21
-42.081042621065599
31
0
0
LINE
5
608
100
AcDbEntity
8
0
100
AcDbLine
10
16.396572281118267
20
-42.081042621065599
30
0
11
15.825634096441641
21
-41.047204981249919
31
0
0
LWPOLYLINE
5
609
100
AcDbEntity
8
0
100
AcDbPolyline
90
8
70
1
43
0.0
10
11.900469987801747
20
-57.922342346637016
10
11.909606550089869
20
-62.59668711749346
10
11.320132364601347
20
-63.255596458678276
10
10.271748622735858
20
-62.666726730295238
10
10.94632933674383
20
-57.839694585538673
10
9.9354185234188233
20
-52.605241751187137
10
9.1235376458486765
20
-50.198232529748225
10
10.462480676045999
20
-52.325565198838945
0
LWPOLYLINE
5
610
100
AcDbEntity
8
0
100
AcDbPolyline
90
6
70
1
43
0.0
10
31.510977428009483
20
-19.155812254253988
10
33.400087839103577
20
-16.212376507767228
10
31.994229769883475
20
-19.990464957417849
10
29.094839158061049
20
-25.283912800551612
10
28.062463300869361
20
-25.855117354506394
10
28.699527658847419
20
-22.055074554046094
0
LWPOLYLINE
5
611
100
AcDbEntity
8
0
100
AcDbPolyline
90
8
70
1
43
0.0
10
27.779932708992337
20
-59.353856647606555
10
28.043521351753618
20
-57.475790816338304
10
28.504820967020827
20
-57.129848588946174
10
31.563480916743622
20
-62.626602783630005
10
36.79106245904245
20
-62.494879927177656
10
40.613058798210986
20
-60.517952112844767
10
37.362275134011824
20
-63.285623116620684
10
31.080222078057957
20
-64.164183709302463
0
LWPOLYLINE
5
612
100
AcDbEntity
8
0
100
AcDbPolyline
90
8
70
1
43
0.0
10
26.45137095123841
20
-34.476225634238823
10
30.092015289666577
20
-40.272221349883587
10
34.836480923136321
20
-38.95431386854127
10
37.472295885820806
20
-36.757714234081114
10
35.715044764223954
20
-39.657109718512316
10
29.564850997767351
20
-41.546088569170173
10
25.948829575539172
20
-36.749598092112066
10
25.676989981966802
20
-35.59641239785762
0
LWPOLYLINE
5
613
100
AcDbEntity
8
0
100
AcDbPolyline
90
6
70
1
43
0.0
10
25.052135903438231
20
-10.939968787078971
10
25.826316650104037
20
-9.9617127255520614
10
32.655322781679452
20
-14.433005928795907
10
37.080737532154593
20
-15.168570252706097
10
32.299196392569428
20
-15.65937521259055
10
25.451249125159897
20
-12.62241363522172
0
LWPOLYLINE
5
614
100
AcDbEntity
8
0
100
AcDbPolyline
90
6
70
1
43
0.0
10
-9.5437699200742561
20
-82.56111600055128
10
-14.834407111940489
20
-76.078601962824663
10
-15.733865521097741
20
-76.746478762091755
10
-15.75849896534598
20
-77.855060352656878
10
-9.8559886549610383
20
-83.706175775011957
10
-5.8388731652110746
20
-84.548723072071923
0
LWPOLYLINE
5
615
100
AcDbEntity
8
0
100
AcDbPolyline
90
6
70
1
43
0.0
10
37.526033342957476
20
-47.353489662094056
10
33.012285733643751
20
-53.481724205132217
10
31.364935490227232
20
-58.02846587247268
10
33.868891975515808
20
-53.877029207534171
10
39.404100392377885
20
-48.308956262827877
10
38.679218631161042
20
-47.155772192776432
0
LWPOLYLINE
5
616
100
AcDbEntity
8
0
100
AcDbPolyline
90
8
70
1
43
0.0
10
19.116146711080603
20
-54.372424417332994
10
20.213563801710027
20
-53.816689043050097
10
23.554197219279231
20
-50.476691090723477
10
24.49298610923471
20
-43.590183013146593
10
24.864202432845861
20
-40.294568569059663
10
23.739496193964357
20
-43.309004783823127
10
21.96518617070311
20
-49.330620413464544
10
18.061822180713559
20
-53.538156674461774
0
LWPOLYLINE
5
617
100
AcDbEntity
8
0
100
AcDbPolyline
90
8
70
1
43
0.0
10
40.636934477444051
20
-33.044920356126923
10
41.402734164430022
20
-32.020777105279599
10
41.408624812820101
20
-31.01497311961781
10
38.850123436244047
20
-27.056516241876629
10
34.372713272435931
20
-23.492641541903463
10
31.930332908215977
20
-22.200552843683166
10
33.996511773225642
20
-23.952308769957014
10
37.462201796612995
20
-27.43698474685965
0
LWPOLYLINE
5
618
100
AcDbEntity
8
0
100
AcDbPolyline
90
4
70
1
43
0.0
10
43.638888888888886
20
-66.875
10
43.638888888888886
20
-2.875
10
5.6388888888888875
20
-2.8750000000000036
10
5.6388888888888866
20
-66.875
0
LWPOLYLINE
5
619
100
AcDbEntity
8
0
100
AcDbPolyline
90
4
70
1
43
0.0
10
5.6249999999999973
20
85.3888888888889
10
43.625
20
85.3888888888889
10
43.625
20
-2.6111111111111107
10
5.6249999999999991
20
-2.611111111111112
0
LWPOLYLINE
5
620
100
AcDbEntity
8
0
100
AcDbPolyline
90
4
70
1
43
0.0
10
5.3472222222222205
20
18.402777777777782
10
5.3472222222222223
20
85.402777777777771
10
-32.652777777777779
20
85.402777777777771
10
-32.652777777777779
20
18.402777777777779
0
LWPOLYLINE
5
621
100
AcDbEntity
8
0
100
AcDbPolyline
90
4
70
1
43
0.0
10
-32.652777777777779
20
-90.874999999999986
10
-32.652777777777779
20
-2.875
10
5.3472222222222205
20
-2.8750000000000036
10
5.3472222222222223
20
-90.874999999999986
0
ENDSEC
0
SECTION
2
OBJECTS
0
DICTIONARY
5
C
100
AcDbDictionary
3
ACAD_GROUP
350
D
3
ACAD_MLINESTYLE
350
17
0
DICTIONARY
5
D
100
AcDbDictionary
0
DICTIONARY
5
1A
330
C
100
AcDbDictionary
0
DICTIONARY
5
17
100
AcDbDictionary
0
ENDSEC
0
EOF
